<svg xmlns="http://www.w3.org/2000/svg" viewBox="0 0 743.64 852.71"><defs><style>.cls-1,.cls-10,.cls-11,.cls-12,.cls-13,.cls-14,.cls-15,.cls-16,.cls-17,.cls-18,.cls-19,.cls-2,.cls-20,.cls-21,.cls-22,.cls-23,.cls-24,.cls-25,.cls-26,.cls-27,.cls-28,.cls-3,.cls-30,.cls-31,.cls-4,.cls-5,.cls-6,.cls-7,.cls-8,.cls-9{fill:#1a1a1a;}.cls-1{opacity:0.7;}.cls-2{opacity:0.84;}.cls-3{opacity:0.75;}.cls-4{opacity:0.49;}.cls-5{opacity:0.22;}.cls-6{opacity:0.62;}.cls-7{opacity:0.86;}.cls-8{opacity:0.35;}.cls-9{opacity:0.48;}.cls-10{opacity:0.98;}.cls-11{opacity:0.21;}.cls-12{opacity:0.83;}.cls-13{opacity:0.54;}.cls-14{opacity:0.28;}.cls-15{opacity:0.3;}.cls-16{opacity:0.56;}.cls-17{opacity:0.72;}.cls-18{opacity:0.5;}.cls-19{opacity:0.73;}.cls-20{opacity:0.89;}.cls-21{opacity:0.91;}.cls-22{opacity:0.69;}.cls-23{opacity:0.39;}.cls-24{opacity:0.59;}.cls-25{opacity:0.76;}.cls-26{opacity:0.37;}.cls-27{opacity:0.44;}.cls-28{opacity:0.57;}.cls-29{fill:#dffbff;}.cls-30{font-size:40px;font-family:Avenir-Heavy, Avenir;font-weight:800;}.cls-31{font-size:25.61px;font-family:Montserrat-Regular, Montserrat;}.cls-32{fill:#fcffe3;stroke:#1a1a1a;stroke-miterlimit:10;stroke-width:5px;}</style></defs><g id="Layer_2" data-name="Layer 2"><g id="Layer_1-2" data-name="Layer 1"><path class="cls-1" d="M371.78,594.82a.07.07,0,0,1,0-.1s0,0,0,0,0,0,0,0a.07.07,0,0,1,0,.1l0,0Zm0-.09s0,0,0,0a.06.06,0,0,0,0,0h.05v-.08h-.05Z"/><path class="cls-2" d="M371.78,594.82a.07.07,0,0,1,0-.1s0,0,0,0,0,0,0,0a.07.07,0,0,1,0,.1l0,0Zm0-.09s0,0,0,0a.06.06,0,0,0,0,0h.05v-.08h-.05Z"/><path class="cls-3" d="M371.78,492.46a.07.07,0,0,1,0-.1s0,0,0,0,0,0,0,0a.07.07,0,0,1,0,.1l0,0Zm0-.09s0,0,0,0a.06.06,0,0,0,0,0h.05v-.08h-.05Z"/><path class="cls-4" d="M371.8,492.34h.05v.14h0v-.12h0Z"/><path class="cls-5" d="M371.81,510h0v.06h0V510h0Z"/><path class="cls-2" d="M371.78,510.1a.07.07,0,0,1,0-.1s0,0,0,0,0,0,0,0a.07.07,0,0,1,0,.1l0,0Zm0-.09s0,0,0,0a.06.06,0,0,0,0,0s0,0,0,0h0V510h-.05Z"/><path class="cls-6" d="M371.8,510h.05v.14h0V510h0Z"/><path class="cls-3" d="M371.81,527.66h0v.07h0v-.06h0Z"/><path class="cls-7" d="M371.8,527.62h.05v.14h0v-.12h0Z"/><path class="cls-8" d="M371.78,527.74a.07.07,0,0,1,0-.1l0,0,0,0a.07.07,0,0,1,0,.1s0,0,0,0S371.79,527.76,371.78,527.74Zm0-.09s0,0,0,0,0,0,0,0h.05v-.08h-.05Z"/><path class="cls-9" d="M371.81,545.3h0v.07h0v-.06h0Z"/><path class="cls-10" d="M371.78,545.38a.07.07,0,0,1,0-.1l0,0,0,0a.07.07,0,0,1,0,.1s0,0,0,0S371.79,545.4,371.78,545.38Zm0-.09a.06.06,0,0,0,0,0s0,0,0,0h.05v-.08h-.05Z"/><path class="cls-11" d="M371.8,545.26h.05v.14h0v-.12h0Z"/><path class="cls-12" d="M371.81,562.94h0V563h0V563h0Z"/><path class="cls-13" d="M371.78,563a.07.07,0,0,1,0-.1l0,0,0,0a.07.07,0,0,1,0,.1s0,0,0,0S371.79,563,371.78,563Zm0-.09a.06.06,0,0,0,0,0s0,0,0,0h.05v-.08h-.05Z"/><path class="cls-14" d="M371.78,562.87h.08v.21h0v-.18h-.05Z"/><path class="cls-15" d="M371.8,580.64v0h0s0,0,0,0a0,0,0,0,1,0,0h0Zm0,0v0h0s0,0,0,0v0h0Z"/><path class="cls-16" d="M371.8,580.54h.05v.14h0v-.11h0Z"/><path class="cls-17" d="M371.76,580.69s0,0,0-.08a.11.11,0,0,1,0-.08.08.08,0,0,1,.12,0,.11.11,0,0,1,0,.08.1.1,0,0,1,0,.08.07.07,0,0,1-.12,0Zm0-.13a.07.07,0,0,0,0,.05.11.11,0,0,0,0,.06l0,0,0,0a.11.11,0,0,0,0-.06.07.07,0,0,0,0-.05s0,0,0,0S371.79,580.54,371.78,580.56Z"/><path class="cls-18" d="M371.81,598.22h0v.07h0v-.06h0Z"/><path class="cls-10" d="M371.78,598.31a.11.11,0,0,1,0-.06.08.08,0,0,1,0,0l0,0,0,0a.08.08,0,0,1,0,0,.11.11,0,0,1,0,.06l0,0Zm0-.09a0,0,0,0,0,0,0s0,0,0,0l0,0,0,0v-.07l0,0Z"/><path class="cls-19" d="M371.8,598.19h.05v.13h0v-.11h0Z"/><path class="cls-20" d="M371.8,615.92v0s0,0,0,0h0s0,0,0,0v0h0Zm0,0v0h0s0,0,0,0h0Z"/><path class="cls-21" d="M371.78,616a.11.11,0,0,1,0-.06s0,0,0,0l0,0,0,0s0,0,0,0a.11.11,0,0,1,0,.06l0,0Zm0-.09a0,0,0,0,0,0,0s0,0,0,0a0,0,0,0,0,0,0l0,0v-.07l0,0Z"/><path class="cls-22" d="M371.8,615.83h.05V616h0v-.11h0Z"/><path class="cls-23" d="M371.78,633.59s0,0,0-.05a.11.11,0,0,1,0-.06l0,0,0,0a.11.11,0,0,1,0,.06s0,0,0,.05l0,0Zm0-.09s0,0,0,0a0,0,0,0,0,0,0l0,0,0,0v-.07l0,0Z"/><path class="cls-24" d="M371.78,633.59s0,0,0-.05a.11.11,0,0,1,0-.06l0,0,0,0a.11.11,0,0,1,0,.06s0,0,0,.05l0,0Zm0-.09s0,0,0,0a0,0,0,0,0,0,0l0,0,0,0v-.07l0,0Z"/><path class="cls-25" d="M371.78,651.23a.08.08,0,0,1,0-.05.11.11,0,0,1,0-.06l0,0,0,0a.11.11,0,0,1,0,.06.08.08,0,0,1,0,.05l0,0Zm0-.09s0,0,0,0a0,0,0,0,0,0,0l0,0,0,0v-.07l0,0Z"/><path class="cls-26" d="M371.8,651.11h.05v.14h0v-.12h0Z"/><path class="cls-20" d="M371.8,668.75h.05v.14h0v-.12h0Z"/><path class="cls-27" d="M371.8,668.75h.05v.14h0v-.12h0Z"/><path class="cls-18" d="M371.8,686.48v0s0,0,0,0h0a0,0,0,0,1,0,0s0,0,0,0h0Zm0,0v0h0v0s0,0,0,0a0,0,0,0,0,0,0Z"/><path class="cls-28" d="M371.8,686.39h.05v.14h0v-.12h0Z"/><rect class="cls-29" width="743.64" height="852.71" rx="23.96"/><text class="cls-30" transform="translate(169.54 572.3)">A Secure Experience.</text><text class="cls-31" transform="translate(138.82 628.02)">Choose your nodes, defne your web <tspan x="-46.67" y="30.73">gateways, and share your web projects with </tspan><tspan x="-51.47" y="61.46">the world while keeping all your data private </tspan><tspan x="85.99" y="92.18">and secure at all times. </tspan></text><path class="cls-32" d="M241.36,299.05,267,284.25l-94.57-54.6c-4.47-2.58-4.47-6.78,0-9.36l96.61-55.78c4.47-2.58,11.73-2.58,16.2,0l94.57,54.6,25.65-14.81L310.9,149.7C292.29,139,262,139,243.4,149.7l-96.61,55.78c-18.61,10.75-18.61,28.23,0,39Z"/><path class="cls-32" d="M200,305.57c0-13.71,8.34-29.64,18.62-35.58l171.35-98.92c4.6-2.66,8.81-2.85,12.06-1h0L606.59,288.92,408.75,438,207.2,321a9.35,9.35,0,0,1-1.78-1h0C202.05,317.43,200,312.43,200,305.57Z"/><path class="cls-32" d="M408.75,438,207.2,321a9.35,9.35,0,0,1-1.78-1h0c-3.37-2.55-5.45-7.55-5.45-14.41a45.75,45.75,0,0,1,5-19.81L434.74,418.41Z"/><path class="cls-32" d="M421.64,437.47,593,338.54c10.29-5.94,18.62-21.87,18.62-35.58h0c0-13.71-8.33-20-18.62-14.08L421.64,387.81C411.35,393.75,403,409.68,403,423.39h0C403,437.1,411.35,443.4,421.64,437.47Z"/><path class="cls-32" d="M447.3,404.1l20.6-11.88c2.05-1.18,3.72-4.36,3.72-7.09h0c0-2.74-1.67-4-3.72-2.81L447.3,394.2c-2.05,1.19-3.71,4.36-3.71,7.1h0C443.59,404,445.25,405.29,447.3,404.1Z"/></g></g></svg>