<svg xmlns="http://www.w3.org/2000/svg" viewBox="0 0 122.18 118.19"><defs><style>.cls-1{fill:#333;}</style></defs><g id="Layer_2" data-name="Layer 2"><g id="Layer_1-2" data-name="Layer 1"><path class="cls-1" d="M120.36,56.59l1.82-8.08L106.41,45l4.42-19.68-9.16-2.06L97.25,42.91,85.84,40.35l8-35.5L72.24,0,63.79,37.65Q58.06,25.86,43.3,22.55a32.32,32.32,0,0,0-17.61.84A32.7,32.7,0,0,0,10.58,34.14Q4.09,42,1.33,54.34q-2.7,12,.09,21.92A35.36,35.36,0,0,0,11,92.63a32.83,32.83,0,0,0,15.74,8.48q16.65,3.73,27-7.78l-2.57,11.44,19.26,4.32L84,48.43,95.43,51,85.62,94.66q-2.06,9.16,1.52,15t11.93,7.71a31.9,31.9,0,0,0,7.46.82l1.82-8.08a27.25,27.25,0,0,1-5.92-.76A10.07,10.07,0,0,1,95.76,105q-2.1-3.3-.76-9.24l9.6-42.72ZM49,82a15,15,0,0,1-13.52,3.27A15.46,15.46,0,0,1,24.36,76.4q-3.42-7.16-1.17-17.15t8.35-15.16a15.42,15.42,0,0,1,13.89-3.27,14.92,14.92,0,0,1,10.79,8.82q3.27,7.11,1,17.25T49,82Z"/></g></g></svg>