<svg xmlns="http://www.w3.org/2000/svg" viewBox="0 0 183.38 38.15"><defs><style>.cls-1{fill:#1a1a1a;}</style></defs><g id="Layer_2" data-name="Layer 2"><g id="Layer_1-2" data-name="Layer 1"><path class="cls-1" d="M21.4,1.36V30.15H16.08V27a7,7,0,0,1-6.64,3.64,8.8,8.8,0,0,1-4.64-1.3,9.48,9.48,0,0,1-3.48-3.74A11.88,11.88,0,0,1,0,19.84,12.83,12.83,0,0,1,1.24,14a8.86,8.86,0,0,1,3.34-3.72A8.72,8.72,0,0,1,9.16,9a7.57,7.57,0,0,1,6.28,2.76V1.36ZM14.16,24.29a7.11,7.11,0,0,0,1.28-4.45,7.22,7.22,0,0,0-1.28-4.48,4,4,0,0,0-3.36-1.68,4.15,4.15,0,0,0-3.46,1.68A7.1,7.1,0,0,0,6,19.84a7,7,0,0,0,1.32,4.43A4.16,4.16,0,0,0,10.8,26,4,4,0,0,0,14.16,24.29Z"/><path class="cls-1" d="M25.15,5.74a3.32,3.32,0,0,1-1-2.42,3.21,3.21,0,0,1,1-2.36,3.36,3.36,0,0,1,2.48-1,3.3,3.3,0,0,1,2.44,1,3.21,3.21,0,0,1,1,2.36,3.32,3.32,0,0,1-1,2.42,3.28,3.28,0,0,1-2.44,1A3.34,3.34,0,0,1,25.15,5.74Zm-.52,3.74h6V30.15h-6Z"/><path class="cls-1" d="M55.15,9.48V29.07a8.75,8.75,0,0,1-2.58,6.56c-1.72,1.68-4.36,2.52-7.9,2.52s-6.22-.64-7.78-1.92a7.83,7.83,0,0,1-2.74-5.4h6.24a3.16,3.16,0,0,0,1.1,2.32,4.91,4.91,0,0,0,3.14.8A4.55,4.55,0,0,0,48,32.77a4.8,4.8,0,0,0,1.16-3.5v-3a6,6,0,0,1-2.54,2.24,8.63,8.63,0,0,1-3.62.68A9.05,9.05,0,0,1,38.35,28,8.83,8.83,0,0,1,35,24.41a11,11,0,0,1-1.24-5.33A11,11,0,0,1,35,13.74a8.63,8.63,0,0,1,3.38-3.52A9.45,9.45,0,0,1,43.11,9,8.22,8.22,0,0,1,47,9.88a7.06,7.06,0,0,1,2.78,2.6v-3ZM47.85,23a5.83,5.83,0,0,0,1.34-4,5.65,5.65,0,0,0-1.34-3.9,4.54,4.54,0,0,0-6.74,0,5.74,5.74,0,0,0-1.32,3.94,5.76,5.76,0,0,0,1.34,4,4.29,4.29,0,0,0,3.38,1.52A4.24,4.24,0,0,0,47.85,23Z"/><path class="cls-1" d="M58.91,5.74a3.32,3.32,0,0,1-1-2.42,3.21,3.21,0,0,1,1-2.36,3.63,3.63,0,0,1,4.92,0,3.2,3.2,0,0,1,1,2.36,3.46,3.46,0,0,1-5.87,2.42Zm-.52,3.74h6V30.15h-6Z"/><path class="cls-1" d="M76.22,14.32v8.31a2.94,2.94,0,0,0,.66,2.1,2.64,2.64,0,0,0,2,.7,9.18,9.18,0,0,0,1.64-.12v4.76a9,9,0,0,1-1.42.26q-.62.06-1.74.06-7.11,0-7.12-7.55V14.32H67.1V9.48h3.16V3.64h6V9.48h4.32v4.84Z"/><path class="cls-1" d="M99.24,10.92c1.61,1.28,2.42,3.22,2.42,5.84V30.15H96.38v-2.6a7.68,7.68,0,0,1-6.52,3.08,9.06,9.06,0,0,1-3.94-.8,6.28,6.28,0,0,1-2.64-2.22,5.58,5.58,0,0,1-.94-3.18,5.76,5.76,0,0,1,1.78-4.37c1.19-1.14,3.07-1.82,5.66-2.06l6-.6v-1a3,3,0,0,0-.9-2.38,3.57,3.57,0,0,0-2.5-.82,4.15,4.15,0,0,0-2.5.66,3.31,3.31,0,0,0-1.22,2h-6a7,7,0,0,1,2.9-5.08A11.35,11.35,0,0,1,92.34,9Q96.81,9,99.24,10.92ZM94.62,25.55a5.14,5.14,0,0,0,1.08-3.43V20.76l-4.48.6a3.76,3.76,0,0,0-2.2.94,2.46,2.46,0,0,0-.76,1.85,2.4,2.4,0,0,0,.88,1.92,3.4,3.4,0,0,0,2.32.76A3.89,3.89,0,0,0,94.62,25.55Z"/><path class="cls-1" d="M111.09,30.15h-6V1.36h6Z"/><path class="cls-1" d="M122.3,13v11.8a3.29,3.29,0,0,0,.74,2.38,2.71,2.71,0,0,0,2,.74,8,8,0,0,0,1.61-.14V30a8.66,8.66,0,0,1-2,.22,4.8,4.8,0,0,1-3.6-1.32A5.32,5.32,0,0,1,119.77,25V13h-3.31V10.73h3.31V5.3h2.53v5.43h4.36V13Z"/><path class="cls-1" d="M157.22,10.73,150.29,30h-2.9l-4.84-15.26L137.67,30h-2.9l-6.92-19.25h2.64l5.69,16.35,5.22-16.35h2.27L148.84,27l5.7-16.27Z"/><path class="cls-1" d="M159.56,6.6A1.84,1.84,0,0,1,159,5.26a1.91,1.91,0,0,1,.56-1.38,1.87,1.87,0,0,1,1.38-.55,1.9,1.9,0,0,1,1.36.55,1.88,1.88,0,0,1,.57,1.38,1.81,1.81,0,0,1-.57,1.34,1.91,1.91,0,0,1-1.36.56A1.88,1.88,0,0,1,159.56,6.6Zm.11,4.13h2.53V30h-2.53Z"/><path class="cls-1" d="M181.49,12.37a8.45,8.45,0,0,1,1.89,5.88V30h-2.53V18.7a7,7,0,0,0-1.3-4.56,4.53,4.53,0,0,0-3.69-1.58,4.93,4.93,0,0,0-3.9,1.65,6.89,6.89,0,0,0-1.46,4.68V30h-2.56V10.73h2.45v2.94a6.22,6.22,0,0,1,6-3.38A6.61,6.61,0,0,1,181.49,12.37Z"/></g></g></svg>