<svg xmlns="http://www.w3.org/2000/svg" xmlns:xlink="http://www.w3.org/1999/xlink" viewBox="0 0 1000.12 1001.21"><defs><style>.cls-1{fill:none;}.cls-10,.cls-11,.cls-12,.cls-13,.cls-14,.cls-15,.cls-16,.cls-17,.cls-18,.cls-2,.cls-20,.cls-21,.cls-3,.cls-4,.cls-5,.cls-6,.cls-7,.cls-8,.cls-9{fill:#1a1a1a;}.cls-2{opacity:0.7;}.cls-3{opacity:0.84;}.cls-4{opacity:0.75;}.cls-5{opacity:0.49;}.cls-6{opacity:0.22;}.cls-7{opacity:0.62;}.cls-8{opacity:0.86;}.cls-9{opacity:0.35;}.cls-10{opacity:0.48;}.cls-11{opacity:0.98;}.cls-12{opacity:0.21;}.cls-13{opacity:0.83;}.cls-14{opacity:0.54;}.cls-15{opacity:0.28;}.cls-16{opacity:0.3;}.cls-17{opacity:0.56;}.cls-18{opacity:0.72;}.cls-19{fill:#e8fff6;}.cls-20{font-size:40px;font-family:Avenir-Heavy, Avenir;font-weight:800;}.cls-21{font-size:25.61px;font-family:Montserrat-Regular, Montserrat;}.cls-22{clip-path:url(#clip-path);}.cls-23{fill:#ffddd6;}.cls-24{fill:#333;}</style><clipPath id="clip-path" transform="translate(216.91)"><rect class="cls-1" x="25.81" y="88.09" width="397" height="474.01"/></clipPath></defs><g id="Layer_2" data-name="Layer 2"><g id="Layer_1-2" data-name="Layer 1"><path class="cls-2" d="M62.25,554.82a.13.13,0,0,1,0-.1s0,0,0,0,0,0,.05,0a.13.13,0,0,1,0,.1l-.05,0Zm0-.09s0,0,0,0a.06.06,0,0,0,0,0h0v0s0,0,0,0h0Z" transform="translate(216.91)"/><path class="cls-3" d="M79.89,554.82a.13.13,0,0,1,0-.1,0,0,0,0,1,0,0s0,0,0,0a.13.13,0,0,1,0,.1l0,0Zm0-.09s0,0,0,0a.06.06,0,0,0,0,0h0a.06.06,0,0,0,0,0s0,0,0,0h0Z" transform="translate(216.91)"/><path class="cls-4" d="M62.25,612.46a.13.13,0,0,1,0-.1s0,0,0,0,0,0,.05,0a.13.13,0,0,1,0,.1l-.05,0Zm0-.09s0,0,0,0a.06.06,0,0,0,0,0h0v0s0,0,0,0h0Z" transform="translate(216.91)"/><path class="cls-5" d="M79.91,612.34h0v.14h0v-.12h0Z" transform="translate(216.91)"/><path class="cls-6" d="M44.64,630h0v.06h0V630h0Z" transform="translate(216.91)"/><path class="cls-3" d="M62.25,630.1a.13.13,0,0,1,0-.1s0,0,0,0,0,0,.05,0a.13.13,0,0,1,0,.1l-.05,0Zm0-.09s0,0,0,0a.06.06,0,0,0,0,0h0v0s0,0,0,0h0Z" transform="translate(216.91)"/><path class="cls-7" d="M79.91,630h0v.14h0V630h0Z" transform="translate(216.91)"/><path class="cls-4" d="M44.64,647.66h0v.07h0v-.06h0Z" transform="translate(216.91)"/><path class="cls-8" d="M62.27,647.62h0v.14h0v-.12h0Z" transform="translate(216.91)"/><path class="cls-9" d="M79.89,647.74a.13.13,0,0,1,0-.1l0,0,0,0a.13.13,0,0,1,0,.1s0,0,0,0A0,0,0,0,1,79.89,647.74Zm0-.09s0,0,0,0,0,0,0,0h0s0,0,0,0,0,0,0,0h0Z" transform="translate(216.91)"/><path class="cls-10" d="M44.64,665.3h0v.07h0v-.06h0Z" transform="translate(216.91)"/><path class="cls-11" d="M62.25,665.38a.13.13,0,0,1,0-.1l0,0,.05,0a.13.13,0,0,1,0,.1s0,0-.05,0S62.26,665.4,62.25,665.38Zm0-.09a.06.06,0,0,0,0,0s0,0,0,0h0s0,0,0,0v0h0Z" transform="translate(216.91)"/><path class="cls-12" d="M79.91,665.26h0v.14h0v-.12h0Z" transform="translate(216.91)"/><path class="cls-13" d="M44.64,682.94h0V683h0V683h0Z" transform="translate(216.91)"/><path class="cls-14" d="M62.25,683a.13.13,0,0,1,0-.1l0,0,.05,0a.13.13,0,0,1,0,.1s0,0-.05,0S62.26,683,62.25,683Zm0-.09a.06.06,0,0,0,0,0s0,0,0,0h0s0,0,0,0,0,0,0,0h0Z" transform="translate(216.91)"/><path class="cls-15" d="M79.9,682.87H80v.21h0v-.18h0Z" transform="translate(216.91)"/><path class="cls-16" d="M44.63,700.64v0h0s0,0,0,0a0,0,0,0,1,0,0h0Zm0,0v0h0v0h0Z" transform="translate(216.91)"/><path class="cls-17" d="M62.27,700.54h0v.14h0v-.11h0Z" transform="translate(216.91)"/><path class="cls-18" d="M79.87,700.69a.15.15,0,0,1,0-.08.19.19,0,0,1,0-.08.07.07,0,0,1,.06,0,.09.09,0,0,1,.07,0,.19.19,0,0,1,0,.08.15.15,0,0,1,0,.08.09.09,0,0,1-.07,0A.07.07,0,0,1,79.87,700.69Zm0-.13a.08.08,0,0,0,0,.05.11.11,0,0,0,0,.06l0,0,0,0a.11.11,0,0,0,0-.06.07.07,0,0,0,0-.05s0,0,0,0S79.9,700.54,79.9,700.56Z" transform="translate(216.91)"/><rect class="cls-19" x="236.69" width="743.64" height="1001.21" rx="23.96"/><text class="cls-20" transform="translate(396.5 682.3)">Multi-Currency Wallet.</text><text class="cls-21" transform="translate(345.68 738.03)">Buy, receive, send, and store your favorite <tspan x="-0.81" y="30.73">digital currencies all in one place. Beneft </tspan><tspan x="8.6" y="61.46">from a wide array of projects to fnd the </tspan><tspan x="-0.54" y="92.18">value you really care about and start your </tspan><tspan x="131.87" y="122.91">digital asset journey.​​​​​​​</tspan></text><g class="cls-22"><path class="cls-23" d="M320,491.31H-151a28.3,28.3,0,0,1-28.26-28.26V255.83H348.25V463.05A28.3,28.3,0,0,1,320,491.31Z" transform="translate(216.91)"/><path class="cls-24" d="M320,114.54H-151a66,66,0,0,0-65.94,65.93V463.05A66,66,0,0,0-151,529H320a66,66,0,0,0,65.94-65.94V180.47A66,66,0,0,0,320,114.54Zm-471,37.67H320a28.3,28.3,0,0,1,28.26,28.26v37.68H-179.23V180.47A28.3,28.3,0,0,1-151,152.21Zm471,339.1H-151a28.3,28.3,0,0,1-28.26-28.26V255.83H348.25V463.05A28.3,28.3,0,0,1,320,491.31Z" transform="translate(216.91)"/><path class="cls-24" d="M300.57,352.2v-14H273.3v-34H257.45v34H237.72v-61.4H200.41v65.11q-13.77-17.28-39.31-17.28a54.68,54.68,0,0,0-28.67,7.89q-13.14,7.88-20.91,23.28t-7.76,36.69q0,20.78,8.26,36.05T133.81,452a55.37,55.37,0,0,0,29,8.13q28.8,0,41.57-22.78v19.78h33.3V352.2h19.73v75.52q0,15.84,8,24.12T288,460.11a53.48,53.48,0,0,0,12.59-1.4v-14a45,45,0,0,1-10,.93q-7.94,0-12.59-4.66t-4.66-14.92V352.2ZM192.4,420.43a25.3,25.3,0,0,1-21,10.39,26.12,26.12,0,0,1-21.54-10.52q-8.27-10.51-8.26-27.79,0-17.53,8.14-28.05a26,26,0,0,1,21.66-10.52,25.21,25.21,0,0,1,21,10.52q8,10.52,8,28.05T192.4,420.43Z" transform="translate(216.91)"/><path class="cls-23" d="M-151,152.21H320a28.3,28.3,0,0,1,28.26,28.26v37.68H-179.23V180.47A28.3,28.3,0,0,1-151,152.21Z" transform="translate(216.91)"/></g></g></g></svg>