<svg xmlns="http://www.w3.org/2000/svg" viewBox="0 0 743.64 917.47"><defs><style>.cls-1,.cls-10,.cls-11,.cls-12,.cls-13,.cls-14,.cls-15,.cls-16,.cls-17,.cls-18,.cls-19,.cls-2,.cls-20,.cls-21,.cls-22,.cls-23,.cls-24,.cls-25,.cls-26,.cls-27,.cls-29,.cls-3,.cls-30,.cls-4,.cls-5,.cls-6,.cls-7,.cls-8,.cls-9{fill:#1a1a1a;}.cls-1{opacity:0.7;}.cls-2{opacity:0.84;}.cls-3{opacity:0.75;}.cls-4{opacity:0.49;}.cls-5{opacity:0.22;}.cls-6{opacity:0.62;}.cls-7{opacity:0.86;}.cls-8{opacity:0.35;}.cls-9{opacity:0.48;}.cls-10{opacity:0.98;}.cls-11{opacity:0.21;}.cls-12{opacity:0.83;}.cls-13{opacity:0.54;}.cls-14{opacity:0.28;}.cls-15{opacity:0.3;}.cls-16{opacity:0.56;}.cls-17{opacity:0.72;}.cls-18{opacity:0.5;}.cls-19{opacity:0.73;}.cls-20{opacity:0.89;}.cls-21{opacity:0.91;}.cls-22{opacity:0.69;}.cls-23{opacity:0.39;}.cls-24{opacity:0.59;}.cls-25{opacity:0.76;}.cls-26{opacity:0.37;}.cls-27{opacity:0.44;}.cls-28{fill:#dffbff;}.cls-29{font-size:40px;font-family:Avenir-Heavy, Avenir;font-weight:800;}.cls-30{font-size:25.61px;font-family:Montserrat-Regular, Montserrat;}.cls-31{fill:#ffddd6;}.cls-32{fill:#e8fff6;}.cls-33{fill:#333;}.cls-34{fill:#fcffe3;}</style></defs><g id="Layer_2" data-name="Layer 2"><g id="Layer_1-2" data-name="Layer 1"><path class="cls-1" d="M371.78,659.58a.07.07,0,0,1,0-.1s0,0,0,0,0,0,0,0a.07.07,0,0,1,0,.1l0,0Zm0-.09s0,0,0,0a.06.06,0,0,0,0,0h.05v-.08h-.05Z"/><path class="cls-2" d="M371.78,659.58a.07.07,0,0,1,0-.1s0,0,0,0,0,0,0,0a.07.07,0,0,1,0,.1l0,0Zm0-.09s0,0,0,0a.06.06,0,0,0,0,0h.05v-.08h-.05Z"/><path class="cls-3" d="M371.78,557.22a.07.07,0,0,1,0-.1s0,0,0,0,0,0,0,0a.07.07,0,0,1,0,.1l0,0Zm0-.09s0,0,0,0a.06.06,0,0,0,0,0h.05v-.08h-.05Z"/><path class="cls-4" d="M371.8,557.1h.05v.14h0v-.12h0Z"/><path class="cls-5" d="M371.81,574.78h0v.07h0v-.06h0Z"/><path class="cls-2" d="M371.78,574.86a.07.07,0,0,1,0-.1s0,0,0,0,0,0,0,0a.07.07,0,0,1,0,.1l0,0Zm0-.09s0,0,0,0,0,0,0,0h.05v-.08h-.05Z"/><path class="cls-6" d="M371.8,574.74h.05v.14h0v-.12h0Z"/><path class="cls-3" d="M371.81,592.42h0v.07h0v-.06h0Z"/><path class="cls-7" d="M371.8,592.38h.05v.14h0v-.12h0Z"/><path class="cls-8" d="M371.78,592.5a.07.07,0,0,1,0-.1l0,0,0,0a.07.07,0,0,1,0,.1s0,0,0,0S371.79,592.52,371.78,592.5Zm0-.09a.06.06,0,0,0,0,0s0,0,0,0h.05v-.08h-.05Z"/><path class="cls-9" d="M371.81,610.06h0v.07h0v-.06h0Z"/><path class="cls-10" d="M371.78,610.14a.07.07,0,0,1,0-.1l0,0,0,0a.07.07,0,0,1,0,.1s0,0,0,0S371.79,610.16,371.78,610.14Zm0-.09a.06.06,0,0,0,0,0s0,0,0,0h.05v-.08h-.05Z"/><path class="cls-11" d="M371.8,610h.05v.14h0V610h0Z"/><path class="cls-12" d="M371.81,627.7h0v.07h0v-.06h0Z"/><path class="cls-13" d="M371.78,627.78a.07.07,0,0,1,0-.1l0,0,0,0a.07.07,0,0,1,0,.1s0,0,0,0S371.79,627.8,371.78,627.78Zm0-.09a.06.06,0,0,0,0,0s0,0,0,0h.05v-.08h-.05Z"/><path class="cls-14" d="M371.78,627.63h.08v.21h0v-.18h-.05Z"/><path class="cls-15" d="M371.8,645.4v0h0s0,0,0,0a0,0,0,0,1,0,0h0Zm0,0h0v0h0s0,0,0,0v0h0Z"/><path class="cls-16" d="M371.8,645.3h.05v.14h0v-.11h0Z"/><path class="cls-17" d="M371.76,645.45s0,0,0-.08a.11.11,0,0,1,0-.08l.06,0,.06,0a.11.11,0,0,1,0,.08.1.1,0,0,1,0,.08.07.07,0,0,1-.12,0Zm0-.13a.07.07,0,0,0,0,0,.11.11,0,0,0,0,.06l0,0,0,0a.11.11,0,0,0,0-.06.07.07,0,0,0,0,0s0,0,0,0S371.79,645.3,371.78,645.32Z"/><path class="cls-18" d="M371.81,663h0v.07h0V663h0Z"/><path class="cls-10" d="M371.78,663.07a.11.11,0,0,1,0-.06.08.08,0,0,1,0,0l0,0,0,0a.08.08,0,0,1,0,0,.11.11,0,0,1,0,.06l0,0Zm0-.09a0,0,0,0,0,0,0s0,0,0,0a0,0,0,0,0,0,0l0,0V663l0,0Z"/><path class="cls-19" d="M371.8,663h.05v.13h0V663h0Z"/><path class="cls-20" d="M371.8,680.68v0s0,0,0,0h0s0,0,0,0,0,0,0,0,0,0,0,0S371.8,680.69,371.8,680.68Zm0,0v0h0s0,0,0,0h0Z"/><path class="cls-21" d="M371.78,680.71s0,0,0-.05a.11.11,0,0,1,0-.06l0,0,0,0a.11.11,0,0,1,0,.06s0,0,0,.05l0,0Zm0-.09s0,0,0,0a0,0,0,0,0,0,0l0,0,0,0v-.07l0,0Z"/><path class="cls-22" d="M371.8,680.59h.05v.14h0v-.12h0Z"/><path class="cls-23" d="M371.78,698.35a.08.08,0,0,1,0-.05.11.11,0,0,1,0-.06l0,0,0,0a.11.11,0,0,1,0,.06.08.08,0,0,1,0,.05l0,0Zm0-.09s0,0,0,0a0,0,0,0,0,0,0l0,0,0,0v-.07l0,0Z"/><path class="cls-24" d="M371.78,698.35a.08.08,0,0,1,0-.05.11.11,0,0,1,0-.06l0,0,0,0a.11.11,0,0,1,0,.06.08.08,0,0,1,0,.05l0,0Zm0-.09s0,0,0,0a0,0,0,0,0,0,0l0,0,0,0v-.07l0,0Z"/><path class="cls-25" d="M371.78,716a.08.08,0,0,1,0,0,.14.14,0,0,1,0-.06h.08a.14.14,0,0,1,0,.06.08.08,0,0,1,0,0l0,0Zm0-.09s0,0,0,0a0,0,0,0,0,0,0l0,0,0,0v-.07h-.05Z"/><path class="cls-26" d="M371.8,715.87h.05V716h0v-.12h0Z"/><path class="cls-20" d="M371.8,733.51h.05v.14h0v-.12h0Z"/><path class="cls-27" d="M371.8,733.51h.05v.14h0v-.12h0Z"/><rect class="cls-28" width="743.64" height="917.47" rx="23.96"/><text class="cls-29" transform="translate(154.35 637.06)">Built for Collaboration.</text><text class="cls-30" transform="translate(103.86 692.79)">Talk, video chat, record, share screens and <tspan x="14.54" y="30.73">fles all in one place. There is no need to </tspan><tspan x="-8.18" y="61.46">switch between platforms – everything you </tspan><tspan x="-0.46" y="92.18">need for online collaboration is integrated </tspan><tspan x="61.29" y="122.91">into your Video Calls experience.</tspan></text><path class="cls-31" d="M279.8,322.19h0c-.31,3.1-.48,6.24-.48,9.42a93,93,0,1,0,.48-9.42Zm54.74-54.08a27.18,27.18,0,1,1-27.19,27.18A27.21,27.21,0,0,1,334.54,268.11Z"/><path class="cls-31" d="M561.71,433.32a49.48,49.48,0,0,0-65.61.14l-41.83-37A104,104,0,0,0,450.16,262l39.94-39.94a33.93,33.93,0,1,0-5.83-52.63h0a33.9,33.9,0,0,0-2.7,44.72l-39.63,39.63a104,104,0,0,0-63.82-26.47V171.42a49.39,49.39,0,1,0-11.62,0V227.3a104.63,104.63,0,0,0-97.39,88l-55.7-5.68A33.88,33.88,0,0,0,145.83,307a34,34,0,0,0,30.34,37.22,34.38,34.38,0,0,0,3.51.18,33.79,33.79,0,0,0,32.11-23.26L268,326.82c-.08,1.6-.25,3.18-.25,4.79a104,104,0,0,0,22.55,64.67l-41.9,37a49.38,49.38,0,1,0-36,86.09c1.05.07,2.1.1,3.15.1A49.36,49.36,0,0,0,256,442L297.9,405a104.35,104.35,0,0,0,148.7.14l41.8,37a49.38,49.38,0,0,0,40.49,77.55q1.53,0,3.06-.09a49.41,49.41,0,0,0,29.76-86.3ZM492.49,177.64h0a22.33,22.33,0,1,1,0,31.59A22.35,22.35,0,0,1,492.49,177.64Zm-315.14,155a22.33,22.33,0,0,1-11.84-39.53,22.13,22.13,0,0,1,14.06-5c.76,0,1.54,0,2.3.11h0a22.34,22.34,0,0,1-4.53,44.44Zm63.07,165.75A37.78,37.78,0,1,1,243.75,445h0a37.76,37.76,0,0,1-3.34,53.32Zm38.9-166.76c0-3.18.17-6.32.48-9.42h0a93,93,0,1,1-.48,9.42ZM334.54,122.4a37.78,37.78,0,1,1,37.77,37.77A37.82,37.82,0,0,1,334.54,122.4Zm222.7,373A37.79,37.79,0,1,1,566.66,468,37.55,37.55,0,0,1,557.24,495.35Z"/><path class="cls-31" d="M334.54,268.11a27.18,27.18,0,1,0,27.18,27.18A27.22,27.22,0,0,0,334.54,268.11Zm0,42.74a15.56,15.56,0,1,1,15.56-15.56A15.58,15.58,0,0,1,334.54,310.85Z"/><circle class="cls-32" cx="374" cy="331.71" r="105.67"/><path class="cls-33" d="M341.86,218.09a118.08,118.08,0,1,0,145.76,81.48A118.08,118.08,0,0,0,341.86,218.09Zm60.9,215.3A105.67,105.67,0,1,1,475.68,303,105.67,105.67,0,0,1,402.76,433.39Z"/><ellipse class="cls-33" cx="319.21" cy="305.15" rx="29.28" ry="28.27" transform="translate(-42.21 558.9) rotate(-78.78)"/><ellipse class="cls-33" cx="398.26" cy="331.14" rx="29.28" ry="28.27" transform="translate(-4.03 657.37) rotate(-78.78)"/><path class="cls-34" d="M492.49,177.64h0a22.33,22.33,0,1,1,0,31.59A22.35,22.35,0,0,1,492.49,177.64Z"/><path class="cls-32" d="M240.42,498.37A37.78,37.78,0,1,1,243.75,445h0a37.76,37.76,0,0,1-3.34,53.32Z"/><path class="cls-31" d="M334.54,122.4a37.78,37.78,0,1,1,37.77,37.77A37.82,37.82,0,0,1,334.54,122.4Z"/><path class="cls-31" d="M557.24,495.35A37.79,37.79,0,1,1,566.66,468,37.55,37.55,0,0,1,557.24,495.35Z"/></g></g></svg>