<svg xmlns="http://www.w3.org/2000/svg" viewBox="0 0 1771.36 618.64"><defs><style>.cls-1{fill:#e8fff6;}.cls-2{font-size:40px;font-family:Avenir-Heavy, Avenir;font-weight:800;}.cls-2,.cls-3{fill:#1a1a1a;}.cls-3{font-size:25.61px;font-family:Montserrat-Regular, Montserrat;}.cls-4,.cls-5,.cls-6{fill:#ffefec;stroke:#1a1a1a;stroke-miterlimit:10;stroke-width:3px;}.cls-5{opacity:0.2;}.cls-6{opacity:0;}</style></defs><g id="Layer_2" data-name="Layer 2"><g id="Layer_1-2" data-name="Layer 1"><rect class="cls-1" width="1771.36" height="618.64" rx="23.96"/><text class="cls-2" transform="translate(317.06 254.17)">Affordable Storage.</text><text class="cls-3" transform="translate(185.98 327.89)">The unique storage algorithm behind Digital Twin <tspan x="-22.66" y="30.73">makes it possible for you to enjoy 100x more space for </tspan><tspan x="-14.97" y="61.46">the same price. Cost-effective and more sustainable!</tspan></text><path class="cls-4" d="M1336,528.69l-174-64.7c-9.86-3.67-9.86-12.83,0-16.5L1337,382.43a69.64,69.64,0,0,1,46.72,0l177.11,65.87c9.49,3.53,10.86,11.73,1.37,15.26l-174.76,65.13A76.69,76.69,0,0,1,1336,528.69Z"/><path class="cls-4" d="M1336,513.2l-174-64.71c-9.86-3.66-9.86-12.83,0-16.49L1337,366.93a69.76,69.76,0,0,1,46.72,0l177.11,65.88c9.49,3.53,10.86,11.72,1.37,15.26L1387.42,513.2A76.69,76.69,0,0,1,1336,513.2Z"/><path class="cls-4" d="M1154.46,214.45v213.2c0,3.21,2.48,6.42,7.41,8.25l174,64.7a76.54,76.54,0,0,0,51.38,0l173.39-64.49c5-1.87,7.35-5.21,7.07-8.47l1.07-212.36Z"/><path class="cls-4" d="M1336,287l-174-64.7c-9.86-3.67-9.86-12.83,0-16.5L1337,140.72a69.64,69.64,0,0,1,46.72,0l177.11,65.87c9.49,3.53,10.86,11.73,1.37,15.26L1387.42,287A76.69,76.69,0,0,1,1336,287Z"/><path class="cls-4" d="M1182.38,408.45V248.08a3,3,0,0,1,.2-1c-4.18-.94-8.81,1-8.81,4V411.5c0,2.51,2.08,4.83,5.45,6.08l151.47,56.3c3.26,1.21,7.33-.3,7.33-2.72v-.81l-150.19-55.82C1184.46,413.28,1182.38,411,1182.38,408.45Z"/><path class="cls-4" d="M1330.69,302l-146.93-54.62a9.29,9.29,0,0,0-1.18-.31,3,3,0,0,0-.2,1V408.45c0,2.51,2.08,4.83,5.45,6.08L1338,470.35V310.19C1338,306.82,1335.22,303.71,1330.69,302Z"/><polygon class="cls-4" points="1229.73 403.85 1229.51 415.84 1213.18 409.61 1213.4 397.61 1229.73 403.85"/><polygon class="cls-4" points="1230.17 379.61 1229.95 391.61 1213.62 385.37 1213.84 373.38 1230.17 379.61"/><polygon class="cls-4" points="1230.61 355.38 1230.39 367.37 1214.06 361.13 1214.28 349.14 1230.61 355.38"/><polygon class="cls-4" points="1231.05 331.14 1230.84 343.14 1214.5 336.9 1214.72 324.9 1231.05 331.14"/><polygon class="cls-5" points="1231.49 306.9 1231.28 318.9 1214.94 312.66 1215.16 300.67 1231.49 306.9"/><polygon class="cls-5" points="1231.94 282.67 1231.72 294.66 1215.38 288.43 1215.6 276.43 1231.94 282.67"/><polygon class="cls-5" points="1254.79 413.42 1254.58 425.41 1238.24 419.18 1238.46 407.18 1254.79 413.42"/><polygon class="cls-4" points="1255.23 389.18 1255.02 401.18 1238.68 394.94 1238.9 382.95 1255.23 389.18"/><polygon class="cls-4" points="1255.68 364.95 1255.46 376.94 1239.12 370.7 1239.34 358.71 1255.68 364.95"/><polygon class="cls-4" points="1256.12 340.71 1255.9 352.7 1239.56 346.47 1239.78 334.47 1256.12 340.71"/><polygon class="cls-5" points="1256.56 316.47 1256.34 328.47 1240 322.23 1240.22 310.24 1256.56 316.47"/><polygon class="cls-6" points="1257 292.24 1256.78 304.23 1240.44 298 1240.66 286 1257 292.24"/><polygon class="cls-4" points="1280.3 423.16 1280.09 435.15 1263.75 428.92 1263.97 416.92 1280.3 423.16"/><polygon class="cls-4" points="1280.74 398.92 1280.53 410.92 1264.19 404.68 1264.41 392.69 1280.74 398.92"/><polygon class="cls-5" points="1281.18 374.69 1280.97 386.68 1264.63 380.44 1264.85 368.45 1281.18 374.69"/><polygon class="cls-4" points="1281.63 350.45 1281.41 362.45 1265.07 356.21 1265.29 344.21 1281.63 350.45"/><polygon class="cls-4" points="1282.07 326.21 1281.85 338.21 1265.51 331.97 1265.73 319.98 1282.07 326.21"/><polygon class="cls-6" points="1282.51 301.98 1282.29 313.97 1265.95 307.74 1266.17 295.74 1282.51 301.98"/><polygon class="cls-4" points="1304.02 432.22 1303.81 444.21 1287.47 437.97 1287.69 425.98 1304.02 432.22"/><polygon class="cls-4" points="1304.46 407.98 1304.25 419.98 1287.91 413.74 1288.13 401.74 1304.46 407.98"/><polygon class="cls-4" points="1304.9 383.74 1304.69 395.74 1288.35 389.5 1288.57 377.51 1304.9 383.74"/><polygon class="cls-4" points="1305.35 359.51 1305.13 371.5 1288.79 365.26 1289.01 353.27 1305.35 359.51"/><polygon class="cls-4" points="1305.79 335.27 1305.57 347.27 1289.23 341.03 1289.45 329.03 1305.79 335.27"/><polygon class="cls-4" points="1306.23 311.04 1306.01 323.03 1289.67 316.79 1289.89 304.8 1306.23 311.04"/><path d="M1527.74,331.38l.21-8.71-15,5.23.45-21.42-8.81,3-.4,21.47-11,3.83.61-39L1472.71,303l-.44,41.49q-7.68-8.2-22.28-3.15a43.12,43.12,0,0,0-16.52,10.76,55.73,55.73,0,0,0-12.1,19.06,66.16,66.16,0,0,0-4.43,24.75c0,8.68,1.64,15.6,4.81,20.77s7.31,8.43,12.43,9.87,10.55,1.07,16.37-1.09q16.11-6,23.32-22.5l-.13,12.07,18.34-6.8,1-64.62,11-3.86-.86,46.62q-.18,9.66,4.1,13.05t12.07.49a36.07,36.07,0,0,0,6.79-3.36l.21-8.43a29.39,29.39,0,0,1-5.42,2.55c-2.85,1.06-5.1.95-6.74-.31s-2.43-4-2.35-8.14l.94-45.55ZM1467.28,395q-4.54,8-11.84,10.71c-5,1.82-9,1.14-12.13-2s-4.67-8.4-4.65-15.59a38.66,38.66,0,0,1,4.7-19.25q4.68-8.28,12.39-11,7.39-2.6,11.86,2.41t4.33,15.89A38.56,38.56,0,0,1,1467.28,395Z"/></g></g></svg>