<svg xmlns="http://www.w3.org/2000/svg" xmlns:xlink="http://www.w3.org/1999/xlink" viewBox="0 0 1771.36 1166.31"><defs><style>.cls-1{fill:none;}.cls-2{fill:#dffbff;}.cls-3{font-size:40px;font-family:Avenir-Heavy, Avenir;font-weight:800;}.cls-10,.cls-3,.cls-4{fill:#1a1a1a;}.cls-4{font-size:25.61px;font-family:Montserrat-Regular, Montserrat;}.cls-5{clip-path:url(#clip-path);}.cls-6{clip-path:url(#clip-path-2);}.cls-7{fill:#333;}.cls-8{fill:#edff9f;}.cls-9{fill:#3fffbe;}.cls-11{fill:#e8fff6;}.cls-12{fill:#8cffd8;}</style><clipPath id="clip-path"><rect class="cls-1" x="996.17" y="31.64" width="672.67" height="587" rx="23.96"/></clipPath><clipPath id="clip-path-2"><rect class="cls-1" x="1028.02" y="46.91" width="580.45" height="732.08"/></clipPath></defs><g id="Layer_2" data-name="Layer 2"><g id="Layer_1-2" data-name="Layer 1"><rect class="cls-2" width="1771.36" height="618.64" rx="23.96"/><text class="cls-3" transform="translate(386.33 254.17)">Easy Access.</text><text class="cls-4" transform="translate(179.61 327.89)">All fles are stored on your private cloud and can be <tspan x="13.32" y="30.73">accessed via your Digital Twin at all times. All you </tspan><tspan x="-13.01" y="61.46">need is your login information and you&apos;re good to go!</tspan></text><g class="cls-5"><g class="cls-6"><path class="cls-7" d="M1490.52,103.43H1148.88a66.21,66.21,0,0,0-66.21,66.21V265.9h-.28a4.27,4.27,0,0,0-4.27,4.27V430.79a4.27,4.27,0,0,0,4.27,4.27h.28v19.47h-.28a4.27,4.27,0,0,0-4.27,4.27v60.83a4.27,4.27,0,0,0,4.27,4.27h.28V997.46a66.21,66.21,0,0,0,66.21,66.21h341.64a66.21,66.21,0,0,0,66.21-66.21V169.64A66.21,66.21,0,0,0,1490.52,103.43Z"/><path class="cls-8" d="M1494.33,125.16H1433a14.06,14.06,0,0,0-14.08,14.09,14.24,14.24,0,0,1-14.08,14.3h-170.3a14.25,14.25,0,0,1-14.08-14.3,14.06,14.06,0,0,0-14.08-14.09h-61.31a37.26,37.26,0,0,0-8.45.87,49.88,49.88,0,0,0-41.82,49.18V991.89a50.13,50.13,0,0,0,50.27,50.05h349.25a50.12,50.12,0,0,0,50.26-50.05V175.21A50.12,50.12,0,0,0,1494.33,125.16Z"/></g><path class="cls-7" d="M1520.48,104.2H1142.59a73.24,73.24,0,0,0-73.24,73.24V283.91H1069a4.71,4.71,0,0,0-4.71,4.72V466.29A4.71,4.71,0,0,0,1069,471h.31v21.54H1069a4.72,4.72,0,0,0-4.71,4.72v67.29a4.71,4.71,0,0,0,4.71,4.72h.31v523.8a73.24,73.24,0,0,0,73.24,73.24h377.89a73.24,73.24,0,0,0,73.23-73.24V177.44A73.24,73.24,0,0,0,1520.48,104.2Z"/><path class="cls-9" d="M1524.68,128.24h-67.81a15.55,15.55,0,0,0-15.58,15.58,15.75,15.75,0,0,1-15.57,15.81H1237.36a15.75,15.75,0,0,1-15.58-15.81,15.55,15.55,0,0,0-15.58-15.58h-67.81a41.25,41.25,0,0,0-9.35,1,55.16,55.16,0,0,0-46.25,54.4v903.32a55.43,55.43,0,0,0,55.6,55.35h386.29a55.43,55.43,0,0,0,55.6-55.35V183.6A55.43,55.43,0,0,0,1524.68,128.24Z"/></g><path class="cls-10" d="M1158.35,240v38.59h-7.13v-4.24q-2.73,4.89-8.89,4.88a11.86,11.86,0,0,1-6.22-1.74,12.7,12.7,0,0,1-4.66-5,16,16,0,0,1-1.77-7.72,17.19,17.19,0,0,1,1.66-7.85,11.59,11.59,0,0,1,10.61-6.68,10.16,10.16,0,0,1,8.42,3.7V240Zm-9.7,30.74a11.29,11.29,0,0,0,0-12,5.38,5.38,0,0,0-4.5-2.25,5.57,5.57,0,0,0-4.64,2.25,9.55,9.55,0,0,0-1.74,6,9.35,9.35,0,0,0,1.77,5.95,5.58,5.58,0,0,0,4.61,2.25A5.41,5.41,0,0,0,1148.65,270.78Z"/><path class="cls-10" d="M1163.39,245.91a4.46,4.46,0,0,1-1.28-3.25,4.28,4.28,0,0,1,1.28-3.16,4.5,4.5,0,0,1,3.32-1.29,4.4,4.4,0,0,1,3.27,1.29,4.29,4.29,0,0,1,1.29,3.16,4.46,4.46,0,0,1-1.29,3.25,4.38,4.38,0,0,1-3.27,1.31A4.48,4.48,0,0,1,1163.39,245.91Zm-.7,5h8v27.71h-8Z"/><path class="cls-10" d="M1203.59,250.92v26.26a11.72,11.72,0,0,1-3.46,8.79q-3.45,3.38-10.58,3.38-7.29,0-10.43-2.57a10.5,10.5,0,0,1-3.67-7.24h8.36a4.25,4.25,0,0,0,1.48,3.11,6.66,6.66,0,0,0,4.2,1.07,6.13,6.13,0,0,0,4.56-1.58,6.43,6.43,0,0,0,1.56-4.69v-4a8.18,8.18,0,0,1-3.41,3,11.66,11.66,0,0,1-4.85.91,12.15,12.15,0,0,1-6.27-1.66,11.83,11.83,0,0,1-4.5-4.74,16.16,16.16,0,0,1,0-14.31,11.53,11.53,0,0,1,4.53-4.72,12.57,12.57,0,0,1,6.35-1.64,11.16,11.16,0,0,1,5.17,1.18,9.5,9.5,0,0,1,3.72,3.49v-4Zm-9.78,18.14a7.8,7.8,0,0,0,1.8-5.33,7.54,7.54,0,0,0-1.8-5.23,6.08,6.08,0,0,0-9,0,8.77,8.77,0,0,0,0,10.59,5.78,5.78,0,0,0,4.53,2A5.68,5.68,0,0,0,1193.81,269.06Z"/><path class="cls-10" d="M1208.63,245.91a4.46,4.46,0,0,1-1.29-3.25,4.29,4.29,0,0,1,1.29-3.16,4.48,4.48,0,0,1,3.32-1.29,4.42,4.42,0,0,1,3.27,1.29,4.29,4.29,0,0,1,1.29,3.16,4.46,4.46,0,0,1-1.29,3.25,4.39,4.39,0,0,1-3.27,1.31A4.46,4.46,0,0,1,1208.63,245.91Zm-.7,5h8v27.71h-8Z"/><path class="cls-10" d="M1231.84,257.4v11.15a4,4,0,0,0,.88,2.82,3.57,3.57,0,0,0,2.71.93,12.09,12.09,0,0,0,2.2-.16v6.38a12.65,12.65,0,0,1-1.91.35c-.55.05-1.33.08-2.33.08q-9.54,0-9.54-10.13V257.4h-4.23v-6.48h4.23v-7.83h8v7.83h5.79v6.48Z"/><path class="cls-10" d="M1262.68,252.85q3.25,2.57,3.25,7.82v18h-7.08v-3.49a10.27,10.27,0,0,1-8.73,4.13,12.29,12.29,0,0,1-5.28-1.07,8.45,8.45,0,0,1-3.54-3A7.56,7.56,0,0,1,1240,271a7.76,7.76,0,0,1,2.38-5.87q2.38-2.26,7.59-2.76l8-.8v-1.39a4.07,4.07,0,0,0-1.21-3.19,4.8,4.8,0,0,0-3.35-1.1,5.58,5.58,0,0,0-3.35.88,4.48,4.48,0,0,0-1.63,2.71h-8a9.48,9.48,0,0,1,3.89-6.81q3.28-2.35,9-2.36Q1259.44,250.27,1262.68,252.85Zm-6.19,19.61a6.87,6.87,0,0,0,1.45-4.6V266l-6,.81a5.13,5.13,0,0,0-3,1.26,3.32,3.32,0,0,0-1,2.49,3.23,3.23,0,0,0,1.18,2.57,4.59,4.59,0,0,0,3.11,1A5.19,5.19,0,0,0,1256.49,272.46Z"/><path class="cls-10" d="M1278.58,278.63h-8V240h8Z"/><path class="cls-10" d="M1293.6,255.59v15.82a4.38,4.38,0,0,0,1,3.19,3.65,3.65,0,0,0,2.7,1,9.72,9.72,0,0,0,2.14-.2v3a12.06,12.06,0,0,1-2.69.29,6.39,6.39,0,0,1-4.81-1.77,7.1,7.1,0,0,1-1.73-5.16V255.59h-4.44v-3h4.44v-7.28h3.4v7.28h5.83v3Z"/><path class="cls-10" d="M1340.4,252.6l-9.28,25.8h-3.9l-6.48-20.46-6.54,20.46h-3.89L1301,252.6h3.54l7.64,21.9,7-21.9h3l6.94,21.8,7.63-21.8Z"/><path class="cls-10" d="M1343.54,247.06a2.43,2.43,0,0,1-.75-1.79,2.56,2.56,0,0,1,2.59-2.6,2.56,2.56,0,0,1,1.83.75,2.5,2.5,0,0,1,.77,1.85,2.41,2.41,0,0,1-.77,1.79,2.56,2.56,0,0,1-1.83.75A2.5,2.5,0,0,1,1343.54,247.06Zm.15,5.54h3.39v25.8h-3.39Z"/><path class="cls-10" d="M1372.92,254.8q2.55,2.79,2.55,7.88V278.4h-3.39V263.28a9.41,9.41,0,0,0-1.75-6.11,6,6,0,0,0-4.94-2.12,6.63,6.63,0,0,0-5.24,2.22,9.17,9.17,0,0,0-1.94,6.26V278.4h-3.45V252.6h3.3v3.94q2.39-4.53,8-4.54A8.82,8.82,0,0,1,1372.92,254.8Z"/><circle class="cls-11" cx="1589.19" cy="318.04" r="112.21"/><path d="M1503.78,226.26A125.37,125.37,0,1,0,1681,232.63,125.36,125.36,0,0,0,1503.78,226.26Zm161.85,173.92a112.21,112.21,0,1,1,5.7-158.58A112.2,112.2,0,0,1,1665.63,400.18Z"/><ellipse cx="1542.67" cy="313.35" rx="30.02" ry="31.08" transform="translate(-27.65 203.31) rotate(-7.47)"/><ellipse cx="1631.03" cy="312.59" rx="30.02" ry="31.08" transform="translate(-26.8 214.8) rotate(-7.47)"/><rect class="cls-12" x="1130.47" y="350.17" width="287" height="45" rx="5.87"/><rect class="cls-12" x="1130.47" y="410.17" width="287" height="45" rx="5.87"/></g></g></svg>