<svg xmlns="http://www.w3.org/2000/svg" xmlns:xlink="http://www.w3.org/1999/xlink" viewBox="0 0 1504.97 1151.64"><defs><style>.cls-1{fill:none;}.cls-2{fill:#e9ffe3;}.cls-3{font-size:40px;font-family:Avenir-Heavy, Avenir;font-weight:800;}.cls-3,.cls-4{fill:#1a1a1a;}.cls-4{font-size:25.61px;font-family:Montserrat-Regular, Montserrat;}.cls-5{clip-path:url(#clip-path);}.cls-6{fill:#ccffe6;}.cls-7{fill:#ffddd6;fill-rule:evenodd;}</style><clipPath id="clip-path" transform="translate(260.48)"><rect class="cls-1" y="423.51" width="984" height="291.52" rx="19.79"/></clipPath></defs><g id="Layer_2" data-name="Layer 2"><g id="Layer_1-2" data-name="Layer 1"><rect class="cls-2" x="260.8" width="983.27" height="712.9" rx="23.96"/><text class="cls-3" transform="translate(630.92 149.23)">Be Together.</text><text class="cls-4" transform="translate(430.98 222.95)">Have face-to-face conversations with an unlimited <tspan x="-3.42" y="30.73">number of participants. From family meetings and </tspan><tspan x="30.87" y="61.46">group hangouts to yoga classes and business </tspan><tspan x="4.29" y="92.18">meetings – everything can happen on Video Calls </tspan><tspan x="167.97" y="122.91">without calling charges. </tspan></text><g class="cls-5"><ellipse class="cls-6" cx="752.48" cy="884.71" rx="752.48" ry="266.93"/><path class="cls-7" d="M-93.14,565.19q11.91-3.47,23.85-6.78l-6.06-21.85q-12.08,3.35-24.12,6.85Z" transform="translate(260.48)"/><path class="cls-7" d="M-97.66,572.92q18.1-5.32,36.28-10.31,32.55,6.82,64.43,14.68Q1.58,582.14.13,587q-29-7.11-58.5-13.37,6.51,23.71,13,47.44l18.57,67.68q-6.51,1.78-13,3.62l-19-67.55c-2.77.78-5.53,1.56-8.3,2.36q9.68,33.74,19.33,67.47c-4.34,1.24-8.66,2.49-13,3.76Q-70.7,664.71-80.59,631q-6.93-23.6-13.87-47.2-21.86,20.85-42.88,42.18-3.79-3.35-7.6-6.68Q-121.81,595.85-97.66,572.92Z" transform="translate(260.48)"/><path class="cls-7" d="M48.17,529.41q12.07-2.61,24.17-5.08l-4.53-22.22q-12.23,2.49-24.43,5.14Q45.78,518.34,48.17,529.41Z" transform="translate(260.48)"/><path class="cls-7" d="M43.16,536.8q18.35-4,36.75-7.73,31.88,9.09,63,19.16-1.8,4.71-3.57,9.44-28.3-9.12-57.23-17.44l9.69,48.23,13.83,68.81q-6.58,1.32-13.18,2.7-7.15-34.37-14.3-68.71L69.79,593q7.29,34.34,14.59,68.65c-4.39.94-8.78,1.88-13.16,2.85L56.16,596,45.6,547.92Q22.46,567.18.13,587q-3.54-3.6-7.09-7.19Q17.61,558,43.16,536.8Z" transform="translate(260.48)"/><path class="cls-7" d="M191.11,503.62q12.18-1.77,24.39-3.39-1.5-11.25-3-22.48-12.34,1.63-24.66,3.42Q189.49,492.39,191.11,503.62Z" transform="translate(260.48)"/><path class="cls-7" d="M185.61,510.64q18.52-2.75,37.09-5.15,31.1,11.28,61.42,23.48-2.12,4.57-4.2,9.17-27.56-11.05-55.76-21.37,3.18,24.4,6.34,48.79l9,69.6q-6.65.86-13.29,1.77-4.77-34.77-9.52-69.54l-8.48,1.18,9.81,69.5q-6.65.93-13.29,1.92-5.13-34.71-10.28-69.43l-7.2-48.66q-24.34,17.6-47.9,35.77L132.83,550Q158.75,530,185.61,510.64Z" transform="translate(260.48)"/><path class="cls-7" d="M335.13,487.8q12.25-.92,24.52-1.69-.72-11.33-1.43-22.64-12.39.78-24.79,1.71Q334.29,476.49,335.13,487.8Z" transform="translate(260.48)"/><path class="cls-7" d="M329.17,494.42q18.63-1.46,37.29-2.57,30.19,13.39,59.58,27.67-2.42,4.43-4.82,8.85-26.7-12.93-54.07-25.16,1.47,24.56,3,49.11,2.1,35,4.21,70-6.69.4-13.37.85-2.34-35-4.69-70c-2.84.19-5.68.38-8.53.59q2.5,35,5,70-6.68.48-13.36,1l-5.46-70q-1.92-24.52-3.83-49.05-25.46,15.88-50.14,32.37-3-4.07-6-8.11Q301.08,511.86,329.17,494.42Z" transform="translate(260.48)"/><path class="cls-7" d="M479.72,482q12.28-.06,24.56,0,.08-11.34.14-22.68-12.42-.07-24.84,0Q479.66,470.62,479.72,482Z" transform="translate(260.48)"/><path class="cls-7" d="M473.32,488.16q18.68-.17,37.36,0,29.19,15.45,57.52,31.71-2.73,4.25-5.42,8.5-25.74-14.73-52.2-28.83-.22,24.6-.44,49.2l-.63,70.18q-6.69-.06-13.39-.08l.15-70.18h-8.54l.15,70.18q-6.7,0-13.39.08l-.63-70.18q-.23-24.6-.44-49.2-26.46,14.08-52.2,28.83-2.7-4.25-5.42-8.5Q444.14,503.63,473.32,488.16Z" transform="translate(260.48)"/><path class="cls-7" d="M624.35,486.11q12.27.76,24.52,1.69.86-11.31,1.7-22.62-12.39-.93-24.79-1.71Q625.06,474.79,624.35,486.11Z" transform="translate(260.48)"/><path class="cls-7" d="M617.54,491.85q18.65,1.13,37.29,2.57,28.08,17.43,55.25,35.61-3,4.05-6,8.11-24.69-16.49-50.14-32.37-1.91,24.53-3.83,49.05l-5.46,70q-6.67-.52-13.36-1,2.49-35,5-70c-2.85-.21-5.69-.4-8.53-.59q-2.36,35-4.69,70-6.69-.45-13.37-.85,2.1-35,4.21-70,1.49-24.55,3-49.11-27.37,12.23-54.07,25.16-2.4-4.43-4.82-8.85Q587.33,505.26,617.54,491.85Z" transform="translate(260.48)"/><path class="cls-7" d="M768.5,500.23q12.21,1.62,24.39,3.39,1.64-11.22,3.26-22.45-12.33-1.79-24.66-3.42Q770,489,768.5,500.23Z" transform="translate(260.48)"/><path class="cls-7" d="M761.3,505.49q18.57,2.4,37.09,5.15Q825.25,530,851.17,550l-6.55,7.68q-23.57-18.17-47.9-35.77l-7.2,48.66q-5.14,34.71-10.28,69.43-6.65-1-13.29-1.92l9.81-69.5-8.48-1.18q-4.75,34.77-9.52,69.54-6.64-.91-13.3-1.77,4.53-34.8,9-69.6,3.16-24.39,6.34-48.79-28.2,10.31-55.76,21.37-2.08-4.59-4.2-9.17Q730.2,516.78,761.3,505.49Z" transform="translate(260.48)"/><path class="cls-7" d="M911.66,524.33q12.09,2.48,24.16,5.08l4.8-22.16q-12.2-2.64-24.43-5.14Z" transform="translate(260.48)"/><path class="cls-7" d="M904.09,529.07q18.4,3.7,36.75,7.73Q966.4,558,991,579.76l-7.09,7.2q-22.32-19.77-45.47-39L927.84,596l-15.06,68.55c-4.38-1-8.77-1.91-13.16-2.85q7.3-34.32,14.59-68.65l-8.4-1.76q-7.15,34.35-14.3,68.71-6.59-1.38-13.18-2.7l13.83-68.81,9.69-48.23q-28.92,8.31-57.23,17.44l-3.57-9.44Q872.21,538.17,904.09,529.07Z" transform="translate(260.48)"/><path class="cls-7" d="M1053.29,558.41q11.94,3.32,23.85,6.78l6.33-21.78q-12-3.49-24.12-6.85Z" transform="translate(260.48)"/><path class="cls-7" d="M1045.38,562.61q18.18,5,36.28,10.31,24.15,22.92,47.28,46.42-3.81,3.33-7.6,6.68-21-21.32-42.88-42.18-6.95,23.6-13.87,47.2-9.9,33.66-19.79,67.33c-4.33-1.27-8.65-2.52-13-3.76q9.66-33.74,19.33-67.47c-2.77-.8-5.53-1.58-8.3-2.36l-19,67.55q-6.49-1.83-13-3.62L1029.36,621q6.5-23.71,13-47.44-29.52,6.25-58.5,13.37-1.44-4.83-2.92-9.67Q1012.83,569.44,1045.38,562.61Z" transform="translate(260.48)"/></g></g></g></svg>