<svg xmlns="http://www.w3.org/2000/svg" viewBox="0 0 743.64 917.47"><defs><style>.cls-1,.cls-10,.cls-11,.cls-12,.cls-13,.cls-14,.cls-15,.cls-16,.cls-17,.cls-18,.cls-19,.cls-2,.cls-20,.cls-21,.cls-22,.cls-23,.cls-24,.cls-25,.cls-26,.cls-27,.cls-28,.cls-3,.cls-30,.cls-31,.cls-4,.cls-5,.cls-6,.cls-7,.cls-8,.cls-9{fill:#1a1a1a;}.cls-1{opacity:0.7;}.cls-2{opacity:0.84;}.cls-3{opacity:0.75;}.cls-4{opacity:0.49;}.cls-5{opacity:0.22;}.cls-6{opacity:0.62;}.cls-7{opacity:0.86;}.cls-8{opacity:0.35;}.cls-9{opacity:0.48;}.cls-10{opacity:0.98;}.cls-11{opacity:0.21;}.cls-12{opacity:0.83;}.cls-13{opacity:0.54;}.cls-14{opacity:0.28;}.cls-15{opacity:0.3;}.cls-16{opacity:0.56;}.cls-17{opacity:0.72;}.cls-18{opacity:0.5;}.cls-19{opacity:0.73;}.cls-20{opacity:0.89;}.cls-21{opacity:0.91;}.cls-22{opacity:0.69;}.cls-23{opacity:0.39;}.cls-24{opacity:0.59;}.cls-25{opacity:0.76;}.cls-26{opacity:0.37;}.cls-27{opacity:0.44;}.cls-28{opacity:0.57;}.cls-29{fill:#fcf4ff;}.cls-30{font-size:40px;font-family:Avenir-Heavy, Avenir;font-weight:800;}.cls-31{font-size:25.61px;font-family:Montserrat-Regular, Montserrat;}.cls-32{fill:#9ef0d0;}.cls-33{fill:#e8fff6;}.cls-34{fill:#333;}.cls-35{fill:#ffefec;}.cls-36{fill:#dffbff;}</style></defs><g id="Layer_2" data-name="Layer 2"><g id="Layer_1-2" data-name="Layer 1"><path class="cls-1" d="M371.78,659.58a.07.07,0,0,1,0-.1s0,0,0,0,0,0,0,0a.07.07,0,0,1,0,.1l0,0Zm0-.09s0,0,0,0a.06.06,0,0,0,0,0h.05v-.08h-.05Z"/><path class="cls-2" d="M371.78,659.58a.07.07,0,0,1,0-.1s0,0,0,0,0,0,0,0a.07.07,0,0,1,0,.1l0,0Zm0-.09s0,0,0,0a.06.06,0,0,0,0,0h.05v-.08h-.05Z"/><path class="cls-3" d="M371.78,557.22a.07.07,0,0,1,0-.1s0,0,0,0,0,0,0,0a.07.07,0,0,1,0,.1l0,0Zm0-.09s0,0,0,0a.06.06,0,0,0,0,0h.05v-.08h-.05Z"/><path class="cls-4" d="M371.8,557.1h.05v.14h0v-.12h0Z"/><path class="cls-5" d="M371.81,574.78h0v.07h0v-.06h0Z"/><path class="cls-2" d="M371.78,574.86a.07.07,0,0,1,0-.1s0,0,0,0,0,0,0,0a.07.07,0,0,1,0,.1l0,0Zm0-.09s0,0,0,0,0,0,0,0h.05v-.08h-.05Z"/><path class="cls-6" d="M371.8,574.74h.05v.14h0v-.12h0Z"/><path class="cls-3" d="M371.81,592.42h0v.07h0v-.06h0Z"/><path class="cls-7" d="M371.8,592.38h.05v.14h0v-.12h0Z"/><path class="cls-8" d="M371.78,592.5a.07.07,0,0,1,0-.1l0,0,0,0a.07.07,0,0,1,0,.1s0,0,0,0S371.79,592.52,371.78,592.5Zm0-.09a.06.06,0,0,0,0,0s0,0,0,0h.05v-.08h-.05Z"/><path class="cls-9" d="M371.81,610.06h0v.07h0v-.06h0Z"/><path class="cls-10" d="M371.78,610.14a.07.07,0,0,1,0-.1l0,0,0,0a.07.07,0,0,1,0,.1s0,0,0,0S371.79,610.16,371.78,610.14Zm0-.09a.06.06,0,0,0,0,0s0,0,0,0h.05v-.08h-.05Z"/><path class="cls-11" d="M371.8,610h.05v.14h0V610h0Z"/><path class="cls-12" d="M371.81,627.7h0v.07h0v-.06h0Z"/><path class="cls-13" d="M371.78,627.78a.07.07,0,0,1,0-.1l0,0,0,0a.07.07,0,0,1,0,.1s0,0,0,0S371.79,627.8,371.78,627.78Zm0-.09a.06.06,0,0,0,0,0s0,0,0,0h.05v-.08h-.05Z"/><path class="cls-14" d="M371.78,627.63h.08v.21h0v-.18h-.05Z"/><path class="cls-15" d="M371.8,645.4v0h0s0,0,0,0a0,0,0,0,1,0,0h0Zm0,0h0v0h0s0,0,0,0v0h0Z"/><path class="cls-16" d="M371.8,645.3h.05v.14h0v-.11h0Z"/><path class="cls-17" d="M371.76,645.45s0,0,0-.08a.11.11,0,0,1,0-.08l.06,0,.06,0a.11.11,0,0,1,0,.08.1.1,0,0,1,0,.08.07.07,0,0,1-.12,0Zm0-.13a.07.07,0,0,0,0,0,.11.11,0,0,0,0,.06l0,0,0,0a.11.11,0,0,0,0-.06.07.07,0,0,0,0,0s0,0,0,0S371.79,645.3,371.78,645.32Z"/><path class="cls-18" d="M371.81,663h0v.07h0V663h0Z"/><path class="cls-10" d="M371.78,663.07a.11.11,0,0,1,0-.06.08.08,0,0,1,0,0l0,0,0,0a.08.08,0,0,1,0,0,.11.11,0,0,1,0,.06l0,0Zm0-.09a0,0,0,0,0,0,0s0,0,0,0a0,0,0,0,0,0,0l0,0V663l0,0Z"/><path class="cls-19" d="M371.8,663h.05v.13h0V663h0Z"/><path class="cls-20" d="M371.8,680.68v0s0,0,0,0h0s0,0,0,0,0,0,0,0,0,0,0,0S371.8,680.69,371.8,680.68Zm0,0v0h0s0,0,0,0h0Z"/><path class="cls-21" d="M371.78,680.71s0,0,0-.05a.11.11,0,0,1,0-.06l0,0,0,0a.11.11,0,0,1,0,.06s0,0,0,.05l0,0Zm0-.09s0,0,0,0a0,0,0,0,0,0,0l0,0,0,0v-.07l0,0Z"/><path class="cls-22" d="M371.8,680.59h.05v.14h0v-.12h0Z"/><path class="cls-23" d="M371.78,698.35a.08.08,0,0,1,0-.05.11.11,0,0,1,0-.06l0,0,0,0a.11.11,0,0,1,0,.06.08.08,0,0,1,0,.05l0,0Zm0-.09s0,0,0,0a0,0,0,0,0,0,0l0,0,0,0v-.07l0,0Z"/><path class="cls-24" d="M371.78,698.35a.08.08,0,0,1,0-.05.11.11,0,0,1,0-.06l0,0,0,0a.11.11,0,0,1,0,.06.08.08,0,0,1,0,.05l0,0Zm0-.09s0,0,0,0a0,0,0,0,0,0,0l0,0,0,0v-.07l0,0Z"/><path class="cls-25" d="M371.78,716a.08.08,0,0,1,0,0,.14.14,0,0,1,0-.06h.08a.14.14,0,0,1,0,.06.08.08,0,0,1,0,0l0,0Zm0-.09s0,0,0,0a0,0,0,0,0,0,0l0,0,0,0v-.07h-.05Z"/><path class="cls-26" d="M371.8,715.87h.05V716h0v-.12h0Z"/><path class="cls-20" d="M371.8,733.51h.05v.14h0v-.12h0Z"/><path class="cls-27" d="M371.8,733.51h.05v.14h0v-.12h0Z"/><path class="cls-18" d="M371.8,751.25v-.06h0a0,0,0,0,1,0,.06h0Zm0,0v0h0v0h0Z"/><path class="cls-28" d="M371.8,751.15h.05v.14h0v-.12h0Z"/><rect class="cls-29" width="743.64" height="917.47" rx="23.96"/><text class="cls-30" transform="translate(163.6 637.06)">Sharing Made Simple.</text><text class="cls-31" transform="translate(87.99 692.79)">Protection layers like password, comment or <tspan x="50.92" y="30.73">edit view, expiring links, and viewing </tspan><tspan x="3.3" y="61.46">invitations make it easy for you to share and </tspan><tspan x="99.29" y="92.18">protect your fles at all times.</tspan></text><path class="cls-32" d="M391.92,226.06a75.35,75.35,0,1,0-41.26-33.81L315.3,233.79l-56,65.81A75,75,0,1,0,301.5,417.32l67,25.84,50.9,19.65a73.8,73.8,0,0,0,2.2,20.11,75.24,75.24,0,1,0,17.88-69.5l-72.87-28.13-50.4-19.46a72,72,0,0,0-12.8-35.72l37.89-44.53Zm11.67-112.3A42.26,42.26,0,1,1,373,165.11,42.25,42.25,0,0,1,403.59,113.76ZM251.62,416a42.26,42.26,0,1,1,30.54-51.36A42.27,42.27,0,0,1,251.62,416Zm230.85,8.47a42.26,42.26,0,1,1-30.57,51.36A42.27,42.27,0,0,1,482.47,424.46Z"/><circle class="cls-33" cx="240.82" cy="374.61" r="52.79"/><path class="cls-34" d="M190.24,344.25A59,59,0,1,0,271.18,324,59,59,0,0,0,190.24,344.25Zm95.84,57.53A52.79,52.79,0,1,1,268,329.35,52.78,52.78,0,0,1,286.08,401.78Z"/><ellipse class="cls-34" cx="219.18" cy="378.55" rx="14.12" ry="14.63" transform="matrix(0.92, -0.4, 0.4, 0.92, -133.03, 119.15)"/><ellipse class="cls-34" cx="259.02" cy="366.69" rx="14.12" ry="14.63" transform="translate(-124.97 134.08) rotate(-23.56)"/><circle class="cls-35" cx="494.32" cy="466.15" r="52.79"/><path class="cls-34" d="M471,412a59,59,0,1,0,77.48,30.91A59,59,0,0,0,471,412Zm44.12,102.7a52.79,52.79,0,1,1,27.67-69.34A52.79,52.79,0,0,1,515.16,514.65Z"/><ellipse class="cls-34" cx="464.46" cy="451.69" rx="14.63" ry="14.12" transform="translate(-75.29 810.05) rotate(-77.78)"/><ellipse class="cls-34" cx="503.72" cy="465.37" rx="14.63" ry="14.12" transform="translate(-57.7 859.2) rotate(-77.78)"/><circle class="cls-36" cx="416.32" cy="156.15" r="52.79"/><path class="cls-34" d="M361.94,133.3a59,59,0,1,0,77.23-31.54A59,59,0,0,0,361.94,133.3ZM465,176.6a52.8,52.8,0,1,1-28.23-69.12A52.8,52.8,0,0,1,465,176.6Z"/><ellipse class="cls-34" cx="384.8" cy="166.47" rx="14.12" ry="14.63" transform="translate(-30.02 227.34) rotate(-31.74)"/><ellipse class="cls-34" cx="422.55" cy="149.06" rx="14.12" ry="14.63" transform="matrix(0.85, -0.53, 0.53, 0.85, -15.22, 244.59)"/></g></g></svg>