<svg xmlns="http://www.w3.org/2000/svg" viewBox="0 0 783.21 903.23"><defs><style>.cls-1{fill:#fcffe3;}.cls-2{font-size:40px;font-family:Avenir-Heavy, Avenir;font-weight:800;}.cls-2,.cls-3{fill:#1a1a1a;}.cls-3{font-size:25.61px;font-family:Montserrat-Regular, Montserrat;}.cls-4{fill:#fcf4ff;stroke:#1a1a1a;stroke-miterlimit:10;stroke-width:4px;}</style></defs><g id="Layer_2" data-name="Layer 2"><g id="Layer_1-2" data-name="Layer 1"><rect class="cls-1" x="19.78" width="743.64" height="903.23" rx="23.96"/><text class="cls-2" transform="translate(223.45 132.3)">Your Data is Safe.</text><text class="cls-3" transform="translate(132.65 189.23)">Keep your data safe and private with the <tspan x="-15.95" y="30.73">most secure and reliable workspace on the </tspan><tspan x="-22.88" y="61.46">market. Go hassle-free and ensure your fles </tspan><tspan x="16.71" y="92.18">remain accessible even in the unlikely </tspan><tspan x="-2.8" y="122.91">situation that your smartphone, tablet or </tspan><tspan x="118.47" y="153.64">computer goes down.</tspan></text><path class="cls-4" d="M252.68,445.89c.68,1,1.33,2.05,1.92,3.1s1.16,2.13,1.66,3.23,1,2.22,1.37,3.36.77,2.3,1.07,3.48a38.36,38.36,0,0,1,.9,4.84,36.47,36.47,0,0,1,.27,4.76,33.88,33.88,0,0,1-.37,4.63,33.45,33.45,0,0,1-.95,4.49q-4.85,17.07-9.7,34.16a33.61,33.61,0,0,0,.94-4.37,35.47,35.47,0,0,0,.36-4.51,36.13,36.13,0,0,0-.24-4.62,37.81,37.81,0,0,0-.85-4.7c-.29-1.15-.63-2.27-1-3.38s-.83-2.19-1.32-3.26-1-2.11-1.58-3.13-1.19-2-1.84-3Z"/><path class="cls-4" d="M258.7,459.06a36,36,0,0,1,.38,16.58,35.63,35.63,0,0,1-6.85,14.46,41.28,41.28,0,0,1-13,10.8,50.33,50.33,0,0,1-18.09,5.48c3,12.49,5.23,21.86,7.08,29.62s3.34,14,4.8,20.07,2.92,12.2,4.74,19.81,4,16.87,7,29.34a224.09,224.09,0,0,0,23.12,58.56,212.42,212.42,0,0,0,44.9,55.1,215.66,215.66,0,0,0,69.85,40.59c27.58,9.84,59.43,15.38,95.75,15,32.25-12.18,56.54-27.68,74.4-45.13a140.71,140.71,0,0,0,35.62-55.87c6.58-19.38,8.63-39.43,7.53-59A208.23,208.23,0,0,0,584.68,559c-3.9-11.34-6.79-19.73-9.19-26.69s-4.28-12.46-6.2-18S565.44,503.07,563,496s-5.38-15.64-9.31-27a48.67,48.67,0,0,1-17.31-1.26,56.59,56.59,0,0,1-16.21-7A55.24,55.24,0,0,1,507,449.23a46,46,0,0,1-8.33-14.8q-.54-1.67-.93-3.3t-.6-3.24q-.23-1.61-.3-3.18c0-1-.05-2.08,0-3.1-8.1-1.3-17.07-2.56-26.64-3.68s-19.84-2.09-30.44-2.77-21.66-1.06-32.81-1-22.56.54-33.8,1.61-22.49,2.74-33.41,4.81-21.69,4.59-31.94,7.33-20.19,5.75-29.41,8.8-17.9,6.2-25.67,9.18c.68,1,1.33,2.05,1.92,3.1s1.16,2.13,1.66,3.23,1,2.22,1.37,3.36S258.4,457.88,258.7,459.06Z"/><path class="cls-4" d="M538.23,746.36,560.5,721.2a159,159,0,0,1-15.22,15,181,181,0,0,1-18.58,14A219.38,219.38,0,0,1,504.49,763a270.77,270.77,0,0,1-26.13,11.42l-19.54,23.74A264.17,264.17,0,0,0,484,787a213.88,213.88,0,0,0,21.45-12.48,180.74,180.74,0,0,0,18-13.63A155.58,155.58,0,0,0,538.23,746.36Z"/><path class="cls-4" d="M476.94,776.17l1.42-1.72A270.77,270.77,0,0,0,504.49,763,219.38,219.38,0,0,0,526.7,750.2a181,181,0,0,0,18.58-14,159,159,0,0,0,15.22-15l-5.5,6.21c-1.16,1.22-2.36,2.43-3.58,3.63-17.87,17.45-42.15,33-74.41,45.13Z"/><path class="cls-4" d="M221.11,506.38,212.76,540c2.84,12.1,5,21.18,6.73,28.7s3.16,13.53,4.54,19.44l4.5,19.17c1.73,7.41,3.82,16.33,6.64,28.39a216.06,216.06,0,0,0,22,56.55,201.11,201.11,0,0,0,109.75,91.92c26.44,9.38,57,14.59,91.9,14.06l19.54-23.74c-36.32.4-68.17-5.14-95.75-15a215.66,215.66,0,0,1-69.85-40.59,212.42,212.42,0,0,1-44.9-55.1,224.09,224.09,0,0,1-23.12-58.56c-3-12.47-5.19-21.69-7-29.34s-3.27-13.68-4.74-19.81-2.93-12.27-4.8-20.07S224.1,518.87,221.11,506.38Z"/><path class="cls-4" d="M226.84,537.73c-1.75-7.37-3.87-16.2-6.62-27.74l.5-2,.75-.11c2.8,11.74,4.95,20.69,6.72,28.13,1.87,7.8,3.34,14,4.8,20.07s2.92,12.2,4.74,19.81,4,16.87,7,29.34a224.09,224.09,0,0,0,23.12,58.56,212.42,212.42,0,0,0,44.9,55.1,215.66,215.66,0,0,0,69.85,40.59c27.58,9.84,59.43,15.38,95.75,15l-1.42,1.72c-36.29.39-68.11-5.15-95.68-15a215.66,215.66,0,0,1-69.85-40.59,212.63,212.63,0,0,1-44.9-55.1,224.44,224.44,0,0,1-23.12-58.56l-7-29.34c-1.82-7.61-3.27-13.68-4.74-19.81S228.71,545.52,226.84,537.73Z"/><path class="cls-4" d="M267.1,511l1.07,1.26,1.34-1.26c4.76-4.43,5.8-11.17,8.7-16.71a51.9,51.9,0,0,0,5.56-17.7,54,54,0,0,0-1.11-19.26c6.8-2.4,14.07-4.82,21.71-7.14s15.57-4.55,23.8-6.59,16.62-3.87,25.21-5.41,17.26-2.81,26-3.69,17.54-1.36,26.3-1.56,17.41-.09,25.9.24,16.73.86,24.66,1.54,15.5,1.51,22.61,2.4a67.19,67.19,0,0,0,9.27,17.5,79.65,79.65,0,0,0,14,14.71,85.63,85.63,0,0,0,17.48,11,82.45,82.45,0,0,0,19.56,6.43l25.13,74.41a192,192,0,0,1,8.76,38.63c1.81,15.51,1.74,33-2.51,50.85a120.63,120.63,0,0,1-28.25,53.51c-15.61,17.3-38.23,33.15-70.44,45.59l-1.15,0,.56.65c-36.55-.26-67.67-6.55-93-17.29a184.26,184.26,0,0,1-60.73-41.39,190.8,190.8,0,0,1-34.14-48.66,201.86,201.86,0,0,1-14.88-40.66l-19.9-80.7C255.05,518.75,262.32,515.48,267.1,511Z"/><path class="cls-4" d="M567.21,655.27c4.24-17.82,4.32-35.34,2.51-50.85A191.12,191.12,0,0,0,561,565.79l-25.12-74.41A82.3,82.3,0,0,1,516.27,485a86.07,86.07,0,0,1-17.48-11,79.7,79.7,0,0,1-14-14.71,67.46,67.46,0,0,1-9.26-17.5c-7.12-.89-14.7-1.72-22.61-2.4s-16.21-1.23-24.66-1.55-17.17-.43-25.9-.23-17.58.69-26.3,1.56-17.46,2.14-26,3.68-17,3.39-25.21,5.42-16.2,4.27-23.8,6.58c-6.4,1.95-12.52,4-18.34,6-.18-.94-.37-1.87-.59-2.8,6.8-2.4,14.07-4.81,21.71-7.14s15.57-4.54,23.8-6.58,16.62-3.87,25.21-5.42,17.26-2.81,26-3.68,17.54-1.37,26.3-1.56,17.41-.09,25.9.23,16.72.86,24.66,1.55,15.5,1.5,22.61,2.4a67.51,67.51,0,0,0,9.27,17.5,79.59,79.59,0,0,0,14,14.7,86.11,86.11,0,0,0,17.48,11,81.83,81.83,0,0,0,19.56,6.42l25.13,74.42a191.71,191.71,0,0,1,8.76,38.63c1.81,15.5,1.74,33-2.51,50.85a120,120,0,0,1-20.14,43.55A120.17,120.17,0,0,0,567.21,655.27Z"/><path class="cls-4" d="M263.28,514a63.56,63.56,0,0,1-13.47,9.55l-.57-2.29A64.24,64.24,0,0,0,266.07,510a58.08,58.08,0,0,0,6.45-7.08A56.8,56.8,0,0,1,263.28,514Z"/><path d="M493.94,551.41l-3.28-12.5-21.19,3-7.53-30.15-12.43,1.52,7.37,30.43L440.93,546l-12.76-54.76-30.37,3.24,12.78,59.45c-10.15-9.75-22.55-13.62-37.43-11.63a45,45,0,0,0-24.3,11.11c-7.14,6.29-12.28,14.93-15.38,26-3.16,11.26-3.55,24.35-1.08,39.32s7.29,27.41,14.55,37.53,15.88,17.39,25.67,21.57a46.94,46.94,0,0,0,29.25,3c17.73-3.95,28.55-14.92,32.66-32.61l4.54,20.94,29.07-6.42L444,559l16-2.43,17.6,72.59c2.58,10.63,6.79,18.33,12.63,23s12.7,6.13,20.56,4.38a35,35,0,0,0,9.77-3.67l-3.66-14a28.93,28.93,0,0,1-7.78,2.63A13.17,13.17,0,0,1,497.73,639q-5-3.87-7.52-14.07l-17.56-70.28Zm-73.81,81.32c-3.25,8.15-8.81,13.06-16.69,14.66-8.12,1.64-15.49-.77-22-7.24s-10.93-15.75-13.15-27.77-1.49-22,2.14-29.8,9.38-12.18,17.38-13.39c7.63-1.16,14.44,1.3,20.51,7.38s10.35,14.88,12.84,26.47C423.65,614.78,423.34,624.69,420.13,632.73Z"/></g></g></svg>