<svg xmlns="http://www.w3.org/2000/svg" xmlns:xlink="http://www.w3.org/1999/xlink" viewBox="0 0 519 372.98"><defs><style>.cls-1{fill:none;}.cls-2{fill:#e9ffe3;}.cls-3{font-size:18px;font-family:Avenir-Medium, Avenir;font-weight:500;}.cls-3,.cls-4{fill:#1a1a1a;}.cls-4{font-size:25px;font-family:Avenir-Heavy, Avenir;font-weight:800;}.cls-5{fill:#3fffbe;}.cls-6{fill:#ff9ffb;}.cls-7{clip-path:url(#clip-path);}</style><clipPath id="clip-path"><rect class="cls-1" x="200.44" y="102.96" width="113.46" height="31.08" transform="translate(-8.47 216.55) rotate(-45)"/></clipPath></defs><g id="Layer_2" data-name="Layer 2"><g id="Layer_1-2" data-name="Layer 1"><rect class="cls-2" width="519" height="355.6" rx="18.56"/><text class="cls-3" transform="translate(89.29 274.48)">Express yourself to millions while allowing <tspan x="-1.54" y="21.6">yourself the pleasure of fully owning every </tspan><tspan x="116.16" y="43.2">written word.</tspan></text><text class="cls-4" transform="translate(164.13 241.55)">WEB PUBLISHER</text><path d="M324.74,63.53,312.13,50.92a14.79,14.79,0,0,0-20.89,0l-93.81,93.82a4.14,4.14,0,0,0-1.13,2.14L190,180.93a4,4,0,0,0,1.12,3.62,4.1,4.1,0,0,0,3.63,1.13l34-6.31a4.15,4.15,0,0,0,2.14-1.12l93.81-93.82A14.78,14.78,0,0,0,324.74,63.53ZM199.09,176.58l3.82-20.6,16.78,16.79Zm29-7-22-22L286.3,67.39l22,22ZM319,78.67,314,83.6l-22-22L297,56.69a6.64,6.64,0,0,1,9.37,0L319,69.3A6.62,6.62,0,0,1,319,78.67Z"/><rect class="cls-5" x="200.44" y="102.96" width="113.46" height="31.08" transform="translate(-8.47 216.55) rotate(-45)"/><path class="cls-6" d="M319,78.67,314,83.6l-22-22L297,56.69a6.64,6.64,0,0,1,9.37,0L319,69.3A6.62,6.62,0,0,1,319,78.67Z"/><g class="cls-7"><path d="M224.92,110.93a33.73,33.73,0,1,0,40.5-25.19A33.74,33.74,0,0,0,224.92,110.93Zm62.25,14.51a30.19,30.19,0,1,1-22.55-36.25A30.2,30.2,0,0,1,287.17,125.44Z"/><circle cx="248.02" cy="125.85" r="7.92"/><circle cx="265.72" cy="110.7" r="7.92"/></g></g></g></svg>