<svg xmlns="http://www.w3.org/2000/svg" viewBox="0 0 968 1124"><defs><style>.cls-1{fill:#ccffe6;}.cls-2{font-size:40px;font-family:Avenir-Heavy, Avenir;font-weight:800;}.cls-2,.cls-3{fill:#1a1a1a;}.cls-3{font-size:25.61px;font-family:Montserrat-Regular, Montserrat;}.cls-4{fill:#fcffe3;stroke:#1a1a1a;stroke-miterlimit:10;stroke-width:5px;}</style></defs><g id="Layer_2" data-name="Layer 2"><g id="Layer_1-2" data-name="Layer 1"><rect class="cls-1" width="968" height="1124" rx="23.96"/><text class="cls-2" transform="translate(360.22 163.54)">Ultra Secure.</text><text class="cls-3" transform="translate(191.19 237.26)">Enjoy the most secure end-to-end encryption <tspan x="-51.82" y="30.73">(powered by the open-source Digital Twin Protocol) in </tspan><tspan x="-33.46" y="61.46">the world. And a unique storage algorithm ensures </tspan><tspan x="81.41" y="92.18">your data can&apos;t be hacked or lost.</tspan></text><path class="cls-4" d="M327.24,717.38,360.78,698,237.12,626.62c-5.84-3.37-5.84-8.86,0-12.23l126.33-72.94c5.84-3.37,15.34-3.37,21.18,0l123.66,71.4,33.54-19.37L418.17,522.09c-24.33-14.05-63.93-14.05-88.26,0L203.58,595c-24.33,14.05-24.33,36.91,0,51Z"/><path class="cls-4" d="M273.12,725.9c0-17.93,10.9-38.76,24.35-46.52L521.52,550c6-3.47,11.52-3.72,15.77-1.34h0L804.81,704.12,546.12,899.05l-263.54-153a12.34,12.34,0,0,1-2.33-1.36h0C275.84,741.4,273.12,734.86,273.12,725.9Z"/><path class="cls-4" d="M546.12,899.05l-263.54-153a12.34,12.34,0,0,1-2.33-1.36h0c-4.4-3.33-7.12-9.87-7.12-18.83,0-8.56,2.5-17.77,6.56-25.91L580.11,873.44Z"/><path class="cls-4" d="M563,898.36,787,769c13.44-7.76,24.35-28.59,24.35-46.52h0c0-17.93-10.91-26.17-24.35-18.41L563,833.43C549.52,841.19,538.62,862,538.62,880h0C538.62,897.88,549.52,906.12,563,898.36Z"/><path class="cls-4" d="M596.53,854.73l26.93-15.54c2.69-1.54,4.86-5.69,4.86-9.27h0c0-3.57-2.17-5.21-4.86-3.67l-26.93,15.54c-2.68,1.55-4.85,5.7-4.85,9.27h0C591.68,854.64,593.85,856.28,596.53,854.73Z"/></g></g></svg>