<svg xmlns="http://www.w3.org/2000/svg" xmlns:xlink="http://www.w3.org/1999/xlink" viewBox="0 0 783.21 1001.21"><defs><style>.cls-1{fill:none;}.cls-10,.cls-11,.cls-12,.cls-13,.cls-14,.cls-15,.cls-16,.cls-17,.cls-18,.cls-19,.cls-2,.cls-20,.cls-21,.cls-22,.cls-23,.cls-24,.cls-25,.cls-26,.cls-27,.cls-29,.cls-3,.cls-30,.cls-4,.cls-5,.cls-6,.cls-7,.cls-8,.cls-9{fill:#1a1a1a;}.cls-2{opacity:0.7;}.cls-3{opacity:0.84;}.cls-4{opacity:0.75;}.cls-5{opacity:0.49;}.cls-6{opacity:0.22;}.cls-7{opacity:0.62;}.cls-8{opacity:0.86;}.cls-9{opacity:0.35;}.cls-10{opacity:0.48;}.cls-11{opacity:0.98;}.cls-12{opacity:0.21;}.cls-13{opacity:0.83;}.cls-14{opacity:0.54;}.cls-15{opacity:0.28;}.cls-16{opacity:0.3;}.cls-17{opacity:0.56;}.cls-18{opacity:0.72;}.cls-19{opacity:0.5;}.cls-20{opacity:0.73;}.cls-21{opacity:0.89;}.cls-22{opacity:0.91;}.cls-23{opacity:0.69;}.cls-24{opacity:0.39;}.cls-25{opacity:0.59;}.cls-26{opacity:0.76;}.cls-27{opacity:0.37;}.cls-28{fill:#fcf4ff;}.cls-29{font-size:40px;font-family:Avenir-Heavy, Avenir;font-weight:800;}.cls-30{font-size:25.61px;font-family:Montserrat-Regular, Montserrat;}.cls-31{fill:#333;}.cls-32{fill:#3fffbe;}.cls-33{fill:#ff9ffb;}.cls-34{clip-path:url(#clip-path);}</style><clipPath id="clip-path"><rect class="cls-1" x="249.37" y="116.67" width="88.27" height="322.28" transform="translate(-106.17 217.93) rotate(-34.9)"/></clipPath></defs><g id="Layer_2" data-name="Layer 2"><g id="Layer_1-2" data-name="Layer 1"><path class="cls-2" d="M62.25,554.82a.13.13,0,0,1,0-.1s0,0,0,0,0,0,.05,0a.13.13,0,0,1,0,.1l-.05,0Zm0-.09s0,0,0,0a.06.06,0,0,0,0,0h0v0s0,0,0,0h0Z"/><path class="cls-3" d="M79.89,554.82a.13.13,0,0,1,0-.1,0,0,0,0,1,0,0s0,0,0,0a.13.13,0,0,1,0,.1l0,0Zm0-.09s0,0,0,0a.06.06,0,0,0,0,0h0a.06.06,0,0,0,0,0s0,0,0,0h0Z"/><path class="cls-4" d="M62.25,612.46a.13.13,0,0,1,0-.1s0,0,0,0,0,0,.05,0a.13.13,0,0,1,0,.1l-.05,0Zm0-.09s0,0,0,0a.06.06,0,0,0,0,0h0v0s0,0,0,0h0Z"/><path class="cls-5" d="M79.91,612.34h0v.14h0v-.12h0Z"/><path class="cls-6" d="M44.64,630h0v.06h0V630h0Z"/><path class="cls-3" d="M62.25,630.1a.13.13,0,0,1,0-.1s0,0,0,0,0,0,.05,0a.13.13,0,0,1,0,.1l-.05,0Zm0-.09s0,0,0,0a.06.06,0,0,0,0,0h0v0s0,0,0,0h0Z"/><path class="cls-7" d="M79.91,630h0v.14h0V630h0Z"/><path class="cls-4" d="M44.64,647.66h0v.07h0v-.06h0Z"/><path class="cls-8" d="M62.27,647.62h0v.14h0v-.12h0Z"/><path class="cls-9" d="M79.89,647.74a.13.13,0,0,1,0-.1l0,0,0,0a.13.13,0,0,1,0,.1s0,0,0,0A0,0,0,0,1,79.89,647.74Zm0-.09s0,0,0,0,0,0,0,0h0s0,0,0,0,0,0,0,0h0Z"/><path class="cls-10" d="M44.64,665.3h0v.07h0v-.06h0Z"/><path class="cls-11" d="M62.25,665.38a.13.13,0,0,1,0-.1l0,0,.05,0a.13.13,0,0,1,0,.1s0,0-.05,0S62.26,665.4,62.25,665.38Zm0-.09a.06.06,0,0,0,0,0s0,0,0,0h0s0,0,0,0v0h0Z"/><path class="cls-12" d="M79.91,665.26h0v.14h0v-.12h0Z"/><path class="cls-13" d="M44.64,682.94h0V683h0V683h0Z"/><path class="cls-14" d="M62.25,683a.13.13,0,0,1,0-.1l0,0,.05,0a.13.13,0,0,1,0,.1s0,0-.05,0S62.26,683,62.25,683Zm0-.09a.06.06,0,0,0,0,0s0,0,0,0h0s0,0,0,0,0,0,0,0h0Z"/><path class="cls-15" d="M79.9,682.87H80v.21h0v-.18h0Z"/><path class="cls-16" d="M44.63,700.64v0h0s0,0,0,0a0,0,0,0,1,0,0h0Zm0,0v0h0v0h0Z"/><path class="cls-17" d="M62.27,700.54h0v.14h0v-.11h0Z"/><path class="cls-18" d="M79.87,700.69a.15.15,0,0,1,0-.08.19.19,0,0,1,0-.08.07.07,0,0,1,.06,0,.09.09,0,0,1,.07,0,.19.19,0,0,1,0,.08.15.15,0,0,1,0,.08.09.09,0,0,1-.07,0A.07.07,0,0,1,79.87,700.69Zm0-.13a.08.08,0,0,0,0,.05.11.11,0,0,0,0,.06l0,0,0,0a.11.11,0,0,0,0-.06.07.07,0,0,0,0-.05s0,0,0,0S79.9,700.54,79.9,700.56Z"/><path class="cls-19" d="M44.64,718.22h0v.07h0v-.06h0Z"/><path class="cls-11" d="M62.25,718.31a.11.11,0,0,1,0-.06.07.07,0,0,1,0,0l0,0,.05,0a.07.07,0,0,1,0,0,.11.11,0,0,1,0,.06l-.05,0Zm0-.09a0,0,0,0,0,0,0s0,0,0,0l0,0,0,0s0,0,0,0v0l0,0Z"/><path class="cls-20" d="M79.91,718.19h0v.13h0v-.11h0Z"/><path class="cls-21" d="M44.63,735.92v0s0,0,0,0h0s0,0,0,0v0h0Zm0,0v0h0v0h0Z"/><path class="cls-22" d="M62.25,736a.11.11,0,0,1,0-.06.09.09,0,0,1,0,0l0,0,.05,0a.09.09,0,0,1,0,0,.11.11,0,0,1,0,.06l-.05,0Zm0-.09a0,0,0,0,0,0,0s0,0,0,0a0,0,0,0,0,0,0l0,0s0,0,0,0v0l0,0Z"/><path class="cls-23" d="M79.91,735.83h0V736h0v-.11h0Z"/><path class="cls-24" d="M62.25,753.59a.09.09,0,0,1,0-.05.11.11,0,0,1,0-.06l0,0,.05,0a.11.11,0,0,1,0,.06.09.09,0,0,1,0,.05l-.05,0Zm0-.09s0,0,0,0a0,0,0,0,0,0,0l0,0,0,0s0,0,0,0,0,0,0,0l0,0Z"/><path class="cls-25" d="M79.89,753.59a.09.09,0,0,1,0-.05.11.11,0,0,1,0-.06l0,0,0,0a.11.11,0,0,1,0,.06.09.09,0,0,1,0,.05l0,0Zm0-.09s0,0,0,0a0,0,0,0,0,0,0l0,0s0,0,0,0a0,0,0,0,0,0,0s0,0,0,0,0,0,0,0Z"/><path class="cls-26" d="M62.25,771.23a.07.07,0,0,1,0-.05.11.11,0,0,1,0-.06l0,0,.05,0a.11.11,0,0,1,0,.06.07.07,0,0,1,0,.05l-.05,0Zm0-.09s0,0,0,0a0,0,0,0,0,0,0l0,0,0,0s0,0,0,0,0,0,0,0l0,0Z"/><path class="cls-27" d="M79.91,771.11h0v.14h0v-.12h0Z"/><rect class="cls-28" x="19.78" width="743.64" height="1001.21" rx="23.96"/><text class="cls-29" transform="translate(180.77 682.3)">Publishing Made Easy.</text><text class="cls-30" transform="translate(107.9 738.03)">Set up your IP, defne the nodes on which to <tspan x="34.06" y="30.73">run it, and start building your websites. </tspan><tspan x="24.62" y="61.46">Improve your effciency – edit, run, build, </tspan><tspan x="70.33" y="92.18">commit, and push your local web </tspan><tspan x="23.1" y="122.91">environment – and go live at light speed.</tspan></text><path class="cls-31" d="M173.45,61.51l-41.54,29a42,42,0,0,0-10.4,58.43L337.16,458a11.87,11.87,0,0,0,5.42,4.21l92.07,34.58a11.58,11.58,0,0,0,15.65-10.92l-.68-98.34a11.85,11.85,0,0,0-2.08-6.55l-215.66-309A41.94,41.94,0,0,0,173.45,61.51ZM427,469.15l-55.7-20.92,55.28-38.57Zm-5.11-84.45-72.39,50.51L165.1,170.92l72.39-50.51Zm-209-299.54,11.35,16.26-72.4,50.51L140.5,135.67a18.82,18.82,0,0,1,4.66-26.19l41.54-29A18.8,18.8,0,0,1,212.89,85.16Z"/><rect class="cls-32" x="249.37" y="116.67" width="88.27" height="322.28" transform="translate(-106.17 217.93) rotate(-34.9)"/><path class="cls-33" d="M212.89,85.16l11.35,16.26-72.4,50.51L140.5,135.67a18.82,18.82,0,0,1,4.66-26.19l41.54-29A18.8,18.8,0,0,1,212.89,85.16Z"/><g class="cls-34"><path d="M256.31,364.24A95.8,95.8,0,1,0,206,238.44,95.8,95.8,0,0,0,256.31,364.24ZM327.85,197.4a85.73,85.73,0,1,1-112.59,45A85.73,85.73,0,0,1,327.85,197.4Z"/><circle cx="309.51" cy="307.07" r="22.48"/><circle cx="275.98" cy="250.04" r="22.48"/></g><path class="cls-31" d="M444.77,495.76a409.77,409.77,0,0,1,41.94-37.39l-1.82,1.41A358.06,358.06,0,0,1,539.5,424.9q8-4.12,16.25-7.79l-12.32-12.32-33.29,56.72L477,518,458.2,550c-1.95,3.32-1.51,8.23,1.41,10.91s7.44,3.59,10.91,1.41q40.38-25.49,82.29-48.44,41.07-22.46,83.51-42.27,23.73-11.07,47.85-21.25l-2.15.9q14.76-6.23,29.66-12.11a9.84,9.84,0,0,0,5.38-4.14,9,9,0,0,0-3.23-12.31c-2-1.07-4.72-1.79-6.93-.91q-25.33,10-50.27,21-24.27,10.65-48.14,22.21-24,11.64-47.65,24.16-23.79,12.6-47.12,26.07-23.54,13.58-46.56,28c-1.92,1.19-3.82,2.39-5.73,3.59l12.32,12.32L507,502.34l33.16-56.49,18.78-32c1.94-3.32,1.5-8.23-1.41-10.91a10.66,10.66,0,0,0-4-2.31c-2.41-.78-4.76-.07-6.94.9a338.51,338.51,0,0,0-46.37,25.3,396.6,396.6,0,0,0-45,34.15Q443.25,471.56,432,483c-3.3,3.36-3.61,9.42,0,12.73a9.16,9.16,0,0,0,12.73,0Z"/></g></g></svg>