<svg xmlns="http://www.w3.org/2000/svg" viewBox="0 0 968 958.3"><defs><style>.cls-1{fill:#ffefec;}.cls-2{font-size:40px;font-family:Avenir-Heavy, Avenir;font-weight:800;}.cls-2,.cls-3{fill:#1a1a1a;}.cls-3{font-size:25.61px;font-family:Montserrat-Regular, Montserrat;}.cls-4{fill:#3fffbe;}.cls-5{fill:#e8fff6;}.cls-6{fill:#333;}</style></defs><g id="Layer_2" data-name="Layer 2"><g id="Layer_1-2" data-name="Layer 1"><rect class="cls-1" width="968" height="958.3" rx="23.96"/><text class="cls-2" transform="translate(309.58 167.84)">Grow Your Assets.</text><text class="cls-3" transform="translate(166.49 241.57)">Diversify your portfolio by having access to a wide <tspan x="6.66" y="30.73">range of digital assets. Buy, exchange, stake, and </tspan><tspan x="28.79" y="61.46">watch your portfolio grow, live on your wallet.</tspan></text><polygon class="cls-4" points="708 514.39 732.05 378.92 602.7 425.83 630.24 448.99 348.25 784.26 188.51 649.91 146.85 699.43 359.04 877.89 396.61 833.22 400.69 828.37 682.68 493.1 708 514.39"/><circle class="cls-5" cx="343.16" cy="778.31" r="85.88"/><path class="cls-6" d="M277.79,708.06a96,96,0,1,0,135.62,4.88A96,96,0,0,0,277.79,708.06ZM401.67,841.18A85.88,85.88,0,1,1,406,719.81,85.89,85.89,0,0,1,401.67,841.18Z"/><ellipse class="cls-6" cx="314.8" cy="767.48" rx="22.97" ry="23.79" transform="translate(-97.15 47.47) rotate(-7.47)"/><ellipse class="cls-6" cx="382.43" cy="766.9" rx="22.97" ry="23.79" transform="translate(-96.5 56.26) rotate(-7.47)"/></g></g></svg>