<svg xmlns="http://www.w3.org/2000/svg" xmlns:xlink="http://www.w3.org/1999/xlink" viewBox="0 0 785.33 1038.31"><defs><style>.cls-1{fill:none;}.cls-10,.cls-11,.cls-12,.cls-13,.cls-14,.cls-15,.cls-16,.cls-17,.cls-18,.cls-19,.cls-2,.cls-20,.cls-21,.cls-22,.cls-23,.cls-24,.cls-25,.cls-3,.cls-32,.cls-33,.cls-4,.cls-5,.cls-6,.cls-7,.cls-8,.cls-9{fill:#1a1a1a;}.cls-2{opacity:0.7;}.cls-3{opacity:0.84;}.cls-4{opacity:0.75;}.cls-5{opacity:0.49;}.cls-6{opacity:0.22;}.cls-7{opacity:0.62;}.cls-8{opacity:0.86;}.cls-9{opacity:0.35;}.cls-10{opacity:0.48;}.cls-11{opacity:0.98;}.cls-12{opacity:0.21;}.cls-13{opacity:0.83;}.cls-14{opacity:0.54;}.cls-15{opacity:0.28;}.cls-16{opacity:0.3;}.cls-17{opacity:0.56;}.cls-18{opacity:0.72;}.cls-19{opacity:0.5;}.cls-20{opacity:0.73;}.cls-21{opacity:0.89;}.cls-22{opacity:0.91;}.cls-23{opacity:0.69;}.cls-24{opacity:0.39;}.cls-25{opacity:0.59;}.cls-26{fill:#e8fff6;}.cls-27{clip-path:url(#clip-path);}.cls-28{fill:#333;}.cls-29{fill:#ededed;}.cls-30{fill:#ffddd6;}.cls-31{fill:#e9ffe3;}.cls-32{font-size:40px;font-family:Avenir-Heavy, Avenir;font-weight:800;}.cls-33{font-size:25.61px;font-family:Montserrat-Regular, Montserrat;}</style><clipPath id="clip-path" transform="translate(0 37.1)"><rect class="cls-1" x="224.33" width="539.1" height="538.9" rx="23.96"/></clipPath></defs><g id="Layer_2" data-name="Layer 2"><g id="Layer_1-2" data-name="Layer 1"><path class="cls-2" d="M62.25,554.82a.13.13,0,0,1,0-.1s0,0,0,0,0,0,.05,0a.13.13,0,0,1,0,.1l-.05,0Zm0-.09s0,0,0,0a.06.06,0,0,0,0,0h0v0s0,0,0,0h0Z" transform="translate(0 37.1)"/><path class="cls-3" d="M79.89,554.82a.13.13,0,0,1,0-.1,0,0,0,0,1,0,0s0,0,0,0a.13.13,0,0,1,0,.1l0,0Zm0-.09s0,0,0,0a.06.06,0,0,0,0,0h0a.06.06,0,0,0,0,0s0,0,0,0h0Z" transform="translate(0 37.1)"/><path class="cls-4" d="M62.25,612.46a.13.13,0,0,1,0-.1s0,0,0,0,0,0,.05,0a.13.13,0,0,1,0,.1l-.05,0Zm0-.09s0,0,0,0a.06.06,0,0,0,0,0h0v0s0,0,0,0h0Z" transform="translate(0 37.1)"/><path class="cls-5" d="M79.91,612.34h0v.14h0v-.12h0Z" transform="translate(0 37.1)"/><path class="cls-6" d="M44.64,630h0v.06h0V630h0Z" transform="translate(0 37.1)"/><path class="cls-3" d="M62.25,630.1a.13.13,0,0,1,0-.1s0,0,0,0,0,0,.05,0a.13.13,0,0,1,0,.1l-.05,0Zm0-.09s0,0,0,0a.06.06,0,0,0,0,0h0v0s0,0,0,0h0Z" transform="translate(0 37.1)"/><path class="cls-7" d="M79.91,630h0v.14h0V630h0Z" transform="translate(0 37.1)"/><path class="cls-4" d="M44.64,647.66h0v.07h0v-.06h0Z" transform="translate(0 37.1)"/><path class="cls-8" d="M62.27,647.62h0v.14h0v-.12h0Z" transform="translate(0 37.1)"/><path class="cls-9" d="M79.89,647.74a.13.13,0,0,1,0-.1l0,0,0,0a.13.13,0,0,1,0,.1s0,0,0,0A0,0,0,0,1,79.89,647.74Zm0-.09s0,0,0,0,0,0,0,0h0s0,0,0,0,0,0,0,0h0Z" transform="translate(0 37.1)"/><path class="cls-10" d="M44.64,665.3h0v.07h0v-.06h0Z" transform="translate(0 37.1)"/><path class="cls-11" d="M62.25,665.38a.13.13,0,0,1,0-.1l0,0,.05,0a.13.13,0,0,1,0,.1s0,0-.05,0S62.26,665.4,62.25,665.38Zm0-.09a.06.06,0,0,0,0,0s0,0,0,0h0s0,0,0,0v0h0Z" transform="translate(0 37.1)"/><path class="cls-12" d="M79.91,665.26h0v.14h0v-.12h0Z" transform="translate(0 37.1)"/><path class="cls-13" d="M44.64,682.94h0V683h0V683h0Z" transform="translate(0 37.1)"/><path class="cls-14" d="M62.25,683a.13.13,0,0,1,0-.1l0,0,.05,0a.13.13,0,0,1,0,.1s0,0-.05,0S62.26,683,62.25,683Zm0-.09a.06.06,0,0,0,0,0s0,0,0,0h0s0,0,0,0,0,0,0,0h0Z" transform="translate(0 37.1)"/><path class="cls-15" d="M79.9,682.87H80v.21h0v-.18h0Z" transform="translate(0 37.1)"/><path class="cls-16" d="M44.63,700.64v0h0s0,0,0,0a0,0,0,0,1,0,0h0Zm0,0v0h0v0h0Z" transform="translate(0 37.1)"/><path class="cls-17" d="M62.27,700.54h0v.14h0v-.11h0Z" transform="translate(0 37.1)"/><path class="cls-18" d="M79.87,700.69a.15.15,0,0,1,0-.08.19.19,0,0,1,0-.08.07.07,0,0,1,.06,0,.09.09,0,0,1,.07,0,.19.19,0,0,1,0,.08.15.15,0,0,1,0,.08.09.09,0,0,1-.07,0A.07.07,0,0,1,79.87,700.69Zm0-.13a.08.08,0,0,0,0,.05.11.11,0,0,0,0,.06l0,0,0,0a.11.11,0,0,0,0-.06.07.07,0,0,0,0-.05s0,0,0,0S79.9,700.54,79.9,700.56Z" transform="translate(0 37.1)"/><path class="cls-19" d="M44.64,718.22h0v.07h0v-.06h0Z" transform="translate(0 37.1)"/><path class="cls-11" d="M62.25,718.31a.11.11,0,0,1,0-.06.07.07,0,0,1,0,0l0,0,.05,0a.07.07,0,0,1,0,0,.11.11,0,0,1,0,.06l-.05,0Zm0-.09a0,0,0,0,0,0,0s0,0,0,0l0,0,0,0s0,0,0,0v0l0,0Z" transform="translate(0 37.1)"/><path class="cls-20" d="M79.91,718.19h0v.13h0v-.11h0Z" transform="translate(0 37.1)"/><path class="cls-21" d="M44.63,735.92v0s0,0,0,0h0s0,0,0,0v0h0Zm0,0v0h0v0h0Z" transform="translate(0 37.1)"/><path class="cls-22" d="M62.25,736a.11.11,0,0,1,0-.06.09.09,0,0,1,0,0l0,0,.05,0a.09.09,0,0,1,0,0,.11.11,0,0,1,0,.06l-.05,0Zm0-.09a0,0,0,0,0,0,0s0,0,0,0a0,0,0,0,0,0,0l0,0s0,0,0,0v0l0,0Z" transform="translate(0 37.1)"/><path class="cls-23" d="M79.91,735.83h0V736h0v-.11h0Z" transform="translate(0 37.1)"/><path class="cls-24" d="M62.25,753.59a.09.09,0,0,1,0-.05.11.11,0,0,1,0-.06l0,0,.05,0a.11.11,0,0,1,0,.06.09.09,0,0,1,0,.05l-.05,0Zm0-.09s0,0,0,0a0,0,0,0,0,0,0l0,0,0,0s0,0,0,0,0,0,0,0l0,0Z" transform="translate(0 37.1)"/><path class="cls-25" d="M79.89,753.59a.09.09,0,0,1,0-.05.11.11,0,0,1,0-.06l0,0,0,0a.11.11,0,0,1,0,.06.09.09,0,0,1,0,.05l0,0Zm0-.09s0,0,0,0a0,0,0,0,0,0,0l0,0s0,0,0,0a0,0,0,0,0,0,0s0,0,0,0,0,0,0,0Z" transform="translate(0 37.1)"/><rect class="cls-26" x="19.78" y="37.1" width="743.64" height="1001.21" rx="23.96"/><g class="cls-27"><path class="cls-28" d="M514.33-37.1c-149.78,0-271,121.2-271,271a270.37,270.37,0,0,0,35.94,134.9L244.35,477.23A21.18,21.18,0,0,0,271,503.88L379.42,469A270.4,270.4,0,0,0,514.33,504.9c149.77,0,271-121.21,271-271S664.12-37.1,514.33-37.1Zm0,499.65a228,228,0,0,1-121-34.64,21.19,21.19,0,0,0-17.72-2.2l-78.27,25.21,25.21-78.28a21.18,21.18,0,0,0-2.21-17.71,228.05,228.05,0,0,1-34.64-121c0-126.08,102.58-228.66,228.66-228.66S743,107.82,743,233.9,640.41,462.55,514.33,462.55Z" transform="translate(0 37.1)"/><path class="cls-29" d="M523,464.42q-4.32.18-8.68.18a227.87,227.87,0,0,1-121-34.65,21.33,21.33,0,0,0-17.73-2.19L297.31,453l25.21-78.27A21.18,21.18,0,0,0,320.31,357a228.42,228.42,0,0,1-3.61-235.88Z" transform="translate(0 37.1)"/><path class="cls-30" d="M743,235.94a227.32,227.32,0,0,1-5.54,50L365.55,62.47A227.64,227.64,0,0,1,514.34,7.3C640.42,7.3,743,109.86,743,235.94Z" transform="translate(0 37.1)"/><path class="cls-31" d="M737.44,286C715.2,385.37,628.06,460.5,523,464.42L316.7,121.09a229.14,229.14,0,0,1,48.85-58.62Z" transform="translate(0 37.1)"/><path class="cls-28" d="M406.59,90.26c-80.89,59.51-98.23,173.32-38.73,254.21S541.18,442.7,622.07,383.2,720.3,209.88,660.8,129,487.48,30.76,406.59,90.26ZM610.75,367.82a162.73,162.73,0,1,1,34.66-227.51A162.73,162.73,0,0,1,610.75,367.82Z" transform="translate(0 37.1)"/><circle class="cls-28" cx="448.94" cy="269.41" r="42.68"/><circle class="cls-28" cx="574.52" cy="269.41" r="42.68"/></g><text class="cls-32" transform="translate(110.07 729.41)">Privacy shouldn&apos;t be optional.</text><text class="cls-33" transform="translate(172.99 785.13)">Messages on Digital Twin are truly <tspan x="-8.14" y="30.73">end-to-end. Only you can read your </tspan><tspan x="-70.35" y="61.46">messages and listen to your calls, no one else </tspan><tspan x="-59.68" y="92.18">– not even us.  So, focus on sharing with the </tspan><tspan x="71.99" y="122.91">people you care about!</tspan></text></g></g></svg>