<svg xmlns="http://www.w3.org/2000/svg" viewBox="0 0 968 1124"><defs><style>.cls-1{fill:#dffbff;}.cls-2{font-size:40px;font-family:Avenir-Heavy, Avenir;font-weight:800;}.cls-2,.cls-3{fill:#1a1a1a;}.cls-3{font-size:25.61px;font-family:Montserrat-Regular, Montserrat;}.cls-4{fill:#fcffe3;}.cls-5{fill:#e8fff6;}.cls-6{fill:#f3ecff;}.cls-7{fill:#e9ffe3;}.cls-11,.cls-8{fill:#ffddd6;stroke:#1a1a1a;stroke-miterlimit:10;}.cls-8{stroke-width:6px;}.cls-9{fill:#fff;}.cls-10{fill:#333;}.cls-11{stroke-width:3px;}</style></defs><g id="Layer_2" data-name="Layer 2"><g id="Layer_1-2" data-name="Layer 1"><rect class="cls-1" width="968" height="1124" rx="23.96"/><text class="cls-2" transform="translate(323.18 163.54)">Exchange Freely.</text><text class="cls-3" transform="translate(165.6 237.26)">Experience crystal-clear voice and video calls with <tspan x="-0.35" y="30.73">your people, without boundaries. Share text, voice </tspan><tspan x="-7.68" y="61.46">messages, photos, videos, GIFs and fles of any size, </tspan><tspan x="93.58" y="92.18">unlimitedly, and without extra fees. </tspan></text><circle class="cls-4" cx="492.43" cy="606.83" r="201.81"/><circle class="cls-5" cx="275.1" cy="655.95" r="201.81"/><circle class="cls-6" cx="386.18" cy="825.63" r="182.25"/><circle class="cls-7" cx="692.9" cy="799.06" r="201.81"/><path class="cls-8" d="M537.93,489.76c-41.26-9.86-76.76-4.71-105.56,15.3-47.16,32.79-61.14,95.54-65,121-1.08,7.14,3.72,13.82,11.15,15.56l4.49,1,1.48-4.22a51.19,51.19,0,0,1,14-21.41l1.15-1,.34-1.47c5.22-23,18.64-64.72,49.78-86.33,21.19-14.71,48.26-18.27,80.52-10.57,108.89,26,100.41,153,95.22,191.31-1,7.5,4.3,14.39,12.11,15.69a15.63,15.63,0,0,0,4.63.06,15.46,15.46,0,0,0,7-2.75,14.17,14.17,0,0,0,5.93-9.86C660.66,667.8,668.32,520.92,537.93,489.76Z"/><circle class="cls-9" cx="492.12" cy="751.29" r="126.94"/><path class="cls-10" d="M393.57,649.29a141.83,141.83,0,1,0,200.55,3.44A141.81,141.81,0,0,0,393.57,649.29ZM580.33,842.57a126.94,126.94,0,1,1,3.08-179.49A126.94,126.94,0,0,1,580.33,842.57Z"/><ellipse class="cls-10" cx="411.26" cy="729.79" rx="35.17" ry="33.96" transform="translate(-347.56 1084.65) rotate(-85.66)"/><ellipse class="cls-10" cx="509.27" cy="749.41" rx="35.17" ry="33.96" transform="translate(-276.52 1200.53) rotate(-85.66)"/><path class="cls-11" d="M657.93,760.54c3.47-26.8,5.57-47.56,5.57-47.56s-23.57-7.19-34.83-8.6h0c-11.09-2.5-23.88,3-35.75,17.22-23.78,28.39-34.73,78-24.62,114.11,4.36,15.58,12.17,23.23,21.1,29.65,0,0,23.61,16.87,40.73,12.82,7.19-1.71,14.23-31.12,20-64.67A155.75,155.75,0,0,0,657.93,760.54Z"/><path class="cls-11" d="M628.59,883.32c-17.63,2.38-38.9-12.18-41.37-13.93-9.07-6.52-18.09-14.94-23-32.36-10.56-37.71.42-88.76,25.53-118.75,12.49-14.91,26.56-21.5,39.6-18.58,11.1,1.37,34.14,8.38,35.12,8.68l3.65,1.11-.42,4.17c0,.21-2.11,20.92-5.53,47.29a161.84,161.84,0,0,1-8.1,54.35c-9.69,57-17.06,66.16-23,67.56C630.29,883.05,629.44,883.21,628.59,883.32Zm-8-174.5c-8.19,1.1-16.62,6.63-24.56,16.12-22.85,27.28-33.26,75.37-23.71,109.49,3.82,13.61,10.45,20.61,19.26,27,7.7,5.43,25.63,15,37.51,12.13.63-.31,7.21-4.9,16.81-61a153.27,153.27,0,0,0,7.76-51.89l0-.87c2.53-19.44,4.33-35.83,5.11-43.22-7-2-22.3-6.34-30.5-7.36A21.74,21.74,0,0,0,620.61,708.82Z"/><path class="cls-11" d="M687.73,743.76c10.12,36.09-1,88.37-24.74,116.76s-51.25,22.15-61.36-13.93,1-88.37,24.74-116.76S677.62,707.67,687.73,743.76Z"/><path class="cls-11" d="M636.62,882.86a28.18,28.18,0,0,1-11.52-.8c-12.56-3.54-22.34-15.68-27.53-34.17-10.49-37.5,1-92,25.66-121.39,13-15.53,27.58-22,41-18.21,12.55,3.54,22.33,15.68,27.51,34.17h0c10.5,37.5-1,91.95-25.66,121.39C656.77,875,646.6,881.51,636.62,882.86ZM654.19,717c-8.1,1.09-16.74,6.67-24.68,16.15-22.82,27.25-33.51,77.56-23.83,112.13,4.22,15.07,11.77,24.85,21.24,27.51,10.21,2.88,22.21-2.81,32.93-15.61,22.83-27.26,33.52-77.56,23.83-112.13-4.22-15.07-11.76-24.85-21.23-27.52A20.25,20.25,0,0,0,654.19,717Z"/><path class="cls-11" d="M691.12,755.92c8,28.69-.77,70.24-19.67,92.81s-40.74,17.62-48.78-11.07.77-70.24,19.67-92.81S683.08,727.23,691.12,755.92Z"/><path class="cls-11" d="M650.62,867.47a23.38,23.38,0,0,1-9.49-.66c-10.3-2.91-18.29-12.8-22.51-27.85-8.43-30.11.8-73.82,20.58-97.44,10.57-12.61,22.46-17.84,33.45-14.75,10.31,2.91,18.3,12.8,22.52,27.85,8.43,30.11-.8,73.82-20.58,97.44C667,861.11,658.75,866.37,650.62,867.47Zm14-131.85c-6.23.84-12.92,5.19-19.09,12.56-18,21.44-26.37,61-18.76,88.18,3.26,11.63,9,19.16,16.23,21.19,7.78,2.18,17-2.22,25.36-12.14,18-21.45,26.37-61,18.75-88.19-3.25-11.63-9-19.16-16.23-21.19A15.26,15.26,0,0,0,664.57,735.62Z"/></g></g></svg>