<svg xmlns="http://www.w3.org/2000/svg" viewBox="0 0 1771.36 618.64"><defs><style>.cls-1{fill:#ffefec;}.cls-2{fill:#dffbff;}.cls-3{font-size:40px;font-family:Avenir-Heavy, Avenir;font-weight:800;}.cls-3,.cls-4{fill:#1a1a1a;}.cls-4{font-size:25.61px;font-family:Montserrat-Regular, Montserrat;}.cls-5{fill:#ddf6fa;}.cls-6{fill:#f7fae0;}.cls-7{fill:#f3e1fa;}.cls-8{fill:#e4fade;}.cls-9{fill:#333;}</style></defs><g id="Layer_2" data-name="Layer 2"><g id="Layer_1-2" data-name="Layer 1"><rect class="cls-1" width="1771.36" height="618.64" rx="23.96"/><path class="cls-2" d="M1747.39,0a24,24,0,0,1,24,24V594.67a24,24,0,0,1-24,24H864Z"/><text class="cls-3" transform="translate(388.51 254.17)">Compatible.</text><text class="cls-4" transform="translate(159.9 327.89)">Create your own environment! Use Gridsome, or easily <tspan x="15.57" y="30.73">integrate your favorite framework and tools to build </tspan><tspan x="162.09" y="61.46">your websites and platforms.</tspan></text><path class="cls-5" d="M1264.23,384.76V153.25h25.28a15.1,15.1,0,1,0-.25-11.72h-25V107.86c-93.9,24.56-163.19,110-163.19,211.54a218.46,218.46,0,0,0,10,65.36Z"/><path class="cls-6" d="M1364.46,483.58H1388a15.11,15.11,0,1,0,.2-11.63h-23.72V293.33H1328v15.09a21.88,21.88,0,1,1-25.13-.08v-15H1271v98.21H1113.24c29.81,85.32,111,146.53,206.47,146.53a219.21,219.21,0,0,0,44.75-4.62Z"/><path class="cls-7" d="M1496.4,293.33V270.64a15.1,15.1,0,1,0-11.7.3v22.39H1371.23V465.17h13.09a21.87,21.87,0,1,1-.39,25.13h-12.7v41.64c95.9-23.17,167.14-109.52,167.14-212.54a222.16,222.16,0,0,0-1.54-26.07Z"/><path class="cls-8" d="M1271,134.76h14.23a21.9,21.9,0,1,1,.33,25.12H1271V286.56h38.65V312.3a15.1,15.1,0,1,0,11.62.06v-25.8h156.65V275a21.89,21.89,0,1,1,25.13-.44v12h32.84c-15.85-105.18-106.59-185.82-216.19-185.82a218.83,218.83,0,0,0-48.7,5.48Z"/><path class="cls-9" d="M1183,142.64c-101.93,75-123.78,218.39-48.8,320.32s218.4,123.78,320.33,48.8,123.78-218.39,48.8-320.32S1284.93,67.66,1183,142.64Zm257.27,349.73c-91.23,67.11-219.58,47.55-286.68-43.67S1106,229.13,1197.26,162s219.58-47.55,286.68,43.67S1531.49,425.27,1440.27,492.37Z"/><circle class="cls-9" cx="1236.37" cy="321.62" r="53.78"/><circle class="cls-9" cx="1394.61" cy="321.62" r="53.78"/></g></g></svg>