<svg xmlns="http://www.w3.org/2000/svg" viewBox="0 0 783.21 1001.21"><defs><style>.cls-1,.cls-10,.cls-11,.cls-13,.cls-14,.cls-2,.cls-3,.cls-4,.cls-5,.cls-6,.cls-7,.cls-8,.cls-9{fill:#1a1a1a;}.cls-1{opacity:0.7;}.cls-2{opacity:0.84;}.cls-3{opacity:0.49;}.cls-4{opacity:0.62;}.cls-5{opacity:0.35;}.cls-6{opacity:0.21;}.cls-7{opacity:0.28;}.cls-8{opacity:0.72;}.cls-9{opacity:0.73;}.cls-10{opacity:0.69;}.cls-11{opacity:0.59;}.cls-12{fill:#fcffe3;}.cls-13{font-size:40px;font-family:Avenir-Heavy, Avenir;font-weight:800;}.cls-14{font-size:25.61px;font-family:Montserrat-Regular, Montserrat;}.cls-15{fill:#333;}.cls-16{fill:#ededed;}.cls-17{fill:#e9ffe3;}.cls-18{fill:#e8fff6;}</style></defs><g id="Layer_2" data-name="Layer 2"><g id="Layer_1-2" data-name="Layer 1"><path class="cls-1" d="M62.25,554.82a.13.13,0,0,1,0-.1s0,0,0,0,0,0,.05,0a.13.13,0,0,1,0,.1l-.05,0Zm0-.09s0,0,0,0a.06.06,0,0,0,0,0h0v0s0,0,0,0h0Z"/><path class="cls-2" d="M79.89,554.82a.13.13,0,0,1,0-.1,0,0,0,0,1,0,0s0,0,0,0a.13.13,0,0,1,0,.1l0,0Zm0-.09s0,0,0,0a.06.06,0,0,0,0,0h0a.06.06,0,0,0,0,0s0,0,0,0h0Z"/><path class="cls-3" d="M79.91,612.34h0v.14h0v-.12h0Z"/><path class="cls-4" d="M79.91,630h0v.14h0V630h0Z"/><path class="cls-5" d="M79.89,647.74a.13.13,0,0,1,0-.1l0,0,0,0a.13.13,0,0,1,0,.1s0,0,0,0A0,0,0,0,1,79.89,647.74Zm0-.09s0,0,0,0,0,0,0,0h0s0,0,0,0,0,0,0,0h0Z"/><path class="cls-6" d="M79.91,665.26h0v.14h0v-.12h0Z"/><path class="cls-7" d="M79.9,682.87H80v.21h0v-.18h0Z"/><path class="cls-8" d="M79.87,700.69a.15.15,0,0,1,0-.08.19.19,0,0,1,0-.08.07.07,0,0,1,.06,0,.09.09,0,0,1,.07,0,.19.19,0,0,1,0,.08.15.15,0,0,1,0,.08.09.09,0,0,1-.07,0A.07.07,0,0,1,79.87,700.69Zm0-.13a.08.08,0,0,0,0,.05.11.11,0,0,0,0,.06l0,0,0,0a.11.11,0,0,0,0-.06.07.07,0,0,0,0-.05s0,0,0,0S79.9,700.54,79.9,700.56Z"/><path class="cls-9" d="M79.91,718.19h0v.13h0v-.11h0Z"/><path class="cls-10" d="M79.91,735.83h0V736h0v-.11h0Z"/><path class="cls-11" d="M79.89,753.59a.09.09,0,0,1,0-.05.11.11,0,0,1,0-.06l0,0,0,0a.11.11,0,0,1,0,.06.09.09,0,0,1,0,.05l0,0Zm0-.09s0,0,0,0a0,0,0,0,0,0,0l0,0s0,0,0,0a0,0,0,0,0,0,0s0,0,0,0,0,0,0,0Z"/><rect class="cls-12" x="19.78" width="743.64" height="1001.21" rx="23.96"/><text class="cls-13" transform="translate(260.07 152.3)">All You Need.</text><text class="cls-14" transform="translate(101.31 208.03)">Documents, spreadsheets, presentations and <tspan x="53.04" y="30.73">more – all offce essentials have been </tspan><tspan x="23.57" y="61.46">integrated for you to work on that startup </tspan><tspan x="71.69" y="92.18">idea, personal blog or side project. </tspan></text><path class="cls-15" d="M636.29,554.62,506.58,530.86l4.88-26.69c5.48-29.91-16-59-48-64.84l-85.7-15.7c-31.94-5.85-62.39,13.72-67.86,43.63L305,494,175.31,470.19c-7.92-1.45-15.45,3.39-16.81,10.81L113.81,725c-6.68,36.48,19.59,72,58.54,79.09l348.37,63.8c38.95,7.14,76.08-16.73,82.76-53.21l44.69-244C649.53,563.26,644.21,556.07,636.29,554.62Zm-230,139c-3.08,16.81-20.19,27.81-38.14,24.52s-30-19.63-27-36.44l5.59-30.48,65.1,11.93Zm24.84-54.71L337.3,621.76c-7.92-1.45-15.45,3.39-16.81,10.81L316,657c-80.32-32.23-133.58-94.35-130.4-157.12l430.5,78.84c-19.28,59.82-91.09,99-177.62,100.71L443,655c1.36-7.42-4-14.61-11.89-16.06ZM338.6,472.51c2.76-15.09,18.13-25,34.25-22l85.7,15.7c16.12,2.95,27,17.63,24.22,32.73l-4.89,26.69L333.71,499.2l4.89-26.69ZM574.79,809.44c-4,21.66-26,35.84-49.16,31.6l-348.36-63.8c-23.13-4.24-38.73-25.31-34.76-47L172.05,569c8.74,17.63,21,34.68,36.77,50.66,27.24,27.67,62.62,49.9,102.77,65-.89,28.59,20.75,54.74,51.6,60.39s60.37-11.13,69.66-38.18c42.91.08,83.86-8.17,119.15-24.39,20.36-9.37,37.91-21,52.33-34.34Z"/><path class="cls-16" d="M431.09,638.94,337.3,621.76c-7.92-1.45-15.45,3.39-16.81,10.81L316,657c-80.32-32.23-133.58-94.35-130.4-157.12l430.5,78.84c-19.28,59.82-91.09,99-177.62,100.71L443,655c1.36-7.42-4-14.61-11.89-16.06Z"/><path class="cls-17" d="M574.79,809.44c-4,21.66-26,35.84-49.16,31.6l-348.36-63.8c-23.13-4.24-38.73-25.31-34.76-47L172.05,569c8.74,17.63,21,34.68,36.77,50.66,27.24,27.67,62.62,49.9,102.77,65-.89,28.59,20.75,54.74,51.6,60.39s60.37-11.13,69.66-38.18c42.91.08,83.86-8.17,119.15-24.39,20.36-9.37,37.91-21,52.33-34.34Z"/><circle class="cls-18" cx="376.1" cy="674.56" r="112.21"/><path class="cls-15" d="M306.65,570.18a125.37,125.37,0,1,0,173.83,34.93A125.38,125.38,0,0,0,306.65,570.18ZM433.64,761a103.87,103.87,0,1,1,28.93-144A103.87,103.87,0,0,1,433.64,761Z"/><path class="cls-15" d="M428.5,671.8l1.82-8.08-15.77-3.54L419,640.5l-9.17-2.06-4.42,19.68L394,655.56l8-35.5-21.57-4.85-8.46,37.65q-5.71-11.79-20.49-15.1a32.29,32.29,0,0,0-17.6.84,32.7,32.7,0,0,0-15.11,10.75q-6.5,7.89-9.26,20.2-2.7,12,.1,21.92a35.38,35.38,0,0,0,9.55,16.37,32.88,32.88,0,0,0,15.74,8.48q16.65,3.73,27-7.78L359.28,720l19.26,4.32,13.62-60.66,11.41,2.56-9.81,43.67q-2.06,9.17,1.52,15t11.93,7.71a32.41,32.41,0,0,0,7.46.83l1.81-8.09a26.5,26.5,0,0,1-5.91-.76,10.12,10.12,0,0,1-6.68-4.33q-2.08-3.3-.75-9.23l9.59-42.73Zm-71.41,25.41a15,15,0,0,1-13.51,3.27,15.44,15.44,0,0,1-11.08-8.87q-3.42-7.15-1.17-17.15t8.34-15.16A15.42,15.42,0,0,1,353.56,656a15,15,0,0,1,10.8,8.82q3.27,7.11,1,17.25T357.09,697.21Z"/></g></g></svg>