<svg xmlns="http://www.w3.org/2000/svg" xmlns:xlink="http://www.w3.org/1999/xlink" viewBox="0 0 968 958.3"><defs><style>.cls-1,.cls-7{fill:#dffbff;}.cls-1,.cls-16,.cls-2,.cls-9{stroke:#1a1a1a;stroke-miterlimit:10;stroke-width:4px;}.cls-11,.cls-2{fill:#fcffe3;}.cls-3{fill:#e9ffe3;}.cls-4{font-size:40px;font-family:Avenir-Heavy, Avenir;font-weight:800;}.cls-4,.cls-5{fill:#1a1a1a;}.cls-5{font-size:25.61px;font-family:Montserrat-Regular, Montserrat;}.cls-6{isolation:isolate;}.cls-8{clip-path:url(#clip-path);}.cls-9{fill:none;}.cls-10{clip-path:url(#clip-path-2);}.cls-12{clip-path:url(#clip-path-3);}.cls-13{clip-path:url(#clip-path-4);}.cls-14{clip-path:url(#clip-path-5);}.cls-15{clip-path:url(#clip-path-6);}.cls-16{fill:#f3ecff;}</style><clipPath id="clip-path"><path class="cls-1" d="M381.48,656.56l34.26,10.64a6.38,6.38,0,0,1-1.86-.94,8.57,8.57,0,0,1-1.5-1.39,16.54,16.54,0,0,1-1.25-1.7c-.38-.59-.75-1.21-1.11-1.83-.24-.4-.47-.79-.71-1.17s-.46-.75-.7-1.09-.47-.66-.71-1a6.1,6.1,0,0,0-.75-.77c-.3-.25-.61-.49-.93-.71a11.32,11.32,0,0,0-1-.61q-.51-.28-1-.51a10.53,10.53,0,0,0-1.06-.41L368.54,643.8a11.12,11.12,0,0,1,1.09.42c.36.16.71.34,1.06.53s.68.42,1,.65a11.29,11.29,0,0,1,1,.75,6,6,0,0,1,.77.81,11.76,11.76,0,0,1,.73,1c.24.37.48.76.72,1.16s.47.82.72,1.24c.37.65.74,1.31,1.13,1.94a16.11,16.11,0,0,0,1.28,1.8,8.62,8.62,0,0,0,1.54,1.48A6.62,6.62,0,0,0,381.48,656.56Z"/></clipPath><clipPath id="clip-path-2"><path class="cls-1" d="M357.48,681.14,393,690.07l.1,0,.1,0,.1,0,.1,0a12.31,12.31,0,0,0,1.5.21,13.36,13.36,0,0,0,1.55,0,12.16,12.16,0,0,0,1.58-.19,15.34,15.34,0,0,0,1.59-.39,7.83,7.83,0,0,0,1-.43c.35-.17.71-.38,1.08-.6s.74-.48,1.13-.75l1.17-.82c.67-.47,1.34-.94,2-1.38a18.26,18.26,0,0,1,2-1.17,8.74,8.74,0,0,1,2-.72,5.33,5.33,0,0,1,2,0l-34.62-9.49a5.23,5.23,0,0,0-2.12,0,9.16,9.16,0,0,0-2.13.78,18.11,18.11,0,0,0-2.13,1.27c-.71.47-1.41,1-2.11,1.49-.42.3-.83.6-1.24.88s-.79.56-1.18.8-.77.47-1.14.66a6.51,6.51,0,0,1-1.07.46,14.48,14.48,0,0,1-1.66.43,13.42,13.42,0,0,1-1.64.22,12.53,12.53,0,0,1-1.62,0,13.13,13.13,0,0,1-1.55-.21l-.11,0-.1,0-.11,0Z"/></clipPath><clipPath id="clip-path-3"><path class="cls-2" d="M506,703.88l-30.39-8.77c0,.82.08,1.61.17,2.37s.21,1.49.36,2.19a17,17,0,0,0,.56,2,16.84,16.84,0,0,0,.75,1.84l30.37,8.2a16.4,16.4,0,0,1-1.28-3.6,20.58,20.58,0,0,1-.36-2C506.09,705.38,506,704.64,506,703.88Z"/></clipPath><clipPath id="clip-path-4"><path class="cls-2" d="M515.31,681.08l28.18,10a7.36,7.36,0,0,1-2-1.05,12.46,12.46,0,0,1-1.7-1.57,20.5,20.5,0,0,1-1.51-1.89c-.48-.66-1-1.35-1.41-2l-.92-1.33c-.3-.43-.61-.84-.91-1.23s-.61-.75-.92-1.08a7.4,7.4,0,0,0-.94-.86,10.84,10.84,0,0,0-1-.69c-.33-.22-.67-.43-1-.62s-.7-.36-1-.53-.71-.31-1.07-.45l-28.87-10.88c.38.14.76.3,1.13.47s.74.36,1.1.57.72.41,1.07.64.69.48,1,.74a7.66,7.66,0,0,1,1,.92c.33.35.64.74,1,1.15s.63.86,1,1.32l1,1.41c.48.73,1,1.47,1.47,2.18a24.74,24.74,0,0,0,1.58,2,12.13,12.13,0,0,0,1.78,1.67A7.45,7.45,0,0,0,515.31,681.08Z"/></clipPath><clipPath id="clip-path-5"><path class="cls-2" d="M544.33,688.64l.16.06.16,0,.17,0,.16,0-28.07-10.18-.18,0-.17,0-.17,0-.17-.06Z"/></clipPath><clipPath id="clip-path-6"><path class="cls-2" d="M487.41,708.29l29.9,7.93.18,0,.18,0,.18,0,.18,0a16,16,0,0,0,1.84.26,14.82,14.82,0,0,0,1.89.05,17.4,17.4,0,0,0,1.91-.19,16.38,16.38,0,0,0,1.92-.4,8.38,8.38,0,0,0,1.23-.45,14,14,0,0,0,1.28-.65q.66-.37,1.35-.81c.45-.28.91-.59,1.38-.89.79-.51,1.58-1,2.38-1.5a20.71,20.71,0,0,1,2.42-1.26,11,11,0,0,1,2.46-.76,6.73,6.73,0,0,1,2.49,0l.14,0,.13,0,.14,0,.14,0-28.5-8.55-.14,0-.15,0-.14,0-.14,0a7.1,7.1,0,0,0-2.64,0,11.22,11.22,0,0,0-2.6.83,23.69,23.69,0,0,0-2.57,1.37c-.85.52-1.7,1.08-2.53,1.63-.5.33-1,.66-1.48,1s-1,.61-1.42.88-.93.51-1.37.71a10,10,0,0,1-1.3.49,18,18,0,0,1-2,.45,19.73,19.73,0,0,1-2,.2,16.46,16.46,0,0,1-2,0,13.73,13.73,0,0,1-1.94-.28l-.19,0-.19,0-.19,0Z"/></clipPath></defs><g id="Layer_2" data-name="Layer 2"><g id="Layer_1-2" data-name="Layer 1"><rect class="cls-3" width="968" height="958.3" rx="23.96"/><text class="cls-4" transform="translate(276.12 167.84)">Built-In Collaboration.</text><text class="cls-5" transform="translate(145.39 241.57)">With Hyperdrive, managing your websites, wikis, and <tspan x="12.18" y="30.73">fle storage system with your peers is made simple. </tspan><tspan x="13.83" y="61.46">Provide them with access rights, create passwords, </tspan><tspan x="57.97" y="92.18">and you&apos;re set for a secure and collaborative </tspan><tspan x="265.37" y="122.91">experience.</tspan></text><polygon class="cls-1" points="382.18 578.41 415.52 593.81 413.98 593.01 380.59 577.58 382.18 578.41"/><path class="cls-1" d="M382.34,576.35a46,46,0,0,0,6.75-5.84,51,51,0,0,0,5.7-7.15,53.71,53.71,0,0,0,7.41-17.05,47.6,47.6,0,0,0,1.32-12.2,38.26,38.26,0,0,0-1.8-10.84,30.52,30.52,0,0,0-4.54-8.84,24.63,24.63,0,0,0-6.87-6.26l32.23,19.56a24.51,24.51,0,0,1,6.68,6,29.2,29.2,0,0,1,4.46,8.4,35.77,35.77,0,0,1,1.85,10.24,43.36,43.36,0,0,1-1.14,11.47,47.47,47.47,0,0,1-2.76,8.32,48.93,48.93,0,0,1-4.16,7.63,47,47,0,0,1-5.4,6.65,43.3,43.3,0,0,1-6.42,5.41L414,593l-33.39-15.43Z"/><path class="cls-1" d="M356.91,683.54l35.54,8.77a10.62,10.62,0,0,1-1.48-.47,13.22,13.22,0,0,1-1.37-.65,10.5,10.5,0,0,1-1.25-.84,10.84,10.84,0,0,1-1.13-1,10.49,10.49,0,0,1-2.13-3.29A15.43,15.43,0,0,1,384,681.7a27.36,27.36,0,0,1,0-5.35,51.89,51.89,0,0,1,3-12.56,29,29,0,0,1,2.39-4.86,17,17,0,0,1,2.9-3.53,11.43,11.43,0,0,1,5-2.7,11,11,0,0,1,1.6-.3,14.89,14.89,0,0,1,1.64-.06,11.56,11.56,0,0,1,1.65.18l.45.09.44.1.43.12.44.13-34.57-11.47-.44-.14-.46-.12-.45-.11-.46-.08a11.26,11.26,0,0,0-1.72-.17,10.7,10.7,0,0,0-1.7.08,10.82,10.82,0,0,0-1.68.32,12.76,12.76,0,0,0-1.64.57,12.51,12.51,0,0,0-3.57,2.36A18.22,18.22,0,0,0,354.2,648a31.49,31.49,0,0,0-2.55,5.2,53,53,0,0,0-2,6.61,51.07,51.07,0,0,0-1.22,6.79,29,29,0,0,0-.09,5.7,16.52,16.52,0,0,0,1,4.61,11.19,11.19,0,0,0,2.17,3.5,11.57,11.57,0,0,0,1.16,1.07,10.21,10.21,0,0,0,1.29.89,11.2,11.2,0,0,0,3,1.18"/><g class="cls-6"><path class="cls-7" d="M381.48,656.56l34.26,10.64a6.38,6.38,0,0,1-1.86-.94,8.57,8.57,0,0,1-1.5-1.39,16.54,16.54,0,0,1-1.25-1.7c-.38-.59-.75-1.21-1.11-1.83-.24-.4-.47-.79-.71-1.17s-.46-.75-.7-1.09-.47-.66-.71-1a6.1,6.1,0,0,0-.75-.77c-.3-.25-.61-.49-.93-.71a11.32,11.32,0,0,0-1-.61q-.51-.28-1-.51a10.53,10.53,0,0,0-1.06-.41L368.54,643.8a11.12,11.12,0,0,1,1.09.42c.36.16.71.34,1.06.53s.68.42,1,.65a11.29,11.29,0,0,1,1,.75,6,6,0,0,1,.77.81,11.76,11.76,0,0,1,.73,1c.24.37.48.76.72,1.16s.47.82.72,1.24c.37.65.74,1.31,1.13,1.94a16.11,16.11,0,0,0,1.28,1.8,8.62,8.62,0,0,0,1.54,1.48A6.62,6.62,0,0,0,381.48,656.56Z"/><g class="cls-8"><path class="cls-1" d="M381.48,656.56l34.26,10.64a6.38,6.38,0,0,1-1.86-.94,8.57,8.57,0,0,1-1.5-1.39,16.54,16.54,0,0,1-1.25-1.7c-.38-.59-.75-1.21-1.11-1.83-.24-.4-.47-.79-.71-1.17s-.46-.75-.7-1.09-.47-.66-.71-1a6.1,6.1,0,0,0-.75-.77c-.3-.25-.61-.49-.93-.71a11.32,11.32,0,0,0-1-.61q-.51-.28-1-.51a10.53,10.53,0,0,0-1.06-.41L368.54,643.8a11.12,11.12,0,0,1,1.09.42c.36.16.71.34,1.06.53s.68.42,1,.65a11.29,11.29,0,0,1,1,.75,6,6,0,0,1,.77.81,11.76,11.76,0,0,1,.73,1c.24.37.48.76.72,1.16s.47.82.72,1.24c.37.65.74,1.31,1.13,1.94a16.11,16.11,0,0,0,1.28,1.8,8.62,8.62,0,0,0,1.54,1.48,6.62,6.62,0,0,0,1.93,1"/></g><path class="cls-9" d="M381.48,656.56l34.26,10.64a6.38,6.38,0,0,1-1.86-.94,8.57,8.57,0,0,1-1.5-1.39,16.54,16.54,0,0,1-1.25-1.7c-.38-.59-.75-1.21-1.11-1.83-.24-.4-.47-.79-.71-1.17s-.46-.75-.7-1.09-.47-.66-.71-1a6.1,6.1,0,0,0-.75-.77c-.3-.25-.61-.49-.93-.71a11.32,11.32,0,0,0-1-.61q-.51-.28-1-.51a10.53,10.53,0,0,0-1.06-.41L368.54,643.8a11.12,11.12,0,0,1,1.09.42c.36.16.71.34,1.06.53s.68.42,1,.65a11.29,11.29,0,0,1,1,.75,6,6,0,0,1,.77.81,11.76,11.76,0,0,1,.73,1c.24.37.48.76.72,1.16s.47.82.72,1.24c.37.65.74,1.31,1.13,1.94a16.11,16.11,0,0,0,1.28,1.8,8.62,8.62,0,0,0,1.54,1.48A6.62,6.62,0,0,0,381.48,656.56Z"/></g><path class="cls-1" d="M384.55,653.7a5.41,5.41,0,0,0,1.66-2.22,26.62,26.62,0,0,0,1.45-4.2c.49-1.78,1-3.93,1.63-6.53L396.81,609c.18-.76.37-1.53.58-2.29s.42-1.52.65-2.28.47-1.51.72-2.26.51-1.51.79-2.25a43.69,43.69,0,0,0-3-7,37.49,37.49,0,0,0-4-6,33.86,33.86,0,0,0-4.83-4.89,31.16,31.16,0,0,0-5.57-3.67l33.34,15.4a30.07,30.07,0,0,1,5.39,3.52,33.29,33.29,0,0,1,4.7,4.65,37.3,37.3,0,0,1,3.88,5.67,41.68,41.68,0,0,1,2.95,6.58h0c-.25.7-.5,1.4-.73,2.11s-.46,1.41-.67,2.12-.41,1.42-.59,2.13-.37,1.43-.53,2.14l-6.86,29.71c-.57,2.43-1,4.45-1.49,6.11a24.06,24.06,0,0,1-1.35,3.93,5,5,0,0,1-1.57,2.07,3.35,3.35,0,0,1-2.17.51l-34.21-10.8A3.5,3.5,0,0,0,384.55,653.7Z"/><g class="cls-6"><path class="cls-7" d="M357.48,681.14,393,690.07l.1,0,.1,0,.1,0,.1,0a12.31,12.31,0,0,0,1.5.21,13.36,13.36,0,0,0,1.55,0,12.16,12.16,0,0,0,1.58-.19,15.34,15.34,0,0,0,1.59-.39,7.83,7.83,0,0,0,1-.43c.35-.17.71-.38,1.08-.6s.74-.48,1.13-.75l1.17-.82c.67-.47,1.34-.94,2-1.38a18.26,18.26,0,0,1,2-1.17,8.74,8.74,0,0,1,2-.72,5.33,5.33,0,0,1,2,0l-34.62-9.49a5.23,5.23,0,0,0-2.12,0,9.16,9.16,0,0,0-2.13.78,18.11,18.11,0,0,0-2.13,1.27c-.71.47-1.41,1-2.11,1.49-.42.3-.83.6-1.24.88s-.79.56-1.18.8-.77.47-1.14.66a6.51,6.51,0,0,1-1.07.46,14.48,14.48,0,0,1-1.66.43,13.42,13.42,0,0,1-1.64.22,12.53,12.53,0,0,1-1.62,0,13.13,13.13,0,0,1-1.55-.21l-.11,0-.1,0-.11,0Z"/><g class="cls-10"><path class="cls-1" d="M357.48,681.14,393,690.07l.1,0,.1,0,.1,0,.1,0a12.31,12.31,0,0,0,1.5.21,13.36,13.36,0,0,0,1.55,0,12.16,12.16,0,0,0,1.58-.19,15.34,15.34,0,0,0,1.59-.39,7.83,7.83,0,0,0,1-.43c.35-.17.71-.38,1.08-.6s.74-.48,1.13-.75l1.17-.82c.67-.47,1.34-.94,2-1.38a18.26,18.26,0,0,1,2-1.17,8.74,8.74,0,0,1,2-.72,5.33,5.33,0,0,1,2,0l-34.62-9.49a5.23,5.23,0,0,0-2.12,0,9.16,9.16,0,0,0-2.13.78,18.11,18.11,0,0,0-2.13,1.27c-.71.47-1.41,1-2.11,1.49-.42.3-.83.6-1.24.88s-.79.56-1.18.8-.77.47-1.14.66a6.51,6.51,0,0,1-1.07.46,14.48,14.48,0,0,1-1.66.43,13.42,13.42,0,0,1-1.64.22,12.53,12.53,0,0,1-1.62,0,13.13,13.13,0,0,1-1.55-.21l-.11,0-.1,0-.11,0-.1,0"/></g><path class="cls-9" d="M357.48,681.14,393,690.07l.1,0,.1,0,.1,0,.1,0a12.31,12.31,0,0,0,1.5.21,13.36,13.36,0,0,0,1.55,0,12.16,12.16,0,0,0,1.58-.19,15.34,15.34,0,0,0,1.59-.39,7.83,7.83,0,0,0,1-.43c.35-.17.71-.38,1.08-.6s.74-.48,1.13-.75l1.17-.82c.67-.47,1.34-.94,2-1.38a18.26,18.26,0,0,1,2-1.17,8.74,8.74,0,0,1,2-.72,5.33,5.33,0,0,1,2,0l-34.62-9.49a5.23,5.23,0,0,0-2.12,0,9.16,9.16,0,0,0-2.13.78,18.11,18.11,0,0,0-2.13,1.27c-.71.47-1.41,1-2.11,1.49-.42.3-.83.6-1.24.88s-.79.56-1.18.8-.77.47-1.14.66a6.51,6.51,0,0,1-1.07.46,14.48,14.48,0,0,1-1.66.43,13.42,13.42,0,0,1-1.64.22,12.53,12.53,0,0,1-1.62,0,13.13,13.13,0,0,1-1.55-.21l-.11,0-.1,0-.11,0Z"/></g><path class="cls-1" d="M377.16,691.94c.62-2.64,1.13-4.83,1.5-6.65a29.41,29.41,0,0,0,.63-4.41,5.18,5.18,0,0,0-.4-2.62,2.62,2.62,0,0,0-1.59-1.3L412,686.29a2.63,2.63,0,0,1,1.55,1.23,4.87,4.87,0,0,1,.41,2.46,26.78,26.78,0,0,1-.56,4.12c-.33,1.7-.79,3.75-1.36,6.22l-16.25,70.33-36.44-3.39Z"/><path class="cls-1" d="M379.05,504.77a29.91,29.91,0,0,0-12.95,2.39,41.42,41.42,0,0,0-11.81,7.6,51.08,51.08,0,0,0-9.5,11.61,53.66,53.66,0,0,0-6,14.54,49.84,49.84,0,0,0-1.36,8.54,42.58,42.58,0,0,0,.2,8.17,36.37,36.37,0,0,0,1.74,7.56,30.52,30.52,0,0,0,3.29,6.68l1,1.5-1.78.42a40.36,40.36,0,0,0-12.46,5.34,52.82,52.82,0,0,0-10.9,9.34,62.46,62.46,0,0,0-8.65,12.43,66,66,0,0,0-5.66,14.71l-32,126.78,87.11,24.88,17.85-75.32c.62-2.64,1.13-4.83,1.5-6.65a29.41,29.41,0,0,0,.63-4.41,5.18,5.18,0,0,0-.4-2.62,2.62,2.62,0,0,0-1.59-1.3,4.66,4.66,0,0,0-1.86,0,8.24,8.24,0,0,0-1.87.67,15.83,15.83,0,0,0-1.87,1.11c-.62.42-1.24.86-1.86,1.31l-1.3.94c-.44.3-.88.6-1.32.87a14.45,14.45,0,0,1-1.3.75,9.22,9.22,0,0,1-1.28.54,16.58,16.58,0,0,1-1.87.48,15.28,15.28,0,0,1-1.86.24,14,14,0,0,1-1.83,0,14.34,14.34,0,0,1-1.76-.25,12.69,12.69,0,0,1-1.66-.47,11.06,11.06,0,0,1-1.52-.7,10.79,10.79,0,0,1-1.39-.92,13.29,13.29,0,0,1-1.24-1.14,11.19,11.19,0,0,1-2.17-3.5,16.52,16.52,0,0,1-1-4.61,29,29,0,0,1,.09-5.7,51.07,51.07,0,0,1,1.22-6.79,53,53,0,0,1,2-6.61,31.49,31.49,0,0,1,2.55-5.2,18.22,18.22,0,0,1,3.06-3.79,12.51,12.51,0,0,1,3.57-2.36,12.76,12.76,0,0,1,1.64-.57,10.82,10.82,0,0,1,1.68-.32,10.7,10.7,0,0,1,1.7-.08,11.26,11.26,0,0,1,1.72.17,12.78,12.78,0,0,1,1.7.42,12.47,12.47,0,0,1,1.66.66,14.36,14.36,0,0,1,1.57.89,15.86,15.86,0,0,1,1.48,1.11,8.31,8.31,0,0,1,.92,1,12.5,12.5,0,0,1,.85,1.14c.27.41.54.84.8,1.27l.76,1.33c.36.62.71,1.25,1.08,1.85a16.84,16.84,0,0,0,1.15,1.67,7.3,7.3,0,0,0,1.28,1.27,3.45,3.45,0,0,0,1.45.66,3.5,3.5,0,0,0,2.28-.56,5.41,5.41,0,0,0,1.66-2.22,26.62,26.62,0,0,0,1.45-4.2c.49-1.78,1-3.93,1.63-6.53L396.81,609c.18-.76.37-1.53.58-2.29s.42-1.52.65-2.28.47-1.51.72-2.26.51-1.51.79-2.25a43.69,43.69,0,0,0-3-7,37.49,37.49,0,0,0-4-6,33.86,33.86,0,0,0-4.83-4.89,31.16,31.16,0,0,0-5.57-3.67l-1.59-.83,1.75-1.23a46,46,0,0,0,6.75-5.84,51,51,0,0,0,5.7-7.15,53.71,53.71,0,0,0,7.41-17.05,46,46,0,0,0,1.08-15.77,34.31,34.31,0,0,0-4.11-13.07,25.48,25.48,0,0,0-8.38-9A23.67,23.67,0,0,0,379.05,504.77Z"/><path class="cls-1" d="M376.11,691.69c.67-2.8,1.15-4.88,1.5-6.61a29.07,29.07,0,0,0,.61-4.24,4.36,4.36,0,0,0-.28-2.09A1.52,1.52,0,0,0,377,678a3.62,3.62,0,0,0-1.35,0,6.77,6.77,0,0,0-1.61.59,14.74,14.74,0,0,0-1.75,1c-.61.41-1.21.85-1.81,1.29l-1.33,1c-.45.31-.9.62-1.35.9a15.53,15.53,0,0,1-1.4.8,10.45,10.45,0,0,1-1.43.6,15.77,15.77,0,0,1-1.76.47l-.24.05a17.34,17.34,0,0,1-2,.25,16,16,0,0,1-2,0,14.88,14.88,0,0,1-1.91-.27,11.8,11.8,0,0,1-1.81-.52,12,12,0,0,1-1.67-.76,11.31,11.31,0,0,1-1.53-1,11.45,11.45,0,0,1-1.36-1.25,12.06,12.06,0,0,1-2.39-3.83,17.53,17.53,0,0,1-1.1-4.91,31.1,31.1,0,0,1,.09-5.91,54.87,54.87,0,0,1,1.24-6.93,54.05,54.05,0,0,1,2.08-6.75,32.48,32.48,0,0,1,2.64-5.38,19.42,19.42,0,0,1,3.24-4,13.47,13.47,0,0,1,3.88-2.56,13,13,0,0,1,1.78-.62l.74-.18a10.32,10.32,0,0,1,1.09-.18,14.39,14.39,0,0,1,1.86-.09,13.17,13.17,0,0,1,1.87.19,13.47,13.47,0,0,1,1.85.45,14.54,14.54,0,0,1,1.79.72,13.5,13.5,0,0,1,1.7,1,14.39,14.39,0,0,1,1.59,1.2,8.91,8.91,0,0,1,1.05,1.07c.31.38.62.8.91,1.23s.56.87.83,1.32.78,1.34.78,1.34c.34.62.69,1.24,1.06,1.82a16.66,16.66,0,0,0,1.07,1.57,6.1,6.1,0,0,0,1.08,1.08,2.51,2.51,0,0,0,1,.47,3.88,3.88,0,0,0,.72-.07,1.94,1.94,0,0,0,.75-.32,4.4,4.4,0,0,0,1.31-1.79,27.06,27.06,0,0,0,1.39-4c.5-1.83,1.05-4.11,1.61-6.49l7.53-31.74c.18-.77.37-1.54.58-2.32s.43-1.54.66-2.31.47-1.53.73-2.29.44-1.29.67-1.93a41.88,41.88,0,0,0-2.8-6.44,37.77,37.77,0,0,0-3.86-5.83,33.25,33.25,0,0,0-4.68-4.73,30.51,30.51,0,0,0-5.38-3.55l-3.17-1.64,3.2-2.25a45.33,45.33,0,0,0,6.6-5.71,49.53,49.53,0,0,0,5.57-7,52.82,52.82,0,0,0,4.35-8,51.49,51.49,0,0,0,2.91-8.71,44.59,44.59,0,0,0,1.06-15.39,33,33,0,0,0-4-12.67,24.39,24.39,0,0,0-8-8.63A22.67,22.67,0,0,0,379,505.84a27.26,27.26,0,0,0-6.87.56,31.64,31.64,0,0,0-5.62,1.75,40.13,40.13,0,0,0-11.5,7.4,50.08,50.08,0,0,0-9.3,11.37,52.08,52.08,0,0,0-5.91,14.25,48,48,0,0,0-1.34,8.35,42.17,42.17,0,0,0,.19,8,35.3,35.3,0,0,0,1.7,7.33,29.29,29.29,0,0,0,3.16,6.45l1.84,2.79-3.28.77a39,39,0,0,0-12.13,5.2,51.55,51.55,0,0,0-10.68,9.15,61.33,61.33,0,0,0-8.49,12.22,64,64,0,0,0-5.57,14.47L273.49,741.63l85,24.29Z"/><path class="cls-2" d="M503.94,559.54a60.2,60.2,0,0,0,9.09-7.47,62.12,62.12,0,0,0,7.55-9.11,63.16,63.16,0,0,0,5.74-10.37A60.94,60.94,0,0,0,530,521.35a54.07,54.07,0,0,0,1.27-12.75A46.28,46.28,0,0,0,529.5,497a40.12,40.12,0,0,0-4.39-10,37.49,37.49,0,0,0-3.07-4.26,35.46,35.46,0,0,0-3.62-3.73h0l26.33,23.37a34.84,34.84,0,0,1,6.42,7.6,38.14,38.14,0,0,1,4.24,9.45,42.83,42.83,0,0,1,1.73,10.9,49.28,49.28,0,0,1-1.09,11.92,55.1,55.1,0,0,1-3.37,10.47,56.81,56.81,0,0,1-5.34,9.62,57.69,57.69,0,0,1-7.09,8.42,56.1,56.1,0,0,1-8.56,6.88l-1.94,1.25-27.86-18Z"/><g class="cls-6"><path class="cls-11" d="M506,703.88l-30.39-8.77c0,.82.08,1.61.17,2.37s.21,1.49.36,2.19a17,17,0,0,0,.56,2,16.84,16.84,0,0,0,.75,1.84l30.37,8.2a16.4,16.4,0,0,1-1.28-3.6,20.58,20.58,0,0,1-.36-2C506.09,705.38,506,704.64,506,703.88Z"/><g class="cls-12"><g class="cls-6"><path class="cls-2" d="M486.84,711l29.95,7.73a16.45,16.45,0,0,1-1.76-.57,15.24,15.24,0,0,1-1.64-.75,14.73,14.73,0,0,1-1.51-.95,14.9,14.9,0,0,1-1.38-1.14,12.63,12.63,0,0,1-2.75-3.72,16.86,16.86,0,0,1-1.48-4.86,27.54,27.54,0,0,1-.23-6,46.85,46.85,0,0,1,1-7.07,47.86,47.86,0,0,1,2-6.88,27.43,27.43,0,0,1,2.67-5.37,17.56,17.56,0,0,1,3.35-3.88,13.41,13.41,0,0,1,4-2.37,15.69,15.69,0,0,1,1.89-.55,14.1,14.1,0,0,1,2-.29,14.48,14.48,0,0,1,2,0,15.77,15.77,0,0,1,2,.23l.8.16.79.2.79.24.78.28-28.78-11.06c-.27-.11-.55-.2-.82-.3l-.83-.25-.84-.21-.84-.16a15.72,15.72,0,0,0-2.14-.23,16.17,16.17,0,0,0-2.09,0,15.65,15.65,0,0,0-2,.34,16,16,0,0,0-2,.6,14.38,14.38,0,0,0-4.27,2.58,19.26,19.26,0,0,0-3.57,4.19,31.56,31.56,0,0,0-2.87,5.79,52.1,52.1,0,0,0-2.16,7.39,51.23,51.23,0,0,0-1.15,7.61,30.51,30.51,0,0,0,.18,6.42,18,18,0,0,0,1.51,5.21,13.42,13.42,0,0,0,2.85,4,16.6,16.6,0,0,0,1.45,1.21,16.42,16.42,0,0,0,1.59,1,15.9,15.9,0,0,0,1.72.8,17.4,17.4,0,0,0,1.85.6"/></g></g><path class="cls-9" d="M506,703.88l-30.39-8.77c0,.82.08,1.61.17,2.37s.21,1.49.36,2.19a17,17,0,0,0,.56,2,16.84,16.84,0,0,0,.75,1.84l30.37,8.2a16.4,16.4,0,0,1-1.28-3.6,20.58,20.58,0,0,1-.36-2C506.09,705.38,506,704.64,506,703.88Z"/></g><path class="cls-2" d="M475.87,698.17a26.63,26.63,0,0,1-.26-3.06h0c0-.71,0-1.45,0-2.21a2.43,2.43,0,0,1,0-.27c0-.1,0-.2,0-.3l0-.57c0-.59.09-1.18.16-1.79h0c.09-.81.22-1.66.36-2.51,0-.11,0-.21,0-.32s.05-.22.07-.33c.15-.87.32-1.75.52-2.66s.42-1.77.64-2.62c0-.11.06-.23.08-.33s.07-.21.1-.31c.23-.83.47-1.64.73-2.42h0c.2-.58.4-1.15.61-1.7.07-.18.15-.35.22-.53a2.15,2.15,0,0,1,.1-.27c0-.09.08-.17.11-.26.29-.7.59-1.38.91-2v0h0c.32-.66.67-1.27,1-1.87l.12-.23a2.14,2.14,0,0,0,.13-.19c.09-.13.16-.28.25-.41.28-.43.56-.84.86-1.24l0,0,.08-.09c.36-.48.73-.92,1.12-1.35l.15-.19.14-.13a16.36,16.36,0,0,1,1.2-1.16l.08-.06,0-.05.51-.39.42-.33.05,0c.18-.13.38-.24.57-.37l.41-.27,0,0c.22-.13.45-.25.67-.36s.24-.14.37-.2h0c.36-.17.73-.33,1.1-.48a16,16,0,0,1,2-.6,15.65,15.65,0,0,1,2-.34,16.17,16.17,0,0,1,2.09,0,15.72,15.72,0,0,1,2.14.23l.84.16.06,0,.78.19.67.21.16,0h0c.27.1.55.19.82.3l28.78,11.06h0l-.78-.28-.78-.24-.8-.2-.8-.16a15.77,15.77,0,0,0-2-.23,14.48,14.48,0,0,0-2,0,14.1,14.1,0,0,0-2,.29,15.69,15.69,0,0,0-1.89.55c-.36.13-.71.28-1.06.44l-.34.18c-.22.12-.45.23-.67.36l-.39.25c-.2.12-.39.24-.58.38s-.27.2-.4.3l-.52.4a16,16,0,0,0-1.2,1.14,3.83,3.83,0,0,0-.28.29c-.36.39-.71.8-1,1.25l-.09.11c-.36.48-.7,1-1,1.53l-.24.39c-.33.55-.65,1.12-1,1.73v0c-.3.59-.57,1.22-.84,1.87-.07.16-.14.33-.2.49-.27.67-.53,1.35-.77,2.07v0c-.24.71-.46,1.47-.67,2.24-.06.2-.11.39-.16.59-.21.79-.41,1.6-.59,2.45s-.33,1.66-.47,2.47c0,.2-.07.4-.1.6-.12.8-.23,1.58-.31,2.34s-.13,1.48-.16,2.2c0,.18,0,.35,0,.53,0,.7,0,1.4,0,2.06a25.07,25.07,0,0,0,.27,2.85,16.86,16.86,0,0,0,1.48,4.86c.11.22.24.44.36.65s.15.29.24.43.25.39.39.58.16.25.25.37.32.4.48.6l.23.28a10.21,10.21,0,0,0,.8.81,14.9,14.9,0,0,0,1.38,1.14,13.1,13.1,0,0,0,1.51.94,13.57,13.57,0,0,0,1.64.76c.29.11.6.19.91.29s.56.2.85.28h0l-12.35-3.19L486.84,711h0l-.59-.19c-.42-.13-.86-.25-1.26-.41h0c-.44-.17-.86-.39-1.28-.6l-.44-.2h0a12.78,12.78,0,0,1-1.45-.93l-.14-.08h0a16.6,16.6,0,0,1-1.45-1.21c-.28-.28-.55-.56-.81-.85v0c-.09-.1-.17-.21-.25-.31s-.33-.39-.48-.6l0,0-.26-.4c-.13-.19-.26-.37-.37-.56l0-.06c-.09-.15-.17-.31-.25-.47s-.21-.35-.3-.54h0a1.09,1.09,0,0,1-.08-.15A18,18,0,0,1,475.87,698.17Z"/><g class="cls-6"><path class="cls-11" d="M515.31,681.08l28.18,10a7.36,7.36,0,0,1-2-1.05,12.46,12.46,0,0,1-1.7-1.57,20.5,20.5,0,0,1-1.51-1.89c-.48-.66-1-1.35-1.41-2l-.92-1.33c-.3-.43-.61-.84-.91-1.23s-.61-.75-.92-1.08a7.4,7.4,0,0,0-.94-.86,10.84,10.84,0,0,0-1-.69c-.33-.22-.67-.43-1-.62s-.7-.36-1-.53-.71-.31-1.07-.45l-28.87-10.88c.38.14.76.3,1.13.47s.74.36,1.1.57.72.41,1.07.64.69.48,1,.74a7.66,7.66,0,0,1,1,.92c.33.35.64.74,1,1.15s.63.86,1,1.32l1,1.41c.48.73,1,1.47,1.47,2.18a24.74,24.74,0,0,0,1.58,2,12.13,12.13,0,0,0,1.78,1.67A7.45,7.45,0,0,0,515.31,681.08Z"/><g class="cls-13"><path class="cls-2" d="M515.31,681.08l28.18,10a7.36,7.36,0,0,1-2-1.05,12.46,12.46,0,0,1-1.7-1.57,20.5,20.5,0,0,1-1.51-1.89c-.48-.66-1-1.35-1.41-2l-.92-1.33c-.3-.43-.61-.84-.91-1.23s-.61-.75-.92-1.08a7.4,7.4,0,0,0-.94-.86,10.84,10.84,0,0,0-1-.69c-.33-.22-.67-.43-1-.62s-.7-.36-1-.53-.71-.31-1.07-.45l-28.87-10.88c.38.14.76.3,1.13.47s.74.36,1.1.57.72.41,1.07.64.69.48,1,.74a7.66,7.66,0,0,1,1,.92c.33.35.64.74,1,1.15s.63.86,1,1.32l1,1.41c.48.73,1,1.47,1.47,2.18a24.74,24.74,0,0,0,1.58,2,12.13,12.13,0,0,0,1.78,1.67,7.45,7.45,0,0,0,2,1.12"/></g><path class="cls-9" d="M515.31,681.08l28.18,10a7.36,7.36,0,0,1-2-1.05,12.46,12.46,0,0,1-1.7-1.57,20.5,20.5,0,0,1-1.51-1.89c-.48-.66-1-1.35-1.41-2l-.92-1.33c-.3-.43-.61-.84-.91-1.23s-.61-.75-.92-1.08a7.4,7.4,0,0,0-.94-.86,10.84,10.84,0,0,0-1-.69c-.33-.22-.67-.43-1-.62s-.7-.36-1-.53-.71-.31-1.07-.45l-28.87-10.88c.38.14.76.3,1.13.47s.74.36,1.1.57.72.41,1.07.64.69.48,1,.74a7.66,7.66,0,0,1,1,.92c.33.35.64.74,1,1.15s.63.86,1,1.32l1,1.41c.48.73,1,1.47,1.47,2.18a24.74,24.74,0,0,0,1.58,2,12.13,12.13,0,0,0,1.78,1.67A7.45,7.45,0,0,0,515.31,681.08Z"/></g><g class="cls-6"><path class="cls-11" d="M544.33,688.64l.16.06.16,0,.17,0,.16,0-28.07-10.18-.18,0-.17,0-.17,0-.17-.06Z"/><g class="cls-14"><g class="cls-6"><path class="cls-2" d="M516.22,678.45l28.11,10.19.16.06.16,0,.17,0,.16,0-28.07-10.18-.18,0-.17,0-.17,0-.17-.06"/></g></g><path class="cls-9" d="M544.33,688.64l.16.06.16,0,.17,0,.16,0-28.07-10.18-.18,0-.17,0-.17,0-.17-.06Z"/></g><path class="cls-2" d="M519.69,678.05a5.73,5.73,0,0,0,1.95-2.46,26.92,26.92,0,0,0,1.57-4.72c.52-2,1-4.4,1.67-7.32L532.49,628a70.51,70.51,0,0,0,1.45-19.21,63.1,63.1,0,0,0-3.64-17.62,55.27,55.27,0,0,0-8.11-14.85,48.4,48.4,0,0,0-11.94-11l2.93,1.9,1.45.94.53.34,2.09,1.35.25.16.07.05,1.3.84,1.45.94,1,.66.66.44,2.48,1.6.4.26,3.19,2.07.48.3,2.66,1.73,1.28.83,2.23,1.44.42.27,2.57,1.67a47,47,0,0,1,11.41,10.47,52.25,52.25,0,0,1,7.8,14,59.14,59.14,0,0,1,3.59,16.47,64.85,64.85,0,0,1-1.22,17.88l-6.91,33.06c-.56,2.71-1,4.95-1.51,6.8a24.65,24.65,0,0,1-1.45,4.37,5.21,5.21,0,0,1-1.82,2.27,4.18,4.18,0,0,1-2.63.53l-28.07-10.18A4.43,4.43,0,0,0,519.69,678.05Z"/><g class="cls-6"><path class="cls-11" d="M487.41,708.29l29.9,7.93.18,0,.18,0,.18,0,.18,0a16,16,0,0,0,1.84.26,14.82,14.82,0,0,0,1.89.05,17.4,17.4,0,0,0,1.91-.19,16.38,16.38,0,0,0,1.92-.4,8.38,8.38,0,0,0,1.23-.45,14,14,0,0,0,1.28-.65q.66-.37,1.35-.81c.45-.28.91-.59,1.38-.89.79-.51,1.58-1,2.38-1.5a20.71,20.71,0,0,1,2.42-1.26,11,11,0,0,1,2.46-.76,6.73,6.73,0,0,1,2.49,0l.14,0,.13,0,.14,0,.14,0-28.5-8.55-.14,0-.15,0-.14,0-.14,0a7.1,7.1,0,0,0-2.64,0,11.22,11.22,0,0,0-2.6.83,23.69,23.69,0,0,0-2.57,1.37c-.85.52-1.7,1.08-2.53,1.63-.5.33-1,.66-1.48,1s-1,.61-1.42.88-.93.51-1.37.71a10,10,0,0,1-1.3.49,18,18,0,0,1-2,.45,19.73,19.73,0,0,1-2,.2,16.46,16.46,0,0,1-2,0,13.73,13.73,0,0,1-1.94-.28l-.19,0-.19,0-.19,0Z"/><g class="cls-15"><path class="cls-2" d="M487.41,708.29l29.9,7.93.18,0,.18,0,.18,0,.18,0a16,16,0,0,0,1.84.26,14.82,14.82,0,0,0,1.89.05,17.4,17.4,0,0,0,1.91-.19,16.38,16.38,0,0,0,1.92-.4,8.38,8.38,0,0,0,1.23-.45,14,14,0,0,0,1.28-.65q.66-.37,1.35-.81c.45-.28.91-.59,1.38-.89.79-.51,1.58-1,2.38-1.5a20.71,20.71,0,0,1,2.42-1.26,11,11,0,0,1,2.46-.76,6.73,6.73,0,0,1,2.49,0l.14,0,.13,0,.14,0,.14,0-28.5-8.55-.14,0-.15,0-.14,0-.14,0a7.1,7.1,0,0,0-2.64,0,11.22,11.22,0,0,0-2.6.83,23.69,23.69,0,0,0-2.57,1.37c-.85.52-1.7,1.08-2.53,1.63-.5.33-1,.66-1.48,1s-1,.61-1.42.88-.93.51-1.37.71a10,10,0,0,1-1.3.49,18,18,0,0,1-2,.45,19.73,19.73,0,0,1-2,.2,16.46,16.46,0,0,1-2,0,13.73,13.73,0,0,1-1.94-.28l-.19,0-.19,0-.19,0-.19-.05"/></g><path class="cls-9" d="M487.41,708.29l29.9,7.93.18,0,.18,0,.18,0,.18,0a16,16,0,0,0,1.84.26,14.82,14.82,0,0,0,1.89.05,17.4,17.4,0,0,0,1.91-.19,16.38,16.38,0,0,0,1.92-.4,8.38,8.38,0,0,0,1.23-.45,14,14,0,0,0,1.28-.65q.66-.37,1.35-.81c.45-.28.91-.59,1.38-.89.79-.51,1.58-1,2.38-1.5a20.71,20.71,0,0,1,2.42-1.26,11,11,0,0,1,2.46-.76,6.73,6.73,0,0,1,2.49,0l.14,0,.13,0,.14,0,.14,0-28.5-8.55-.14,0-.15,0-.14,0-.14,0a7.1,7.1,0,0,0-2.64,0,11.22,11.22,0,0,0-2.6.83,23.69,23.69,0,0,0-2.57,1.37c-.85.52-1.7,1.08-2.53,1.63-.5.33-1,.66-1.48,1s-1,.61-1.42.88-.93.51-1.37.71a10,10,0,0,1-1.3.49,18,18,0,0,1-2,.45,19.73,19.73,0,0,1-2,.2,16.46,16.46,0,0,1-2,0,13.73,13.73,0,0,1-1.94-.28l-.19,0-.19,0-.19,0Z"/></g><path class="cls-2" d="M495.38,470.26a45,45,0,0,0-17.72,3.43,56.69,56.69,0,0,0-15.78,9.8,63.46,63.46,0,0,0-12.38,14.65A61.39,61.39,0,0,0,442,516.3a55.71,55.71,0,0,0-1.44,10.61,48.3,48.3,0,0,0,.69,10.13,42.09,42.09,0,0,0,2.76,9.35,37.91,37.91,0,0,0,4.84,8.26l1.22,1.6-2.07.47a56.59,56.59,0,0,0-16.75,6.87,67.78,67.78,0,0,0-14.36,11.78,75.72,75.72,0,0,0-18.11,33.92l-7.52,31.79c-.61,2.56-1.14,4.83-1.69,6.8a31,31,0,0,1-1.75,5,7.85,7.85,0,0,1-2.27,3,4.88,4.88,0,0,1-3.23.9,6.44,6.44,0,0,1-2.27-.85,7.7,7.7,0,0,1-1.77-1.5,13.77,13.77,0,0,1-1.43-1.93c-.44-.68-.85-1.4-1.25-2.12-.25-.42-.49-.84-.72-1.24s-.48-.79-.72-1.16a11.76,11.76,0,0,0-.73-1,6,6,0,0,0-.77-.81,12.38,12.38,0,0,0-1.3-1,12.87,12.87,0,0,0-1.4-.79,10.82,10.82,0,0,0-1.46-.58,11.36,11.36,0,0,0-1.5-.38,12.75,12.75,0,0,0-1.49-.15,11.8,11.8,0,0,0-1.46.06,12.14,12.14,0,0,0-1.44.27,11.24,11.24,0,0,0-1.41.49,10.38,10.38,0,0,0-3,2,16.31,16.31,0,0,0-2.64,3.37,28.37,28.37,0,0,0-2.23,4.68,50.21,50.21,0,0,0-1.82,6,50.82,50.82,0,0,0-1.12,6.12,28,28,0,0,0-.13,5.11,15,15,0,0,0,.84,4.06,9,9,0,0,0,1.84,3,9.67,9.67,0,0,0,1.06,1,10.23,10.23,0,0,0,1.19.79,9.86,9.86,0,0,0,1.32.6,10.33,10.33,0,0,0,1.43.41,13.13,13.13,0,0,0,1.55.21,12.53,12.53,0,0,0,1.62,0,13.42,13.42,0,0,0,1.64-.22,14.48,14.48,0,0,0,1.66-.43,6.51,6.51,0,0,0,1.07-.46q.56-.29,1.14-.66c.39-.24.78-.51,1.18-.8s.82-.58,1.24-.88c.7-.51,1.4-1,2.11-1.49a18.11,18.11,0,0,1,2.13-1.27,9.16,9.16,0,0,1,2.13-.78,5.23,5.23,0,0,1,2.12,0,5.29,5.29,0,0,1,2.89,2.12,6.94,6.94,0,0,1,.89,3.65,26.86,26.86,0,0,1-.6,5.25c-.38,2-.93,4.33-1.55,6.93l-17.85,75.46,133.18,38,18.14-84.81c.63-3,1.15-5.43,1.5-7.48a30.92,30.92,0,0,0,.55-5,5.6,5.6,0,0,0-.64-3,3.5,3.5,0,0,0-2.05-1.51,6.14,6.14,0,0,0-2.3,0,10,10,0,0,0-2.28.71,19.74,19.74,0,0,0-2.26,1.2c-.75.46-1.49,1-2.22,1.44l-1.57,1c-.53.33-1.05.66-1.58,1s-1.05.57-1.58.81a10.89,10.89,0,0,1-1.56.57,20.35,20.35,0,0,1-2.29.5,19.75,19.75,0,0,1-2.28.22,18.9,18.9,0,0,1-2.26,0,17.34,17.34,0,0,1-2.18-.32,15.14,15.14,0,0,1-2.08-.58,15,15,0,0,1-1.92-.82,14.29,14.29,0,0,1-1.76-1.08,14.09,14.09,0,0,1-1.6-1.31,13.42,13.42,0,0,1-2.85-4,18,18,0,0,1-1.51-5.21,30.51,30.51,0,0,1-.18-6.42,51.23,51.23,0,0,1,1.15-7.61,52.1,52.1,0,0,1,2.16-7.39,31.56,31.56,0,0,1,2.87-5.79,19.26,19.26,0,0,1,3.57-4.19,14.38,14.38,0,0,1,4.27-2.58,16,16,0,0,1,2-.6,15.65,15.65,0,0,1,2-.34,16.17,16.17,0,0,1,2.09,0,17,17,0,0,1,4.27.74,18,18,0,0,1,2.08.77,19.33,19.33,0,0,1,3.88,2.33,8.55,8.55,0,0,1,1.19,1.08,15.78,15.78,0,0,1,1.11,1.3c.36.47.71,1,1.05,1.45s.68,1,1,1.51c.47.71,1,1.42,1.44,2.11a19.76,19.76,0,0,0,1.52,1.9,9.68,9.68,0,0,0,1.65,1.47,4.88,4.88,0,0,0,1.84.78,4.43,4.43,0,0,0,2.78-.59,5.73,5.73,0,0,0,1.95-2.46,26.92,26.92,0,0,0,1.57-4.72c.52-2,1-4.4,1.67-7.32L532.49,628a70.14,70.14,0,0,0,1.29-21.28,62,62,0,0,0-4.92-19.14,53.07,53.07,0,0,0-10.27-15.43,46.87,46.87,0,0,0-14.73-10.33l-2-.87,2.06-1.37a60.62,60.62,0,0,0,9.08-7.47,62.12,62.12,0,0,0,7.55-9.11,63.16,63.16,0,0,0,5.74-10.37A60.94,60.94,0,0,0,530,521.35a51.48,51.48,0,0,0,.58-19.81A40.57,40.57,0,0,0,524,485.33a34.54,34.54,0,0,0-12.18-10.91A36.06,36.06,0,0,0,495.38,470.26Z"/><path class="cls-2" d="M511.54,720.83c.67-3.16,1.16-5.5,1.49-7.44a28.9,28.9,0,0,0,.54-4.78,4.74,4.74,0,0,0-.49-2.42,2.47,2.47,0,0,0-1.47-1,4.83,4.83,0,0,0-1.78,0l-.26.05a8.47,8.47,0,0,0-1.77.58,20,20,0,0,0-2.13,1.14c-.74.45-1.46.93-2.19,1.41s-1.08.71-1.59,1-1.08.68-1.62,1-1.11.61-1.67.86a11.62,11.62,0,0,1-1.71.63c-.45.12-.9.23-1.36.33s-.7.14-1,.19a20.06,20.06,0,0,1-2.41.24,21.13,21.13,0,0,1-2.39-.06,19.34,19.34,0,0,1-2.32-.34,18,18,0,0,1-2.21-.62,15.62,15.62,0,0,1-2-.88,14.42,14.42,0,0,1-1.89-1.15,14.74,14.74,0,0,1-1.72-1.42,14.42,14.42,0,0,1-3.08-4.3,19.46,19.46,0,0,1-1.61-5.52,31.28,31.28,0,0,1-.18-6.64,53.37,53.37,0,0,1,1.17-7.77,52.5,52.5,0,0,1,2.21-7.54,32.15,32.15,0,0,1,3-6,20.36,20.36,0,0,1,3.77-4.42,15.3,15.3,0,0,1,4.59-2.77,18.15,18.15,0,0,1,2.14-.65l.37-.08a16.17,16.17,0,0,1,1.83-.28,18.57,18.57,0,0,1,2.24,0,17.84,17.84,0,0,1,4.53.78,18.27,18.27,0,0,1,2.2.82,19.22,19.22,0,0,1,2.11,1.1,20.6,20.6,0,0,1,2,1.35,11.05,11.05,0,0,1,1.31,1.2,14.47,14.47,0,0,1,1.18,1.39c.37.47.73,1,1.09,1.49l1,1.44c.53.78,1,1.49,1.48,2.16a21.18,21.18,0,0,0,1.44,1.81,8.38,8.38,0,0,0,1.46,1.3,4,4,0,0,0,1.43.61,4.23,4.23,0,0,0,1.12-.08,2.59,2.59,0,0,0,.89-.35,4.81,4.81,0,0,0,1.56-2,25.84,25.84,0,0,0,1.5-4.52c.49-1.86,1-4.08,1.66-7.28l7.61-35.59a69,69,0,0,0,1.27-20.94A60.6,60.6,0,0,0,527.87,588a51.59,51.59,0,0,0-10-15.12,45.46,45.46,0,0,0-14.39-10.1l-3.77-1.65,3.69-2.46a59.18,59.18,0,0,0,8.92-7.34,61.84,61.84,0,0,0,13.06-19.15,59.5,59.5,0,0,0,3.58-11,50.14,50.14,0,0,0,.57-19.39,39.39,39.39,0,0,0-6.33-15.79,33.61,33.61,0,0,0-11.81-10.58,35,35,0,0,0-16-4,42.51,42.51,0,0,0-9.27.89,47.07,47.07,0,0,0-8,2.46,55.28,55.28,0,0,0-15.49,9.63,62,62,0,0,0-12.17,14.4A60.52,60.52,0,0,0,443,516.55a54.65,54.65,0,0,0-1.4,10.4,47.65,47.65,0,0,0,.66,9.91A41.39,41.39,0,0,0,445,546a36.69,36.69,0,0,0,4.7,8l2.25,2.93-3.72.84a55.4,55.4,0,0,0-16.42,6.74,66.63,66.63,0,0,0-14.13,11.59,74.7,74.7,0,0,0-17.85,33.43l-7.53,31.8c-.58,2.48-1.14,4.83-1.7,6.84a32.07,32.07,0,0,1-1.81,5.15,8.91,8.91,0,0,1-2.6,3.4,5.6,5.6,0,0,1-2.21,1,6.8,6.8,0,0,1-1.71.12,7.54,7.54,0,0,1-2.78-1,9,9,0,0,1-2-1.7,15.68,15.68,0,0,1-1.54-2.07c-.45-.7-.87-1.44-1.28-2.17-.24-.41-.47-.83-.71-1.23s-.45-.76-.68-1.1a10.14,10.14,0,0,0-.67-.93A5.2,5.2,0,0,0,372,647a11.26,11.26,0,0,0-1.19-.9,11.46,11.46,0,0,0-1.27-.72,9.45,9.45,0,0,0-1.33-.53,9,9,0,0,0-1.36-.34,10.36,10.36,0,0,0-1.33-.14,9.5,9.5,0,0,0-1.31.06,7.82,7.82,0,0,0-.8.13l-.48.11a9.11,9.11,0,0,0-1.27.44,9.34,9.34,0,0,0-2.72,1.84,15.18,15.18,0,0,0-2.46,3.15,27.78,27.78,0,0,0-2.15,4.5,48.66,48.66,0,0,0-1.77,5.85,48.07,48.07,0,0,0-1.1,6,26.62,26.62,0,0,0-.13,4.9,13.5,13.5,0,0,0,.78,3.77,7.92,7.92,0,0,0,1.61,2.66,7.76,7.76,0,0,0,.95.86,8.22,8.22,0,0,0,1,.7,8.87,8.87,0,0,0,1.17.53,8.95,8.95,0,0,0,2.68.55,12,12,0,0,0,1.47,0,13.48,13.48,0,0,0,1.52-.2l.14,0a14.28,14.28,0,0,0,1.39-.37,6.53,6.53,0,0,0,.91-.39c.34-.18.69-.39,1.05-.61l1.15-.77,1.18-.86c.76-.55,1.47-1.06,2.18-1.53a19.67,19.67,0,0,1,2.25-1.34,10.21,10.21,0,0,1,2.38-.87h0a6.28,6.28,0,0,1,2.55,0h.06l.07,0a6.21,6.21,0,0,1,3.46,2.56,7.93,7.93,0,0,1,1,4.2,28.25,28.25,0,0,1-.61,5.47c-.4,2.06-1,4.45-1.56,7l-17.62,74.46,131.1,37.44Z"/><path class="cls-2" d="M512.59,721.05c.63-3,1.15-5.43,1.5-7.48a30.92,30.92,0,0,0,.55-5,5.6,5.6,0,0,0-.64-3,3.5,3.5,0,0,0-2.05-1.51l28.56,8.35a3.46,3.46,0,0,1,2,1.41,5.34,5.34,0,0,1,.62,2.77,26.27,26.27,0,0,1-.47,4.6c-.32,1.9-.79,4.18-1.36,6.94l-16.41,78.54-30.39-.88Z"/><path class="cls-16" d="M628.6,604.14a56.63,56.63,0,0,0,16.83-15.62,54.77,54.77,0,0,0,5.61-9.91,52.62,52.62,0,0,0,3.38-10.84,48.79,48.79,0,0,0,.9-10.72,43.89,43.89,0,0,0-1.44-10,41.87,41.87,0,0,0-3.53-9c-.38-.7-.77-1.39-1.19-2.07-.54-.89-1.13-1.74-1.73-2.58-.78-1.07-1.6-2.12-2.48-3.11h0q9.74,11,19.48,21.94a38.63,38.63,0,0,1,5.09,7.28,39.42,39.42,0,0,1,3.35,8.43,40.81,40.81,0,0,1,1.4,9.33,44.48,44.48,0,0,1-.79,9.93,47.2,47.2,0,0,1-3.1,10,49.73,49.73,0,0,1-5.18,9.14,51.73,51.73,0,0,1-15.66,14.29l-2.27,1.34-21.1-16.34Z"/><path class="cls-16" d="M616,516.71a49,49,0,0,0-18.53,2.72,55.41,55.41,0,0,0-16.26,9,57.07,57.07,0,0,0-12.47,13.9,53.14,53.14,0,0,0-7.17,17.5,48.86,48.86,0,0,0-1.08,10.32,44.63,44.63,0,0,0,1.14,9.92,41.44,41.44,0,0,0,3.3,9.23,40.41,40.41,0,0,0,5.44,8.22l1.58,1.86-2.52.46a56.07,56.07,0,0,0-9.12,2.44,60.31,60.31,0,0,0-8.65,3.9,63,63,0,0,0-8,5.24,63.85,63.85,0,0,0-7.21,6.47c-.07.87-.15,1.74-.24,2.6s-.21,1.74-.33,2.61-.26,1.73-.42,2.59-.32,1.72-.5,2.57L527.33,664c-.61,2.87-1.16,5.43-1.73,7.64a31.78,31.78,0,0,1-1.9,5.57,8.2,8.2,0,0,1-2.65,3.33,6.15,6.15,0,0,1-4,1l-.19,0-.19,0-.2,0-.18,0a7,7,0,0,1-2.42-1,10.24,10.24,0,0,1-2-1.7,20.29,20.29,0,0,1-1.79-2.19c-.57-.79-1.11-1.6-1.64-2.42l-1-1.41c-.32-.46-.63-.9-1-1.32s-.63-.8-1-1.15a7.66,7.66,0,0,0-1-.92,15.27,15.27,0,0,0-1.66-1.14,18.61,18.61,0,0,0-1.77-.92,15.08,15.08,0,0,0-1.84-.69,15.56,15.56,0,0,0-1.88-.45,12.93,12.93,0,0,0-1.84-.2,13.64,13.64,0,0,0-1.81,0,13.15,13.15,0,0,0-1.76.28,12.94,12.94,0,0,0-1.71.52,11.92,11.92,0,0,0-3.65,2.24,17.07,17.07,0,0,0-3.08,3.73,28.39,28.39,0,0,0-2.5,5.21,51,51,0,0,0-1.93,6.68,49.14,49.14,0,0,0-1.06,6.87,28.47,28.47,0,0,0,.09,5.74,16.21,16.21,0,0,0,1.26,4.6,11,11,0,0,0,2.42,3.44,13,13,0,0,0,1.36,1.12,12.28,12.28,0,0,0,1.52.92,12.81,12.81,0,0,0,1.65.71,14.24,14.24,0,0,0,1.79.49,13.73,13.73,0,0,0,1.94.28,16.46,16.46,0,0,0,2,0,19.73,19.73,0,0,0,2-.2,18,18,0,0,0,2-.45,10,10,0,0,0,1.3-.49c.44-.2.9-.45,1.37-.71s.94-.57,1.42-.88,1-.64,1.48-1c.83-.55,1.68-1.11,2.53-1.63a23.69,23.69,0,0,1,2.57-1.37,11.22,11.22,0,0,1,2.6-.83,7.1,7.1,0,0,1,2.64,0l.18,0,.19.05.19,0,.18.06a5.87,5.87,0,0,1,3.26,2.34,7.85,7.85,0,0,1,1.08,4.08,31.33,31.33,0,0,1-.54,5.9c-.39,2.28-.94,4.87-1.57,7.8l-18.13,85,131.55,37.57L661.33,672a62.55,62.55,0,0,0,.51-20.66,60,60,0,0,0-5.93-18.8,57,57,0,0,0-11.4-15.36,54.2,54.2,0,0,0-15.91-10.56l-2.43-1.06,2.43-1.46a56.63,56.63,0,0,0,16.83-15.62,54.77,54.77,0,0,0,5.61-9.91,52.62,52.62,0,0,0,3.38-10.84,46.47,46.47,0,0,0-.18-19.29,41.21,41.21,0,0,0-7.49-16,39.65,39.65,0,0,0-13.25-11.09A42.39,42.39,0,0,0,616,516.71Z"/><path class="cls-16" d="M660.28,671.84a61.61,61.61,0,0,0,.5-20.31A59.11,59.11,0,0,0,655,633.07,55.91,55.91,0,0,0,643.77,618a53.3,53.3,0,0,0-15.6-10.34l-4.33-1.89,4.21-2.54a55.48,55.48,0,0,0,16.51-15.32,54,54,0,0,0,5.49-9.72,51.16,51.16,0,0,0,3.32-10.61,45.29,45.29,0,0,0-.18-18.85,39.76,39.76,0,0,0-7.29-15.63A38.48,38.48,0,0,0,633,522.3a41.41,41.41,0,0,0-17.07-4.52,46.65,46.65,0,0,0-11.92,1,49.39,49.39,0,0,0-6.21,1.72,54,54,0,0,0-15.94,8.86A55.53,55.53,0,0,0,569.64,543a51.87,51.87,0,0,0-7,17.14,48.4,48.4,0,0,0-1.06,10.09,44.49,44.49,0,0,0,1.11,9.69,41,41,0,0,0,3.22,9,39.7,39.7,0,0,0,5.29,8l2.8,3.27-4.36.79-1.5.29a57.55,57.55,0,0,0-7.45,2.11,60.21,60.21,0,0,0-8.49,3.83,62,62,0,0,0-7.88,5.15,64.4,64.4,0,0,0-6.82,6.08c-.06.76-.13,1.51-.22,2.26s-.2,1.76-.33,2.64-.27,1.75-.42,2.63-.33,1.74-.51,2.6l-7.61,35.67c-.63,2.94-1.17,5.45-1.74,7.68a31.58,31.58,0,0,1-2,5.77,9.27,9.27,0,0,1-3,3.75,6.61,6.61,0,0,1-2.35,1,8.86,8.86,0,0,1-2.28.14l-.45,0-.43-.07a8,8,0,0,1-2.8-1.09,11.27,11.27,0,0,1-2.26-1.88,21.37,21.37,0,0,1-1.88-2.31c-.58-.79-1.13-1.62-1.67-2.45-.32-.47-.63-.94-.95-1.39s-.61-.88-.91-1.28-.59-.75-.9-1.07a7.05,7.05,0,0,0-.86-.81,17.58,17.58,0,0,0-1.55-1.06,15.35,15.35,0,0,0-1.66-.86,14.62,14.62,0,0,0-1.71-.64,13.89,13.89,0,0,0-1.75-.42,12.6,12.6,0,0,0-1.71-.19,11.45,11.45,0,0,0-1.66,0,10.58,10.58,0,0,0-1.39.21l-.23,0a11.33,11.33,0,0,0-1.57.48,10.54,10.54,0,0,0-3.32,2,15.68,15.68,0,0,0-2.88,3.49,27.62,27.62,0,0,0-2.41,5,48.93,48.93,0,0,0-1.88,6.54,49.69,49.69,0,0,0-1,6.71,27.74,27.74,0,0,0,.09,5.52,14.79,14.79,0,0,0,1.17,4.29,9.73,9.73,0,0,0,2.18,3.11,12.44,12.44,0,0,0,1.25,1,10.1,10.1,0,0,0,1.38.83,9.93,9.93,0,0,0,1.52.65,11.15,11.15,0,0,0,1.65.46,13.69,13.69,0,0,0,1.8.26,14.53,14.53,0,0,0,1.87,0,17.53,17.53,0,0,0,1.89-.19l.78-.15c.38-.08.76-.17,1.13-.27a8.45,8.45,0,0,0,1.14-.44c.42-.19.84-.41,1.28-.66s.91-.55,1.38-.85l1.46-1c.85-.57,1.71-1.13,2.57-1.65a22.92,22.92,0,0,1,2.69-1.44,12.5,12.5,0,0,1,2.55-.85l.31-.06a8.33,8.33,0,0,1,3,0l.43.1.44.13a6.9,6.9,0,0,1,3.83,2.78,8.89,8.89,0,0,1,1.24,4.63,31.73,31.73,0,0,1-.55,6.11c-.39,2.31-.94,4.87-1.58,7.84l-17.92,84,129.46,37Z"/><path class="cls-16" d="M661.33,672a62.77,62.77,0,0,0,.92-17,60.9,60.9,0,0,0-3.51-16,58.24,58.24,0,0,0-7.42-14,55.74,55.74,0,0,0-10.79-11.28l20.23,15.89a53.08,53.08,0,0,1,10.14,10.55,54.66,54.66,0,0,1,7,13A56,56,0,0,1,681.24,668a57.34,57.34,0,0,1-.76,15.69L650.79,842l-22.34,2.17Z"/></g></g></svg>