<svg xmlns="http://www.w3.org/2000/svg" xmlns:xlink="http://www.w3.org/1999/xlink" viewBox="0 0 983.27 886.59"><defs><style>.cls-1{fill:none;}.cls-2{fill:#dffbff;}.cls-3{font-size:40px;font-family:Avenir-Heavy, Avenir;font-weight:800;}.cls-3,.cls-4{fill:#1a1a1a;}.cls-4{font-size:25.61px;font-family:Montserrat-Regular, Montserrat;}.cls-5{fill:#ffddd6;}.cls-6{clip-path:url(#clip-path);}.cls-7{fill:#e8fff6;}.cls-8{clip-path:url(#clip-path-2);}.cls-9{fill:#fdffee;}.cls-10{fill:#333;}</style><clipPath id="clip-path"><path class="cls-1" d="M587.13,568.41a12.38,12.38,0,0,0-12.89,1.09l-147.71,109a12.34,12.34,0,0,0,0,19.83L574.21,808a12.35,12.35,0,0,0,19.7-9.91V753.54H787.47a12.34,12.34,0,0,0,12.34-12.33V636.33A12.34,12.34,0,0,0,787.47,624H593.91V579.43A12.38,12.38,0,0,0,587.13,568.41Z"/></clipPath><clipPath id="clip-path-2"><path class="cls-1" d="M381.51,661.59a13.09,13.09,0,0,0,13.62-1.15l147.72-109a13,13,0,0,0,0-21L395.16,420.79a13,13,0,0,0-20.82,10.48v43.85H196.14a13,13,0,0,0-13,13.05V593.05a13,13,0,0,0,13,13h178.2v43.85A13.08,13.08,0,0,0,381.51,661.59Z"/></clipPath></defs><g id="Layer_2" data-name="Layer 2"><g id="Layer_1-2" data-name="Layer 1"><rect class="cls-2" width="983.27" height="886.59" rx="23.96"/><text class="cls-3" transform="translate(182.78 149.23)">Autopay and No Exchange Fees.</text><text class="cls-4" transform="translate(176.36 222.95)">Set up automatic payments and transfer limits to <tspan x="32.02" y="30.73">keep your funds under control. Connect and </tspan><tspan x="-9.74" y="61.46">exchange directly with other Digital Twin users. No </tspan><tspan x="-7.95" y="92.18">intermediaries. No hidden fees. Exchange only real </tspan><tspan x="65.58" y="122.91">value. A new age of fnance has begun. </tspan></text><path class="cls-5" d="M381.51,661.59a13.09,13.09,0,0,0,13.62-1.15l147.72-109a13,13,0,0,0,0-21L395.16,420.79a13,13,0,0,0-20.82,10.48v43.85H196.14a13,13,0,0,0-13,13.05V593.05a13,13,0,0,0,13,13h178.2v43.85A13.08,13.08,0,0,0,381.51,661.59Z"/><path class="cls-5" d="M587.13,568.41a12.38,12.38,0,0,0-12.89,1.09l-147.71,109a12.34,12.34,0,0,0,0,19.83L574.21,808a12.35,12.35,0,0,0,19.7-9.91V753.54H787.47a12.34,12.34,0,0,0,12.34-12.33V636.33A12.34,12.34,0,0,0,787.47,624H593.91V579.43A12.38,12.38,0,0,0,587.13,568.41Z"/><g class="cls-6"><circle class="cls-7" cx="530.4" cy="688.22" r="75.53"/><path d="M517.81,604.77a84.4,84.4,0,1,0,96,70.85A84.38,84.38,0,0,0,517.81,604.77ZM541.68,762.9A75.53,75.53,0,1,1,605.09,677,75.54,75.54,0,0,1,541.68,762.9Z"/><ellipse cx="486.87" cy="676.18" rx="20.2" ry="20.92" transform="translate(-60.9 48.32) rotate(-5.35)"/><ellipse cx="546.32" cy="677.87" rx="20.2" ry="20.92" transform="translate(-60.8 53.87) rotate(-5.35)"/></g><g class="cls-8"><circle class="cls-9" cx="436.8" cy="540.94" r="72.47"/><path class="cls-10" d="M424.71,460.87a81,81,0,1,0,92.16,68A81,81,0,0,0,424.71,460.87Zm22.9,151.73a72.47,72.47,0,1,1,60.84-82.48A72.47,72.47,0,0,1,447.61,612.6Z"/><ellipse class="cls-10" cx="417.37" cy="540.56" rx="19.39" ry="20.08" transform="matrix(1, -0.09, 0.09, 1, -48.57, 41.25)"/><ellipse class="cls-10" cx="474.42" cy="542.19" rx="19.39" ry="20.08" transform="translate(-48.47 46.58) rotate(-5.35)"/></g></g></g></svg>