<svg id="Layer_1" data-name="Layer 1" xmlns="http://www.w3.org/2000/svg" viewBox="0 0 468 112"><defs><style>.cls-1{fill:#0098a8;}.cls-2{fill:#1a1a1a;}</style></defs><title>Untitled-1</title><path class="cls-1" d="M173.84,97.82H167L165.65,101H163l6.16-13.68h2.5L177.86,101H175.2Zm-.84-2-2.58-6-2.56,6Z"/><path class="cls-1" d="M199.11,87.89a4.55,4.55,0,0,1,2,1.68,5.1,5.1,0,0,1,0,5.19,4.45,4.45,0,0,1-2,1.69A7.59,7.59,0,0,1,196,97h-3.08V101h-2.55V87.31H196a7.59,7.59,0,0,1,3.1.58m-.69,6.3a2.79,2.79,0,0,0,0-4,3.92,3.92,0,0,0-2.52-.7h-3v5.43h3a4,4,0,0,0,2.52-.7"/><path class="cls-1" d="M224.08,87.89a4.5,4.5,0,0,1,2,1.68,5.1,5.1,0,0,1,0,5.19,4.4,4.4,0,0,1-2,1.69A7.59,7.59,0,0,1,221,97H217.9V101h-2.54V87.31H221a7.59,7.59,0,0,1,3.1.58m-.69,6.3a2.79,2.79,0,0,0,0-4,3.9,3.9,0,0,0-2.52-.7h-3v5.43h3a4,4,0,0,0,2.52-.7"/><polygon class="cls-1" points="240.33 87.31 242.87 87.31 242.87 98.84 250.02 98.84 250.02 100.99 240.33 100.99 240.33 87.31"/><rect class="cls-1" x="262.82" y="87.31" width="2.54" height="13.68"/><path class="cls-1" d="M282.43,100.27a6.6,6.6,0,0,1-2.62-2.51,7.32,7.32,0,0,1,0-7.23A6.76,6.76,0,0,1,282.45,88a7.64,7.64,0,0,1,3.74-.91,7.85,7.85,0,0,1,3.07.59,6.31,6.31,0,0,1,2.34,1.7L290,90.94a4.78,4.78,0,0,0-3.65-1.6,5.17,5.17,0,0,0-2.53.61,4.51,4.51,0,0,0-1.73,1.71,5.22,5.22,0,0,0,0,5,4.38,4.38,0,0,0,1.73,1.71,5.17,5.17,0,0,0,2.53.61A4.76,4.76,0,0,0,290,97.33l1.64,1.57a6.38,6.38,0,0,1-2.35,1.7,7.93,7.93,0,0,1-3.08.58,7.64,7.64,0,0,1-3.74-.91"/><path class="cls-1" d="M313.7,97.82h-6.84L305.51,101h-2.62l6.16-13.68h2.5L317.73,101h-2.66Zm-.84-2-2.58-6-2.56,6Z"/><polygon class="cls-1" points="333.02 89.46 328.49 89.46 328.49 87.31 340.1 87.31 340.1 89.46 335.56 89.46 335.56 100.99 333.02 100.99 333.02 89.46"/><rect class="cls-1" x="352.8" y="87.31" width="2.54" height="13.68"/><path class="cls-1" d="M372.44,100.27a6.67,6.67,0,0,1-2.64-2.52,7.25,7.25,0,0,1,0-7.21A6.81,6.81,0,0,1,372.44,88,8.26,8.26,0,0,1,380,88a6.78,6.78,0,0,1,2.64,2.51,7.35,7.35,0,0,1,0,7.23,6.71,6.71,0,0,1-2.64,2.51,8.26,8.26,0,0,1-7.54,0m6.23-1.93a4.44,4.44,0,0,0,1.72-1.72,5.23,5.23,0,0,0,0-4.94A4.54,4.54,0,0,0,378.67,90a5.29,5.29,0,0,0-4.93,0A4.51,4.51,0,0,0,372,91.68a5.16,5.16,0,0,0,0,4.94,4.42,4.42,0,0,0,1.71,1.72,5.29,5.29,0,0,0,4.93,0"/><polygon class="cls-1" points="409.21 87.31 409.21 100.99 407.12 100.99 399.58 91.72 399.58 100.99 397.06 100.99 397.06 87.31 399.15 87.31 406.69 96.57 406.69 87.31 409.21 87.31"/><path class="cls-1" d="M424.85,100.73a6.44,6.44,0,0,1-2.33-1.19l.87-2a7,7,0,0,0,2.07,1.08,7.47,7.47,0,0,0,2.45.42,4.18,4.18,0,0,0,2.27-.49,1.46,1.46,0,0,0,.76-1.29,1.23,1.23,0,0,0-.42-1,2.85,2.85,0,0,0-1.07-.6c-.43-.14-1-.31-1.76-.49a20.94,20.94,0,0,1-2.53-.74,4.27,4.27,0,0,1-1.66-1.16,3.15,3.15,0,0,1-.69-2.14,3.67,3.67,0,0,1,.61-2.07,4.18,4.18,0,0,1,1.86-1.47,7.61,7.61,0,0,1,3-.55,10.24,10.24,0,0,1,2.46.31,6.77,6.77,0,0,1,2.09.9l-.8,2a7.87,7.87,0,0,0-1.87-.8,6.83,6.83,0,0,0-1.9-.28,4,4,0,0,0-2.24.51,1.57,1.57,0,0,0-.73,1.35,1.23,1.23,0,0,0,.42,1,3.07,3.07,0,0,0,1.06.58c.43.15,1,.31,1.76.49a19.77,19.77,0,0,1,2.5.73A4.29,4.29,0,0,1,432.74,95a3,3,0,0,1,.7,2.11,3.61,3.61,0,0,1-.62,2,4.16,4.16,0,0,1-1.86,1.46,7.52,7.52,0,0,1-3,.55,10.39,10.39,0,0,1-3.06-.45"/><path class="cls-2" d="M82,13.44V75.91H70.5V69.05Q66.07,77,56.1,77A19.15,19.15,0,0,1,46,74.13,20.72,20.72,0,0,1,38.49,66a25.9,25.9,0,0,1-2.87-12.5,28,28,0,0,1,2.69-12.71,19.3,19.3,0,0,1,7.25-8.07A19,19,0,0,1,55.49,30q8.85,0,13.62,6V13.44ZM66.34,63.2q2.77-3.6,2.77-9.68t-2.77-9.71a8.73,8.73,0,0,0-7.29-3.65,9,9,0,0,0-7.5,3.65q-2.84,3.63-2.83,9.71t2.87,9.63a9,9,0,0,0,7.46,3.65,8.77,8.77,0,0,0,7.29-3.6"/><path class="cls-2" d="M90.2,22.94a7.22,7.22,0,0,1-2.09-5.25,7,7,0,0,1,2.09-5.12,7.88,7.88,0,0,1,10.67,0A7,7,0,0,1,103,17.69a7.21,7.21,0,0,1-2.08,5.25,7.75,7.75,0,0,1-10.67,0m-1.13,8.11H102V75.91H89.07Z"/><path class="cls-2" d="M155.27,31.05V73.56q0,8.77-5.6,14.23t-17.14,5.47q-11.79,0-16.87-4.17c-3.38-2.77-5.37-6.68-5.94-11.71h13.53a6.82,6.82,0,0,0,2.39,5q2.11,1.74,6.81,1.74c3.24,0,5.69-.86,7.37-2.56s2.52-4.24,2.52-7.59V67.49a13.13,13.13,0,0,1-5.51,4.86A19,19,0,0,1,129,73.82a19.63,19.63,0,0,1-10.15-2.69,19.2,19.2,0,0,1-7.29-7.67,24,24,0,0,1-2.69-11.59,24,24,0,0,1,2.69-11.58,18.8,18.8,0,0,1,7.33-7.63A20.32,20.32,0,0,1,129.15,30a18,18,0,0,1,8.37,1.91,15.37,15.37,0,0,1,6,5.64V31.05ZM139.43,60.42a12.66,12.66,0,0,0,2.91-8.63,12.21,12.21,0,0,0-2.91-8.46,9.83,9.83,0,0,0-14.62,0A12.46,12.46,0,0,0,122,51.87a12.49,12.49,0,0,0,2.91,8.59,9.34,9.34,0,0,0,7.33,3.3,9.2,9.2,0,0,0,7.24-3.34"/><path class="cls-2" d="M163.42,22.94a7.21,7.21,0,0,1-2.08-5.25,7,7,0,0,1,2.08-5.12,7.27,7.27,0,0,1,5.38-2.08,7.16,7.16,0,0,1,5.29,2.08,7,7,0,0,1,2.08,5.12,7.21,7.21,0,0,1-2.08,5.25,7.08,7.08,0,0,1-5.29,2.13,7.19,7.19,0,0,1-5.38-2.13m-1.13,8.11h12.93V75.91H162.29Z"/><path class="cls-2" d="M201,41.55V59.6a6.39,6.39,0,0,0,1.43,4.55,5.75,5.75,0,0,0,4.38,1.52,20.36,20.36,0,0,0,3.56-.26V75.73a22.08,22.08,0,0,1-3.08.57c-.9.08-2.16.13-3.78.13q-15.44,0-15.44-16.4V41.55h-6.85V31.05h6.85V18.39H201V31.05h9.37v10.5Z"/><path class="cls-2" d="M250.92,34.17q5.23,4.17,5.24,12.67V75.91H244.71V70.27q-5,6.67-14.14,6.68A19.84,19.84,0,0,1,222,75.21a13.64,13.64,0,0,1-5.72-4.81,12.23,12.23,0,0,1-2-6.9,12.56,12.56,0,0,1,3.86-9.5q3.85-3.69,12.28-4.47l13-1.3V46a6.64,6.64,0,0,0-1.95-5.16A7.78,7.78,0,0,0,236,39a9,9,0,0,0-5.43,1.44A7.2,7.2,0,0,0,228,44.85H215a15.35,15.35,0,0,1,6.29-11Q226.67,30,236,30q9.72,0,15,4.16m-10,31.76a11.2,11.2,0,0,0,2.34-7.46V55.52l-9.72,1.3a8.29,8.29,0,0,0-4.77,2,5.38,5.38,0,0,0-1.65,4A5.28,5.28,0,0,0,229,67.06a7.42,7.42,0,0,0,5,1.65c3,0,5.29-.93,6.86-2.78"/><rect class="cls-2" x="263.71" y="13.44" width="12.93" height="62.47"/><path class="cls-2" d="M301,38.62v25.6q0,3.56,1.62,5.17A5.87,5.87,0,0,0,306.93,71a15.22,15.22,0,0,0,3.47-.33v4.85A18.85,18.85,0,0,1,306,76q-5,0-7.79-2.86t-2.79-8.36V38.62h-7.19V33.78h7.19V22H301V33.78h9.45v4.84Z"/><polygon class="cls-2" points="376.7 33.78 361.68 75.53 355.38 75.53 344.88 42.42 334.3 75.53 328 75.53 312.98 33.78 318.72 33.78 331.07 69.23 342.38 33.78 347.3 33.78 358.53 69.07 370.88 33.78 376.7 33.78"/><path class="cls-2" d="M381.79,24.81a3.94,3.94,0,0,1-1.21-2.9,4.19,4.19,0,0,1,7.14-3,4,4,0,0,1,1.25,3,3.87,3.87,0,0,1-1.25,2.9,4.07,4.07,0,0,1-3,1.21,4,4,0,0,1-3-1.21m.24,9h5.49V75.53H382Z"/><path class="cls-2" d="M429.35,37.33q4.13,4.53,4.12,12.76V75.53H428V51.06q0-6.47-2.83-9.89a9.77,9.77,0,0,0-8-3.44,10.69,10.69,0,0,0-8.48,3.6q-3.15,3.59-3.15,10.13V75.53H400V33.78h5.33v6.38q3.87-7.35,12.92-7.35,7,0,11.14,4.52"/></svg>