<svg xmlns="http://www.w3.org/2000/svg" xmlns:xlink="http://www.w3.org/1999/xlink" viewBox="0 0 968 1050.47"><defs><style>.cls-1,.cls-7{fill:#e9ffe3;}.cls-1,.cls-16,.cls-2,.cls-9{stroke:#1a1a1a;stroke-miterlimit:10;stroke-width:4px;}.cls-11,.cls-2{fill:#fcffe3;}.cls-3{fill:#ffefec;}.cls-4{font-size:40px;font-family:Avenir-Heavy, Avenir;font-weight:800;}.cls-4,.cls-5{fill:#1a1a1a;}.cls-5{font-size:25.61px;font-family:Montserrat-Regular, Montserrat;}.cls-6{isolation:isolate;}.cls-8{clip-path:url(#clip-path);}.cls-9{fill:none;}.cls-10{clip-path:url(#clip-path-2);}.cls-12{clip-path:url(#clip-path-3);}.cls-13{clip-path:url(#clip-path-4);}.cls-14{clip-path:url(#clip-path-5);}.cls-15{clip-path:url(#clip-path-6);}.cls-16{fill:#f3ecff;}</style><clipPath id="clip-path"><path class="cls-1" d="M354.86,714.24l43,13.34a8,8,0,0,1-2.33-1.17,10.67,10.67,0,0,1-1.87-1.75,19.83,19.83,0,0,1-1.57-2.13c-.49-.74-.94-1.52-1.4-2.29-.3-.5-.59-1-.88-1.47s-.58-.94-.88-1.37a14.74,14.74,0,0,0-.89-1.19,8.59,8.59,0,0,0-.94-1,13.89,13.89,0,0,0-1.17-.89,13.26,13.26,0,0,0-1.23-.77,13.89,13.89,0,0,0-1.28-.64q-.66-.29-1.32-.51l-43.41-14.19a13.13,13.13,0,0,1,1.36.52,13.79,13.79,0,0,1,1.33.67c.43.25.86.52,1.27.81s.82.61,1.21.94a8.47,8.47,0,0,1,1,1c.31.39.62.81.92,1.27s.59.94.89,1.44l.9,1.56c.47.82.93,1.64,1.43,2.44a19.37,19.37,0,0,0,1.6,2.25,10.87,10.87,0,0,0,1.93,1.85A8.07,8.07,0,0,0,354.86,714.24Z"/></clipPath><clipPath id="clip-path-2"><path class="cls-1" d="M324.78,745.06l44.49,11.2.13,0,.12,0,.13,0,.13,0a12.89,12.89,0,0,0,1.88.26,14,14,0,0,0,1.94,0,14.89,14.89,0,0,0,2-.25,15.61,15.61,0,0,0,2-.49,8.58,8.58,0,0,0,1.29-.53c.44-.22.9-.47,1.36-.76s.93-.6,1.42-.93l1.47-1c.83-.59,1.67-1.18,2.52-1.73a22.77,22.77,0,0,1,2.54-1.47,11.35,11.35,0,0,1,2.56-.9,6.44,6.44,0,0,1,2.55,0l-43.42-11.9a6.4,6.4,0,0,0-2.65,0,11.31,11.31,0,0,0-2.68,1,24.87,24.87,0,0,0-2.67,1.58c-.88.6-1.77,1.23-2.64,1.87l-1.55,1.11c-.5.36-1,.7-1.48,1s-1,.59-1.43.83a8.5,8.5,0,0,1-1.35.57,15.78,15.78,0,0,1-2.07.54,16.42,16.42,0,0,1-2.06.28,15.29,15.29,0,0,1-2,0,14.07,14.07,0,0,1-1.95-.27l-.13,0-.13,0-.13,0Z"/></clipPath><clipPath id="clip-path-3"><path class="cls-2" d="M511,773.58l-38.1-11c0,1,.1,2,.21,3a25.85,25.85,0,0,0,.46,2.75,24,24,0,0,0,.69,2.53,20.69,20.69,0,0,0,.95,2.31l38.08,10.28a18.78,18.78,0,0,1-.92-2.15,21.54,21.54,0,0,1-.69-2.36,25,25,0,0,1-.45-2.57C511.1,775.46,511,774.53,511,773.58Z"/></clipPath><clipPath id="clip-path-4"><path class="cls-2" d="M522.66,745,558,757.53a9.4,9.4,0,0,1-2.45-1.33,14.93,14.93,0,0,1-2.12-2,26.62,26.62,0,0,1-1.9-2.37c-.61-.83-1.19-1.69-1.77-2.55l-1.15-1.66c-.38-.54-.76-1.06-1.14-1.55s-.76-.94-1.15-1.35a10.6,10.6,0,0,0-1.18-1.08c-.4-.31-.81-.59-1.23-.87s-.84-.52-1.27-.76-.87-.47-1.31-.67-.9-.4-1.35-.57l-36.19-13.64c.48.18.95.38,1.42.59s.92.46,1.38.71.9.52,1.33.81.87.6,1.29.92a11,11,0,0,1,1.24,1.16q.6.66,1.2,1.44c.39.52.79,1.08,1.19,1.65l1.2,1.78c.6.91,1.21,1.84,1.84,2.73a30,30,0,0,0,2,2.53,15,15,0,0,0,2.22,2.09A9.78,9.78,0,0,0,522.66,745Z"/></clipPath><clipPath id="clip-path-5"><path class="cls-2" d="M559.05,754.47l.2.07.21.06.2,0,.21,0-35.2-12.77-.22,0-.22-.06-.21-.06-.22-.07Z"/></clipPath><clipPath id="clip-path-6"><path class="cls-2" d="M487.69,779.11,525.18,789l.22.06.23.06.22.05.23,0a17.84,17.84,0,0,0,2.31.33,18.68,18.68,0,0,0,2.37,0,20.44,20.44,0,0,0,4.79-.73,11.52,11.52,0,0,0,1.54-.56c.53-.24,1.07-.52,1.62-.82s1.11-.65,1.68-1,1.15-.74,1.74-1.13c1-.63,2-1.28,3-1.87a25.88,25.88,0,0,1,3-1.59,13.28,13.28,0,0,1,3.08-.94,8.39,8.39,0,0,1,3.12,0l.17,0,.18,0,.17,0,.17.05-35.73-10.72-.18-.05-.18,0-.18,0-.18,0a8.93,8.93,0,0,0-3.3,0,14,14,0,0,0-3.27,1A27.9,27.9,0,0,0,508.8,773c-1.07.65-2.13,1.35-3.18,2l-1.84,1.22c-.61.39-1.21.76-1.79,1.09s-1.16.64-1.72.9a11.75,11.75,0,0,1-1.63.62,22.88,22.88,0,0,1-2.53.55,20.06,20.06,0,0,1-2.54.26,20.79,20.79,0,0,1-2.5,0,18,18,0,0,1-2.43-.35l-.24-.05-.24,0-.23-.06Z"/></clipPath></defs><g id="Layer_2" data-name="Layer 2"><g id="Layer_1-2" data-name="Layer 1"><rect class="cls-3" width="968" height="1050.47" rx="23.96"/><text class="cls-4" transform="translate(242.47 150.01)">Collaboration Made Easy.</text><text class="cls-5" transform="translate(212.25 223.73)">Create, edit, share and manage access in a <tspan x="-65.48" y="30.73">collaborative and fully-encrypted environment. Keep </tspan><tspan x="-51.23" y="61.46">your professional life organized and moving – all in </tspan><tspan x="-64.3" y="92.18">one place. Re-imagine the way you work with Offce, </tspan><tspan x="91.76" y="122.91">Chat, Meet and File Storage.</tspan></text><polygon class="cls-1" points="355.75 616.26 397.55 635.57 395.61 634.57 353.75 615.22 355.75 616.26"/><path class="cls-1" d="M356,613.67a58.44,58.44,0,0,0,8.46-7.32,64.31,64.31,0,0,0,7.15-9A67.2,67.2,0,0,0,380.85,576a59.15,59.15,0,0,0,1.66-15.29,47.85,47.85,0,0,0-2.27-13.59A37.62,37.62,0,0,0,374.55,536a30.92,30.92,0,0,0-8.61-7.86l40.41,24.54a30.63,30.63,0,0,1,8.37,7.54,36.75,36.75,0,0,1,5.6,10.54,44.72,44.72,0,0,1,2.32,12.83A53.88,53.88,0,0,1,421.21,598a59.44,59.44,0,0,1-3.46,10.44,61.37,61.37,0,0,1-5.22,9.56,58.79,58.79,0,0,1-6.76,8.34,53.93,53.93,0,0,1-8.06,6.78l-2.1,1.44-41.86-19.35Z"/><path class="cls-1" d="M324.07,748.07l44.55,11a16,16,0,0,1-1.85-.59,14.3,14.3,0,0,1-1.72-.82,13.42,13.42,0,0,1-1.57-1,14.16,14.16,0,0,1-1.41-1.28,13.09,13.09,0,0,1-2.68-4.13,19.65,19.65,0,0,1-1.32-5.43,34.26,34.26,0,0,1,0-6.71,64.35,64.35,0,0,1,3.72-15.75,34.55,34.55,0,0,1,3-6.09,21.2,21.2,0,0,1,3.63-4.43,14.82,14.82,0,0,1,4.28-2.74,16.21,16.21,0,0,1,2-.65,15.58,15.58,0,0,1,2-.37,14,14,0,0,1,2-.07,14.7,14.7,0,0,1,2.07.22l.56.11.55.13.54.15.55.17-43.33-14.39-.57-.17-.57-.16-.57-.13-.57-.11a15.79,15.79,0,0,0-2.16-.21,14.65,14.65,0,0,0-4.23.51,14.77,14.77,0,0,0-2.06.71,15.91,15.91,0,0,0-4.48,3,23.24,23.24,0,0,0-3.83,4.74,39.33,39.33,0,0,0-3.2,6.53,64.8,64.8,0,0,0-2.55,8.29,66.72,66.72,0,0,0-1.53,8.51,36.82,36.82,0,0,0-.11,7.15,20.55,20.55,0,0,0,1.29,5.78,13.55,13.55,0,0,0,2.73,4.38,14.14,14.14,0,0,0,1.45,1.35,14.52,14.52,0,0,0,1.62,1.11,13.13,13.13,0,0,0,1.77.86,15,15,0,0,0,1.93.62"/><g class="cls-6"><path class="cls-7" d="M354.86,714.24l43,13.34a8,8,0,0,1-2.33-1.17,10.67,10.67,0,0,1-1.87-1.75,19.83,19.83,0,0,1-1.57-2.13c-.49-.74-.94-1.52-1.4-2.29-.3-.5-.59-1-.88-1.47s-.58-.94-.88-1.37a14.74,14.74,0,0,0-.89-1.19,8.59,8.59,0,0,0-.94-1,13.89,13.89,0,0,0-1.17-.89,13.26,13.26,0,0,0-1.23-.77,13.89,13.89,0,0,0-1.28-.64q-.66-.29-1.32-.51l-43.41-14.19a13.13,13.13,0,0,1,1.36.52,13.79,13.79,0,0,1,1.33.67c.43.25.86.52,1.27.81s.82.61,1.21.94a8.47,8.47,0,0,1,1,1c.31.39.62.81.92,1.27s.59.94.89,1.44l.9,1.56c.47.82.93,1.64,1.43,2.44a19.37,19.37,0,0,0,1.6,2.25,10.87,10.87,0,0,0,1.93,1.85A8.07,8.07,0,0,0,354.86,714.24Z"/><g class="cls-8"><path class="cls-1" d="M354.86,714.24l43,13.34a8,8,0,0,1-2.33-1.17,10.67,10.67,0,0,1-1.87-1.75,19.83,19.83,0,0,1-1.57-2.13c-.49-.74-.94-1.52-1.4-2.29-.3-.5-.59-1-.88-1.47s-.58-.94-.88-1.37a14.74,14.74,0,0,0-.89-1.19,8.59,8.59,0,0,0-.94-1,13.89,13.89,0,0,0-1.17-.89,13.26,13.26,0,0,0-1.23-.77,13.89,13.89,0,0,0-1.28-.64q-.66-.29-1.32-.51l-43.41-14.19a13.13,13.13,0,0,1,1.36.52,13.79,13.79,0,0,1,1.33.67c.43.25.86.52,1.27.81s.82.61,1.21.94a8.47,8.47,0,0,1,1,1c.31.39.62.81.92,1.27s.59.94.89,1.44l.9,1.56c.47.82.93,1.64,1.43,2.44a19.37,19.37,0,0,0,1.6,2.25,10.87,10.87,0,0,0,1.93,1.85,8.07,8.07,0,0,0,2.41,1.23"/></g><path class="cls-9" d="M354.86,714.24l43,13.34a8,8,0,0,1-2.33-1.17,10.67,10.67,0,0,1-1.87-1.75,19.83,19.83,0,0,1-1.57-2.13c-.49-.74-.94-1.52-1.4-2.29-.3-.5-.59-1-.88-1.47s-.58-.94-.88-1.37a14.74,14.74,0,0,0-.89-1.19,8.59,8.59,0,0,0-.94-1,13.89,13.89,0,0,0-1.17-.89,13.26,13.26,0,0,0-1.23-.77,13.89,13.89,0,0,0-1.28-.64q-.66-.29-1.32-.51l-43.41-14.19a13.13,13.13,0,0,1,1.36.52,13.79,13.79,0,0,1,1.33.67c.43.25.86.52,1.27.81s.82.61,1.21.94a8.47,8.47,0,0,1,1,1c.31.39.62.81.92,1.27s.59.94.89,1.44l.9,1.56c.47.82.93,1.64,1.43,2.44a19.37,19.37,0,0,0,1.6,2.25,10.87,10.87,0,0,0,1.93,1.85A8.07,8.07,0,0,0,354.86,714.24Z"/></g><path class="cls-1" d="M358.71,710.66a6.75,6.75,0,0,0,2.09-2.78,32.93,32.93,0,0,0,1.82-5.28c.62-2.22,1.27-4.92,2-8.18l9.43-39.8c.23-1,.47-1.91.73-2.86s.53-1.91.81-2.86.59-1.9.9-2.84.65-1.89,1-2.82a53.61,53.61,0,0,0-3.75-8.74,47.74,47.74,0,0,0-5-7.51,42.86,42.86,0,0,0-6.06-6.13,38.27,38.27,0,0,0-7-4.6l41.8,19.3a38.7,38.7,0,0,1,6.76,4.42,42.11,42.11,0,0,1,5.89,5.83,47.94,47.94,0,0,1,4.87,7.11,51.44,51.44,0,0,1,3.69,8.26h0c-.31.87-.62,1.75-.91,2.63s-.57,1.77-.84,2.66-.51,1.78-.75,2.68-.45,1.79-.66,2.68L407,709.08c-.71,3-1.3,5.58-1.87,7.66a30.85,30.85,0,0,1-1.68,4.93,6.29,6.29,0,0,1-2,2.59,4.22,4.22,0,0,1-2.72.64l-42.88-13.53A4.3,4.3,0,0,0,358.71,710.66Z"/><g class="cls-6"><path class="cls-7" d="M324.78,745.06l44.49,11.2.13,0,.12,0,.13,0,.13,0a12.89,12.89,0,0,0,1.88.26,14,14,0,0,0,1.94,0,14.89,14.89,0,0,0,2-.25,15.61,15.61,0,0,0,2-.49,8.58,8.58,0,0,0,1.29-.53c.44-.22.9-.47,1.36-.76s.93-.6,1.42-.93l1.47-1c.83-.59,1.67-1.18,2.52-1.73a22.77,22.77,0,0,1,2.54-1.47,11.35,11.35,0,0,1,2.56-.9,6.44,6.44,0,0,1,2.55,0l-43.42-11.9a6.4,6.4,0,0,0-2.65,0,11.31,11.31,0,0,0-2.68,1,24.87,24.87,0,0,0-2.67,1.58c-.88.6-1.77,1.23-2.64,1.87l-1.55,1.11c-.5.36-1,.7-1.48,1s-1,.59-1.43.83a8.5,8.5,0,0,1-1.35.57,15.78,15.78,0,0,1-2.07.54,16.42,16.42,0,0,1-2.06.28,15.29,15.29,0,0,1-2,0,14.07,14.07,0,0,1-1.95-.27l-.13,0-.13,0-.13,0Z"/><g class="cls-10"><path class="cls-1" d="M324.78,745.06l44.49,11.2.13,0,.12,0,.13,0,.13,0a12.89,12.89,0,0,0,1.88.26,14,14,0,0,0,1.94,0,14.89,14.89,0,0,0,2-.25,15.61,15.61,0,0,0,2-.49,8.58,8.58,0,0,0,1.29-.53c.44-.22.9-.47,1.36-.76s.93-.6,1.42-.93l1.47-1c.83-.59,1.67-1.18,2.52-1.73a22.77,22.77,0,0,1,2.54-1.47,11.35,11.35,0,0,1,2.56-.9,6.44,6.44,0,0,1,2.55,0l-43.42-11.9a6.4,6.4,0,0,0-2.65,0,11.31,11.31,0,0,0-2.68,1,24.87,24.87,0,0,0-2.67,1.58c-.88.6-1.77,1.23-2.64,1.87l-1.55,1.11c-.5.36-1,.7-1.48,1s-1,.59-1.43.83a8.5,8.5,0,0,1-1.35.57,15.78,15.78,0,0,1-2.07.54,16.42,16.42,0,0,1-2.06.28,15.29,15.29,0,0,1-2,0,14.07,14.07,0,0,1-1.95-.27l-.13,0-.13,0-.13,0-.13,0"/></g><path class="cls-9" d="M324.78,745.06l44.49,11.2.13,0,.12,0,.13,0,.13,0a12.89,12.89,0,0,0,1.88.26,14,14,0,0,0,1.94,0,14.89,14.89,0,0,0,2-.25,15.61,15.61,0,0,0,2-.49,8.58,8.58,0,0,0,1.29-.53c.44-.22.9-.47,1.36-.76s.93-.6,1.42-.93l1.47-1c.83-.59,1.67-1.18,2.52-1.73a22.77,22.77,0,0,1,2.54-1.47,11.35,11.35,0,0,1,2.56-.9,6.44,6.44,0,0,1,2.55,0l-43.42-11.9a6.4,6.4,0,0,0-2.65,0,11.31,11.31,0,0,0-2.68,1,24.87,24.87,0,0,0-2.67,1.58c-.88.6-1.77,1.23-2.64,1.87l-1.55,1.11c-.5.36-1,.7-1.48,1s-1,.59-1.43.83a8.5,8.5,0,0,1-1.35.57,15.78,15.78,0,0,1-2.07.54,16.42,16.42,0,0,1-2.06.28,15.29,15.29,0,0,1-2,0,14.07,14.07,0,0,1-1.95-.27l-.13,0-.13,0-.13,0Z"/></g><path class="cls-1" d="M349.45,758.61c.79-3.32,1.42-6.06,1.88-8.34a37.28,37.28,0,0,0,.8-5.53,6.7,6.7,0,0,0-.5-3.29,3.33,3.33,0,0,0-2-1.63l43.46,11.7a3.27,3.27,0,0,1,1.95,1.54,6,6,0,0,1,.51,3.08,33,33,0,0,1-.7,5.17c-.41,2.13-1,4.7-1.71,7.8L372.76,857.3,327.07,853Z"/><path class="cls-1" d="M351.82,523.93a37.5,37.5,0,0,0-16.24,3,52,52,0,0,0-14.8,9.53A64.19,64.19,0,0,0,308.87,551a67.09,67.09,0,0,0-7.57,18.24,61.8,61.8,0,0,0-1.71,10.7,53.6,53.6,0,0,0,.25,10.25,44.86,44.86,0,0,0,2.19,9.48,38.15,38.15,0,0,0,4.11,8.38l1.25,1.88-2.24.52a50.58,50.58,0,0,0-15.62,6.7,66.18,66.18,0,0,0-13.67,11.71A78.69,78.69,0,0,0,265,644.45a82.15,82.15,0,0,0-7.11,18.44l-40.07,159L327.07,853l22.38-94.43c.79-3.32,1.42-6.06,1.88-8.34a37.28,37.28,0,0,0,.8-5.53,6.7,6.7,0,0,0-.5-3.29,3.33,3.33,0,0,0-2-1.63,5.72,5.72,0,0,0-2.33,0,9.55,9.55,0,0,0-2.34.84,22.22,22.22,0,0,0-2.35,1.39c-.78.52-1.55,1.08-2.32,1.64-.54.39-1.09.79-1.64,1.17s-1.1.76-1.64,1.1-1.1.66-1.64.94a11.47,11.47,0,0,1-1.61.67,18.33,18.33,0,0,1-2.34.61,18.72,18.72,0,0,1-2.34.3,15.76,15.76,0,0,1-2.28,0,16.1,16.1,0,0,1-2.21-.3,15.59,15.59,0,0,1-2.08-.6,14.38,14.38,0,0,1-1.91-.88,12.47,12.47,0,0,1-1.74-1.15,13.9,13.9,0,0,1-1.55-1.43,13.55,13.55,0,0,1-2.73-4.38,20.55,20.55,0,0,1-1.29-5.78,36.82,36.82,0,0,1,.11-7.15,66.72,66.72,0,0,1,1.53-8.51,64.8,64.8,0,0,1,2.55-8.29,39.33,39.33,0,0,1,3.2-6.53,23.24,23.24,0,0,1,3.83-4.74,15.91,15.91,0,0,1,4.48-3,14.77,14.77,0,0,1,2.06-.71,14.65,14.65,0,0,1,4.23-.51,15.79,15.79,0,0,1,2.16.21,16.31,16.31,0,0,1,2.14.53,15.15,15.15,0,0,1,2.07.83,16.18,16.18,0,0,1,2,1.12,18.61,18.61,0,0,1,1.85,1.39,9.33,9.33,0,0,1,1.15,1.19,16.06,16.06,0,0,1,1.06,1.43c.35.51.68,1.05,1,1.59s.65,1.11,1,1.67c.44.78.89,1.56,1.35,2.31a20.3,20.3,0,0,0,1.44,2.1,9,9,0,0,0,1.61,1.6,4.36,4.36,0,0,0,1.82.83,4.3,4.3,0,0,0,2.84-.71,6.75,6.75,0,0,0,2.09-2.78,32.93,32.93,0,0,0,1.82-5.28c.62-2.22,1.27-4.92,2-8.18l9.43-39.8c.23-1,.47-1.91.73-2.86s.53-1.91.81-2.86.59-1.9.9-2.84.65-1.89,1-2.82a53.61,53.61,0,0,0-3.75-8.74,47.74,47.74,0,0,0-5-7.51,42.86,42.86,0,0,0-6.06-6.13,38.27,38.27,0,0,0-7-4.6l-2-1,2.2-1.55a58.44,58.44,0,0,0,8.46-7.32,64.31,64.31,0,0,0,7.15-9A67.2,67.2,0,0,0,380.85,576a57.48,57.48,0,0,0,1.35-19.77,42.89,42.89,0,0,0-5.15-16.39,32.06,32.06,0,0,0-10.5-11.29A29.9,29.9,0,0,0,351.82,523.93Z"/><path class="cls-1" d="M348.14,758.3c.83-3.52,1.44-6.13,1.87-8.3a35.89,35.89,0,0,0,.78-5.31,5.53,5.53,0,0,0-.36-2.62,1.94,1.94,0,0,0-1.17-1,4.26,4.26,0,0,0-1.7,0,8.29,8.29,0,0,0-2,.73,20,20,0,0,0-2.19,1.29c-.76.52-1.52,1.07-2.28,1.62-.58.42-1.12.81-1.66,1.18s-1.13.79-1.7,1.14-1.17.71-1.74,1a13.19,13.19,0,0,1-1.8.76,22.32,22.32,0,0,1-2.2.58l-.31.06a19.43,19.43,0,0,1-2.5.32,18.51,18.51,0,0,1-2.47,0,17.19,17.19,0,0,1-2.39-.34,15.57,15.57,0,0,1-2.27-.65,15.23,15.23,0,0,1-2.09-1,14.5,14.5,0,0,1-1.92-1.27,15.74,15.74,0,0,1-1.71-1.57,15.17,15.17,0,0,1-3-4.81,22,22,0,0,1-1.38-6.15,37.18,37.18,0,0,1,.12-7.41,67.63,67.63,0,0,1,1.55-8.69,66.82,66.82,0,0,1,2.61-8.46,40.8,40.8,0,0,1,3.3-6.75,24.77,24.77,0,0,1,4.06-5,17.24,17.24,0,0,1,4.87-3.2,15.66,15.66,0,0,1,2.24-.78c.3-.09.62-.16.93-.23s.9-.16,1.36-.22a16.46,16.46,0,0,1,2.33-.11,17,17,0,0,1,2.34.23A17.63,17.63,0,0,1,340,694a17.11,17.11,0,0,1,2.24.89,18.89,18.89,0,0,1,2.14,1.21,19.19,19.19,0,0,1,2,1.5,12,12,0,0,1,1.31,1.34c.39.48.77,1,1.14,1.55s.7,1.09,1,1.65l1,1.69c.44.77.88,1.54,1.33,2.28a20.07,20.07,0,0,0,1.36,2,7.89,7.89,0,0,0,1.35,1.36,3.05,3.05,0,0,0,1.25.58,5.07,5.07,0,0,0,.9-.08,2.73,2.73,0,0,0,.94-.4,5.54,5.54,0,0,0,1.64-2.26,31,31,0,0,0,1.74-5.06c.64-2.29,1.33-5.15,2-8.13l9.43-39.8c.23-1,.48-1.93.74-2.9s.53-1.94.82-2.9.6-1.92.92-2.88c.27-.81.54-1.61.84-2.41a53.84,53.84,0,0,0-3.51-8.08,47.31,47.31,0,0,0-4.85-7.31,41.69,41.69,0,0,0-5.87-5.93,36.93,36.93,0,0,0-6.73-4.44l-4-2.06,4-2.83a57.21,57.21,0,0,0,8.27-7.15,63.15,63.15,0,0,0,7-8.77,66.11,66.11,0,0,0,9.11-20.95,56,56,0,0,0,1.32-19.3,41.41,41.41,0,0,0-5-15.89,30.4,30.4,0,0,0-10.06-10.81,28.32,28.32,0,0,0-14.06-4.43,34.12,34.12,0,0,0-8.61.7,40,40,0,0,0-7,2.19,50.26,50.26,0,0,0-14.42,9.29A62.87,62.87,0,0,0,310,551.7a65.41,65.41,0,0,0-7.41,17.87A60.18,60.18,0,0,0,300.93,580a53.44,53.44,0,0,0,.24,10,44.46,44.46,0,0,0,2.12,9.19,37.35,37.35,0,0,0,4,8.09l2.3,3.49-4.11,1a49.35,49.35,0,0,0-15.21,6.53,64.6,64.6,0,0,0-13.39,11.47,77,77,0,0,0-10.64,15.32,80.38,80.38,0,0,0-7,18.14L219.48,820.91l106.61,30.45Z"/><path class="cls-2" d="M508.42,592.6a76.18,76.18,0,0,0,11.39-9.37,79.45,79.45,0,0,0,16.66-24.42,76.85,76.85,0,0,0,4.57-14.1,67.45,67.45,0,0,0,1.58-16,57.56,57.56,0,0,0-2.17-14.56A49.7,49.7,0,0,0,535,501.63a46.08,46.08,0,0,0-3.86-5.35,44.42,44.42,0,0,0-4.53-4.67h0l33,29.29a44.24,44.24,0,0,1,8,9.53A48.35,48.35,0,0,1,573,542.28,54.12,54.12,0,0,1,575.12,556a62,62,0,0,1-1.37,14.95A68.73,68.73,0,0,1,569.53,584a71.88,71.88,0,0,1-15.59,22.62,69.6,69.6,0,0,1-10.74,8.62l-2.43,1.58-34.93-22.52Z"/><g class="cls-6"><path class="cls-11" d="M511,773.58l-38.1-11c0,1,.1,2,.21,3a25.85,25.85,0,0,0,.46,2.75,24,24,0,0,0,.69,2.53,20.69,20.69,0,0,0,.95,2.31l38.08,10.28a18.78,18.78,0,0,1-.92-2.15,21.54,21.54,0,0,1-.69-2.36,25,25,0,0,1-.45-2.57C511.1,775.46,511,774.53,511,773.58Z"/><g class="cls-12"><g class="cls-6"><path class="cls-2" d="M487,782.48l37.56,9.7a21.93,21.93,0,0,1-2.21-.71,18.35,18.35,0,0,1-2.06-1,17.64,17.64,0,0,1-1.89-1.19,16.07,16.07,0,0,1-5.18-6.09,21.39,21.39,0,0,1-1.86-6.09,35,35,0,0,1-.29-7.5,65.08,65.08,0,0,1,3.77-17.49,35.78,35.78,0,0,1,3.35-6.73,22.2,22.2,0,0,1,4.2-4.87,17.09,17.09,0,0,1,5.06-3,20,20,0,0,1,2.37-.69,18.43,18.43,0,0,1,2.44-.37,18.76,18.76,0,0,1,2.49,0,20.16,20.16,0,0,1,2.54.29c.34.06.67.12,1,.2s.66.16,1,.25l1,.3,1,.35L505.14,724c-.34-.13-.69-.26-1-.37s-.69-.22-1-.31l-1.05-.27-1-.2a20.7,20.7,0,0,0-2.68-.29,19.17,19.17,0,0,0-2.63.07,19.94,19.94,0,0,0-2.57.41,19.21,19.21,0,0,0-2.52.77,17.76,17.76,0,0,0-5.36,3.23,24,24,0,0,0-4.47,5.25,39,39,0,0,0-3.6,7.26,67,67,0,0,0-2.71,9.27,64.72,64.72,0,0,0-1.44,9.54,38.3,38.3,0,0,0,.22,8,23.06,23.06,0,0,0,1.9,6.54,16.9,16.9,0,0,0,3.58,5,20,20,0,0,0,1.81,1.52,19.62,19.62,0,0,0,2,1.26,17.69,17.69,0,0,0,2.16,1,17.46,17.46,0,0,0,2.32.75"/></g></g><path class="cls-9" d="M511,773.58l-38.1-11c0,1,.1,2,.21,3a25.85,25.85,0,0,0,.46,2.75,24,24,0,0,0,.69,2.53,20.69,20.69,0,0,0,.95,2.31l38.08,10.28a18.78,18.78,0,0,1-.92-2.15,21.54,21.54,0,0,1-.69-2.36,25,25,0,0,1-.45-2.57C511.1,775.46,511,774.53,511,773.58Z"/></g><path class="cls-2" d="M473.21,766.41a35.06,35.06,0,0,1-.32-3.84h0c0-.89,0-1.81,0-2.76,0-.12,0-.23,0-.35s0-.25,0-.37,0-.47,0-.71c.05-.74.12-1.49.2-2.25h0q.18-1.53.45-3.15c0-.13,0-.26.05-.39l.09-.42c.19-1.09.4-2.19.65-3.33s.53-2.23.81-3.3c0-.13.07-.28.1-.41l.12-.38c.29-1,.59-2.06.92-3v0h0c.25-.73.5-1.44.76-2.13l.27-.66c0-.11.09-.24.13-.35l.15-.32c.36-.88.73-1.73,1.13-2.53h0c.41-.82.84-1.59,1.28-2.34.06-.09.1-.2.16-.29s.11-.15.16-.24.2-.35.31-.51c.35-.54.71-1.06,1.08-1.55l0,0,.1-.12c.45-.6.92-1.16,1.4-1.69.07-.07.13-.16.2-.24a1.29,1.29,0,0,0,.17-.16c.49-.51,1-1,1.5-1.45l.1-.08.06-.06.63-.49.53-.41.07,0c.23-.17.47-.31.71-.46s.34-.24.52-.35l0,0c.28-.17.56-.31.85-.46l.45-.25h0a14.88,14.88,0,0,1,1.37-.59,19.21,19.21,0,0,1,2.52-.77,19.94,19.94,0,0,1,2.57-.41,19.17,19.17,0,0,1,2.63-.07,20.7,20.7,0,0,1,2.68.29l1,.2.08,0,1,.25c.28.07.56.16.84.25l.2.06h0c.34.11.69.24,1,.37l36.09,13.87h0l-1-.35-1-.3c-.33-.09-.66-.18-1-.25s-.67-.14-1-.2a20.16,20.16,0,0,0-2.54-.29,18.76,18.76,0,0,0-2.49,0,18.43,18.43,0,0,0-2.44.37,20,20,0,0,0-2.37.69c-.45.17-.89.35-1.32.56l-.43.22c-.28.15-.57.29-.85.45l-.49.31-.73.47-.5.39c-.21.16-.43.32-.64.5a18.28,18.28,0,0,0-1.51,1.42l-.35.37q-.68.74-1.32,1.56a.76.76,0,0,1-.11.14c-.45.6-.88,1.25-1.3,1.92l-.29.49c-.42.69-.82,1.41-1.2,2.18h0c-.37.75-.71,1.54-1,2.35-.09.2-.17.41-.26.62-.33.83-.65,1.69-.95,2.59v0c-.29.9-.57,1.85-.84,2.82-.07.24-.13.49-.2.73-.26,1-.51,2-.74,3.07s-.42,2.09-.59,3.1l-.12.76c-.16,1-.29,2-.39,2.93s-.16,1.86-.2,2.75l0,.67c0,.89,0,1.75,0,2.59a30.88,30.88,0,0,0,.34,3.57,21.39,21.39,0,0,0,1.86,6.09c.14.28.3.55.45.82s.19.37.3.54.32.49.48.72.21.32.32.47.4.5.61.75l.29.36c.31.35.65.69,1,1a15.64,15.64,0,0,0,1.74,1.42,17.64,17.64,0,0,0,1.89,1.19,18.35,18.35,0,0,0,2.06,1c.36.14.75.24,1.13.36s.71.25,1.08.35h0l-15.5-4L487,782.48h0c-.25-.06-.49-.16-.73-.23a16.42,16.42,0,0,1-1.59-.52h0c-.55-.21-1.07-.48-1.6-.74-.18-.09-.38-.16-.56-.26h0a19.3,19.3,0,0,1-1.82-1.16l-.16-.1h0a18.33,18.33,0,0,1-1.81-1.51,14.68,14.68,0,0,1-1-1.07l0,0-.31-.39c-.2-.25-.41-.49-.59-.75l0,0c-.12-.16-.22-.34-.33-.51s-.32-.45-.47-.7l0-.06c-.12-.19-.21-.4-.32-.59s-.26-.45-.37-.68h0c0-.07-.07-.13-.1-.19A23.06,23.06,0,0,1,473.21,766.41Z"/><g class="cls-6"><path class="cls-11" d="M522.66,745,558,757.53a9.4,9.4,0,0,1-2.45-1.33,14.93,14.93,0,0,1-2.12-2,26.62,26.62,0,0,1-1.9-2.37c-.61-.83-1.19-1.69-1.77-2.55l-1.15-1.66c-.38-.54-.76-1.06-1.14-1.55s-.76-.94-1.15-1.35a10.6,10.6,0,0,0-1.18-1.08c-.4-.31-.81-.59-1.23-.87s-.84-.52-1.27-.76-.87-.47-1.31-.67-.9-.4-1.35-.57l-36.19-13.64c.48.18.95.38,1.42.59s.92.46,1.38.71.9.52,1.33.81.87.6,1.29.92a11,11,0,0,1,1.24,1.16q.6.66,1.2,1.44c.39.52.79,1.08,1.19,1.65l1.2,1.78c.6.91,1.21,1.84,1.84,2.73a30,30,0,0,0,2,2.53,15,15,0,0,0,2.22,2.09A9.78,9.78,0,0,0,522.66,745Z"/><g class="cls-13"><path class="cls-2" d="M522.66,745,558,757.53a9.4,9.4,0,0,1-2.45-1.33,14.93,14.93,0,0,1-2.12-2,26.62,26.62,0,0,1-1.9-2.37c-.61-.83-1.19-1.69-1.77-2.55l-1.15-1.66c-.38-.54-.76-1.06-1.14-1.55s-.76-.94-1.15-1.35a10.6,10.6,0,0,0-1.18-1.08c-.4-.31-.81-.59-1.23-.87s-.84-.52-1.27-.76-.87-.47-1.31-.67-.9-.4-1.35-.57l-36.19-13.64c.48.18.95.38,1.42.59s.92.46,1.38.71.9.52,1.33.81.87.6,1.29.92a11,11,0,0,1,1.24,1.16q.6.66,1.2,1.44c.39.52.79,1.08,1.19,1.65l1.2,1.78c.6.91,1.21,1.84,1.84,2.73a30,30,0,0,0,2,2.53,15,15,0,0,0,2.22,2.09,9.78,9.78,0,0,0,2.57,1.41"/></g><path class="cls-9" d="M522.66,745,558,757.53a9.4,9.4,0,0,1-2.45-1.33,14.93,14.93,0,0,1-2.12-2,26.62,26.62,0,0,1-1.9-2.37c-.61-.83-1.19-1.69-1.77-2.55l-1.15-1.66c-.38-.54-.76-1.06-1.14-1.55s-.76-.94-1.15-1.35a10.6,10.6,0,0,0-1.18-1.08c-.4-.31-.81-.59-1.23-.87s-.84-.52-1.27-.76-.87-.47-1.31-.67-.9-.4-1.35-.57l-36.19-13.64c.48.18.95.38,1.42.59s.92.46,1.38.71.9.52,1.33.81.87.6,1.29.92a11,11,0,0,1,1.24,1.16q.6.66,1.2,1.44c.39.52.79,1.08,1.19,1.65l1.2,1.78c.6.91,1.21,1.84,1.84,2.73a30,30,0,0,0,2,2.53,15,15,0,0,0,2.22,2.09A9.78,9.78,0,0,0,522.66,745Z"/></g><g class="cls-6"><path class="cls-11" d="M559.05,754.47l.2.07.21.06.2,0,.21,0-35.2-12.77-.22,0-.22-.06-.21-.06-.22-.07Z"/><g class="cls-14"><g class="cls-6"><path class="cls-2" d="M523.81,741.69l35.24,12.78.2.07.21.06.2,0,.21,0-35.2-12.77-.22,0-.22-.06-.21-.06-.21-.07"/></g></g><path class="cls-9" d="M559.05,754.47l.2.07.21.06.2,0,.21,0-35.2-12.77-.22,0-.22-.06-.21-.06-.22-.07Z"/></g><path class="cls-2" d="M528.16,741.19a7.08,7.08,0,0,0,2.44-3.09,34.48,34.48,0,0,0,2-5.91c.64-2.49,1.3-5.52,2.09-9.18l9.54-44.63A88.12,88.12,0,0,0,546,654.3a79.33,79.33,0,0,0-4.57-22.09,69,69,0,0,0-10.17-18.62,60.49,60.49,0,0,0-15-13.86l3.68,2.38,1.82,1.18.66.43,2.62,1.7.31.2.09.06,1.63,1.05,1.83,1.18,1.28.83.83.54,3.1,2,.51.33,4,2.59.6.38,3.34,2.17,1.6,1,2.8,1.81.52.34,3.22,2.08a58.8,58.8,0,0,1,14.31,13.13,65.94,65.94,0,0,1,9.79,17.5,73.9,73.9,0,0,1,4.49,20.65,80.81,80.81,0,0,1-1.53,22.42l-8.66,41.44c-.71,3.4-1.31,6.22-1.9,8.53a30.32,30.32,0,0,1-1.82,5.48,6.46,6.46,0,0,1-2.28,2.85,5.25,5.25,0,0,1-3.29.66l-35.2-12.77A5.53,5.53,0,0,0,528.16,741.19Z"/><g class="cls-6"><path class="cls-11" d="M487.69,779.11,525.18,789l.22.06.23.06.22.05.23,0a17.84,17.84,0,0,0,2.31.33,18.68,18.68,0,0,0,2.37,0,20.44,20.44,0,0,0,4.79-.73,11.52,11.52,0,0,0,1.54-.56c.53-.24,1.07-.52,1.62-.82s1.11-.65,1.68-1,1.15-.74,1.74-1.13c1-.63,2-1.28,3-1.87a25.88,25.88,0,0,1,3-1.59,13.28,13.28,0,0,1,3.08-.94,8.39,8.39,0,0,1,3.12,0l.17,0,.18,0,.17,0,.17.05-35.73-10.72-.18-.05-.18,0-.18,0-.18,0a8.93,8.93,0,0,0-3.3,0,14,14,0,0,0-3.27,1A27.9,27.9,0,0,0,508.8,773c-1.07.65-2.13,1.35-3.18,2l-1.84,1.22c-.61.39-1.21.76-1.79,1.09s-1.16.64-1.72.9a11.75,11.75,0,0,1-1.63.62,22.88,22.88,0,0,1-2.53.55,20.06,20.06,0,0,1-2.54.26,20.79,20.79,0,0,1-2.5,0,18,18,0,0,1-2.43-.35l-.24-.05-.24,0-.23-.06Z"/><g class="cls-15"><path class="cls-2" d="M487.69,779.11,525.18,789l.22.06.23.06.22.05.23,0a17.84,17.84,0,0,0,2.31.33,18.68,18.68,0,0,0,2.37,0,20.44,20.44,0,0,0,4.79-.73,11.52,11.52,0,0,0,1.54-.56c.53-.24,1.07-.52,1.62-.82s1.11-.65,1.68-1,1.15-.74,1.74-1.13c1-.63,2-1.28,3-1.87a25.88,25.88,0,0,1,3-1.59,13.28,13.28,0,0,1,3.08-.94,8.39,8.39,0,0,1,3.12,0l.17,0,.18,0,.17,0,.17.05-35.73-10.72-.18-.05-.18,0-.18,0-.18,0a8.93,8.93,0,0,0-3.3,0,14,14,0,0,0-3.27,1A27.9,27.9,0,0,0,508.8,773c-1.07.65-2.13,1.35-3.18,2l-1.84,1.22c-.61.39-1.21.76-1.79,1.09s-1.16.64-1.72.9a11.75,11.75,0,0,1-1.63.62,22.88,22.88,0,0,1-2.53.55,20.06,20.06,0,0,1-2.54.26,20.79,20.79,0,0,1-2.5,0,18,18,0,0,1-2.43-.35l-.24-.05-.24,0-.23-.06-.24-.06"/></g><path class="cls-9" d="M487.69,779.11,525.18,789l.22.06.23.06.22.05.23,0a17.84,17.84,0,0,0,2.31.33,18.68,18.68,0,0,0,2.37,0,20.44,20.44,0,0,0,4.79-.73,11.52,11.52,0,0,0,1.54-.56c.53-.24,1.07-.52,1.62-.82s1.11-.65,1.68-1,1.15-.74,1.74-1.13c1-.63,2-1.28,3-1.87a25.88,25.88,0,0,1,3-1.59,13.28,13.28,0,0,1,3.08-.94,8.39,8.39,0,0,1,3.12,0l.17,0,.18,0,.17,0,.17.05-35.73-10.72-.18-.05-.18,0-.18,0-.18,0a8.93,8.93,0,0,0-3.3,0,14,14,0,0,0-3.27,1A27.9,27.9,0,0,0,508.8,773c-1.07.65-2.13,1.35-3.18,2l-1.84,1.22c-.61.39-1.21.76-1.79,1.09s-1.16.64-1.72.9a11.75,11.75,0,0,1-1.63.62,22.88,22.88,0,0,1-2.53.55,20.06,20.06,0,0,1-2.54.26,20.79,20.79,0,0,1-2.5,0,18,18,0,0,1-2.43-.35l-.24-.05-.24,0-.23-.06Z"/></g><path class="cls-2" d="M497.68,480.66a56.38,56.38,0,0,0-22.21,4.3,71.16,71.16,0,0,0-19.8,12.29,79.6,79.6,0,0,0-15.52,18.37,77.29,77.29,0,0,0-9.4,22.77,69,69,0,0,0-1.8,13.3,61.1,61.1,0,0,0,.85,12.7,53.89,53.89,0,0,0,3.47,11.73,47.87,47.87,0,0,0,6.07,10.35l1.54,2-2.61.58a70.89,70.89,0,0,0-21,8.62,84.68,84.68,0,0,0-18,14.77A94.81,94.81,0,0,0,376.57,655l-9.44,39.86c-.76,3.21-1.43,6.07-2.12,8.54a39.55,39.55,0,0,1-2.19,6.23,9.83,9.83,0,0,1-2.84,3.76,6.08,6.08,0,0,1-4.05,1.13,7.84,7.84,0,0,1-2.85-1.06,10,10,0,0,1-2.23-1.88,19.93,19.93,0,0,1-1.79-2.42c-.55-.86-1.06-1.76-1.57-2.66l-.9-1.56c-.3-.5-.59-1-.89-1.44s-.61-.88-.92-1.27a8.47,8.47,0,0,0-1-1,15.93,15.93,0,0,0-1.64-1.23,13.25,13.25,0,0,0-1.75-1,14.3,14.3,0,0,0-1.83-.74,13.74,13.74,0,0,0-1.89-.47,13.33,13.33,0,0,0-1.86-.19,12.34,12.34,0,0,0-1.83.07,12.57,12.57,0,0,0-1.81.35,13.74,13.74,0,0,0-1.77.61,13,13,0,0,0-3.81,2.57,20.38,20.38,0,0,0-3.31,4.23,36,36,0,0,0-2.8,5.86,63.87,63.87,0,0,0-2.27,7.49,62.34,62.34,0,0,0-1.41,7.68,35.17,35.17,0,0,0-.17,6.4,18.84,18.84,0,0,0,1.06,5.1,11.17,11.17,0,0,0,2.3,3.78,11.81,11.81,0,0,0,1.34,1.22,11.28,11.28,0,0,0,3.14,1.74,12.76,12.76,0,0,0,1.79.51,14.07,14.07,0,0,0,1.95.27,15.29,15.29,0,0,0,2,0,16.42,16.42,0,0,0,2.06-.28,15.78,15.78,0,0,0,2.07-.54,8.5,8.5,0,0,0,1.35-.57c.47-.24.94-.52,1.43-.83s1-.64,1.48-1l1.55-1.11c.87-.64,1.76-1.27,2.64-1.87a24.87,24.87,0,0,1,2.67-1.58,11.31,11.31,0,0,1,2.68-1,6.4,6.4,0,0,1,2.65,0,6.53,6.53,0,0,1,3.63,2.66,8.55,8.55,0,0,1,1.11,4.57,33.85,33.85,0,0,1-.74,6.58c-.49,2.54-1.17,5.43-1.94,8.7l-22.39,94.6,167,47.7,22.73-106.33c.8-3.73,1.44-6.82,1.89-9.38a38.65,38.65,0,0,0,.69-6.22,7.25,7.25,0,0,0-.8-3.73,4.46,4.46,0,0,0-2.57-1.89,7.6,7.6,0,0,0-2.89,0,12.09,12.09,0,0,0-2.86.89,25,25,0,0,0-2.83,1.51c-.94.57-1.87,1.18-2.79,1.8l-2,1.28q-1,.63-2,1.2c-.66.37-1.32.72-2,1a13.73,13.73,0,0,1-1.95.73,26.92,26.92,0,0,1-2.88.62,25.56,25.56,0,0,1-2.87.28,24,24,0,0,1-2.82-.07,20.55,20.55,0,0,1-2.74-.4,21.77,21.77,0,0,1-2.61-.72,19.89,19.89,0,0,1-2.41-1,17,17,0,0,1-2.2-1.34,18.44,18.44,0,0,1-2-1.65,16.9,16.9,0,0,1-3.58-5,23.06,23.06,0,0,1-1.9-6.54,38.3,38.3,0,0,1-.22-8,64.72,64.72,0,0,1,1.44-9.54,67,67,0,0,1,2.71-9.27,39,39,0,0,1,3.6-7.26,24,24,0,0,1,4.47-5.25,17.76,17.76,0,0,1,5.36-3.23,19.21,19.21,0,0,1,2.52-.77,19.94,19.94,0,0,1,2.57-.41,19.17,19.17,0,0,1,2.63-.07,20.7,20.7,0,0,1,2.68.29,21.09,21.09,0,0,1,2.67.63,23.52,23.52,0,0,1,5.1,2.28,22,22,0,0,1,2.37,1.61,12.53,12.53,0,0,1,1.5,1.35c.47.51.94,1.06,1.39,1.64s.88,1.19,1.31,1.82.85,1.26,1.27,1.89c.6.89,1.19,1.79,1.81,2.64a26.31,26.31,0,0,0,1.91,2.39,12.1,12.1,0,0,0,2.07,1.84,5.94,5.94,0,0,0,2.3,1,5.53,5.53,0,0,0,3.49-.73,7.08,7.08,0,0,0,2.44-3.09,34.48,34.48,0,0,0,2-5.91c.64-2.49,1.31-5.52,2.09-9.18l9.54-44.63a87.81,87.81,0,0,0,1.61-26.67,77.44,77.44,0,0,0-6.17-24,66.28,66.28,0,0,0-12.87-19.35,58.6,58.6,0,0,0-18.47-13l-2.47-1.08,2.58-1.72a76.18,76.18,0,0,0,11.39-9.37,79.45,79.45,0,0,0,16.66-24.42,76.85,76.85,0,0,0,4.57-14.1,64.45,64.45,0,0,0,.72-24.83,50.86,50.86,0,0,0-8.16-20.32,43.4,43.4,0,0,0-15.27-13.69A45.33,45.33,0,0,0,497.68,480.66Z"/><path class="cls-2" d="M517.94,794.83c.84-4,1.45-6.9,1.87-9.33a36.57,36.57,0,0,0,.67-6,6,6,0,0,0-.6-3,3.2,3.2,0,0,0-1.85-1.31,6.2,6.2,0,0,0-2.23,0l-.33.06a10.82,10.82,0,0,0-2.22.73,23.31,23.31,0,0,0-2.67,1.43c-.92.56-1.84,1.17-2.74,1.77l-2,1.29c-.68.43-1.36.85-2,1.24a23,23,0,0,1-2.09,1.07,15,15,0,0,1-2.15.79c-.56.16-1.13.3-1.7.42l-1.32.24a24.24,24.24,0,0,1-3,.29,23.41,23.41,0,0,1-5.89-.49,22.11,22.11,0,0,1-2.77-.77,20.66,20.66,0,0,1-2.58-1.11,19.76,19.76,0,0,1-2.37-1.45,19.26,19.26,0,0,1-2.15-1.77,18,18,0,0,1-3.87-5.4,24.26,24.26,0,0,1-2-6.91,39.79,39.79,0,0,1-.23-8.34,72,72,0,0,1,4.24-19.19,40.74,40.74,0,0,1,3.72-7.51,25.69,25.69,0,0,1,4.73-5.54,19.38,19.38,0,0,1,5.75-3.47,21.36,21.36,0,0,1,2.69-.82l.46-.1a20.08,20.08,0,0,1,2.29-.34,21.93,21.93,0,0,1,2.81-.08,21.4,21.4,0,0,1,2.85.31,23.4,23.4,0,0,1,2.84.67,25,25,0,0,1,5.4,2.41,26.33,26.33,0,0,1,2.51,1.7,14,14,0,0,1,1.64,1.5,21.2,21.2,0,0,1,1.48,1.74c.47.6.92,1.23,1.36,1.87l1.21,1.8c.66,1,1.25,1.87,1.85,2.72a26.11,26.11,0,0,0,1.81,2.26,10.13,10.13,0,0,0,1.83,1.63,4.77,4.77,0,0,0,1.79.77,6.09,6.09,0,0,0,1.41-.1,3.13,3.13,0,0,0,1.11-.45,5.77,5.77,0,0,0,2-2.53,31.8,31.8,0,0,0,1.89-5.67c.61-2.34,1.22-5.12,2.08-9.12l9.54-44.63a86.09,86.09,0,0,0,1.59-26.26,75.89,75.89,0,0,0-6.06-23.59,64.76,64.76,0,0,0-12.61-19,57.15,57.15,0,0,0-18-12.67l-4.72-2.06,4.62-3.09a74.66,74.66,0,0,0,11.19-9.2,78,78,0,0,0,16.37-24,73.77,73.77,0,0,0,4.49-13.84,63,63,0,0,0,.72-24.31,49.27,49.27,0,0,0-7.94-19.8,41.89,41.89,0,0,0-14.81-13.26,43.75,43.75,0,0,0-20-5.05A52.29,52.29,0,0,0,486,483.12,58.83,58.83,0,0,0,476,486.2a69.51,69.51,0,0,0-19.41,12.07,77.63,77.63,0,0,0-15.26,18.05,75.45,75.45,0,0,0-9.24,22.38,68,68,0,0,0-1.76,13,59.25,59.25,0,0,0,.83,12.42,51.92,51.92,0,0,0,3.38,11.43,46.41,46.41,0,0,0,5.89,10.06l2.83,3.68-4.66,1a69.32,69.32,0,0,0-20.6,8.45,83.71,83.71,0,0,0-17.72,14.53,93.49,93.49,0,0,0-22.37,41.92l-9.44,39.86c-.74,3.12-1.43,6.07-2.13,8.59a40.11,40.11,0,0,1-2.28,6.45,11.06,11.06,0,0,1-3.25,4.26,6.94,6.94,0,0,1-2.77,1.24,8.82,8.82,0,0,1-2.15.16,9.43,9.43,0,0,1-3.48-1.26,11.28,11.28,0,0,1-2.53-2.13,20,20,0,0,1-1.93-2.6c-.56-.88-1.08-1.8-1.6-2.71-.3-.52-.59-1-.89-1.55s-.57-.94-.86-1.38a13.88,13.88,0,0,0-.83-1.16,7.32,7.32,0,0,0-.8-.84,15.91,15.91,0,0,0-1.5-1.13,14,14,0,0,0-1.59-.9,13.72,13.72,0,0,0-1.66-.67,12.92,12.92,0,0,0-1.71-.42,10.75,10.75,0,0,0-1.67-.17,11.19,11.19,0,0,0-1.64.06c-.33,0-.67.09-1,.16s-.41.09-.61.15a12,12,0,0,0-1.59.55,11.38,11.38,0,0,0-3.41,2.31,18.82,18.82,0,0,0-3.09,3.94,35,35,0,0,0-2.69,5.65,66.6,66.6,0,0,0-3.6,14.84,32.42,32.42,0,0,0-.16,6.15,17.06,17.06,0,0,0,1,4.73,10.13,10.13,0,0,0,2,3.33,11,11,0,0,0,1.19,1.08,9.6,9.6,0,0,0,1.31.87,10.2,10.2,0,0,0,1.46.67,12.38,12.38,0,0,0,1.61.46,13.92,13.92,0,0,0,3.6.23,15.48,15.48,0,0,0,1.9-.26l.18,0c.58-.13,1.16-.28,1.74-.47a8,8,0,0,0,1.15-.49c.43-.22.87-.48,1.31-.76s1-.63,1.44-1l1.48-1.07c1-.69,1.84-1.33,2.73-1.93a27.66,27.66,0,0,1,2.82-1.67,12.63,12.63,0,0,1,3-1.09h0a8,8,0,0,1,3.2-.05l.08,0,.09,0a7.8,7.8,0,0,1,4.33,3.21,9.92,9.92,0,0,1,1.32,5.27,35,35,0,0,1-.77,6.85c-.49,2.58-1.2,5.58-1.95,8.76l-22.1,93.35,164.37,47Z"/><path class="cls-2" d="M519.25,795.11c.8-3.73,1.44-6.82,1.89-9.38a38.65,38.65,0,0,0,.69-6.22,7.25,7.25,0,0,0-.8-3.73,4.46,4.46,0,0,0-2.57-1.89l35.8,10.47a4.32,4.32,0,0,1,2.45,1.77,6.57,6.57,0,0,1,.78,3.46,33.92,33.92,0,0,1-.6,5.78c-.39,2.38-1,5.24-1.7,8.69l-20.57,98.49-38.1-1.11Z"/><path class="cls-16" d="M664.72,648.51a71,71,0,0,0,21.1-19.57,69.28,69.28,0,0,0,7-12.43,66.73,66.73,0,0,0,4.24-13.59,61.54,61.54,0,0,0,1.13-13.44,55.49,55.49,0,0,0-1.81-12.56A51.83,51.83,0,0,0,692,565.6c-.47-.88-1-1.74-1.48-2.59-.68-1.11-1.42-2.18-2.18-3.23-1-1.35-2-2.66-3.1-3.9h0l24.41,27.51a48,48,0,0,1,6.39,9.12,49.25,49.25,0,0,1,4.2,10.58A51.46,51.46,0,0,1,722,614.77a55.43,55.43,0,0,1-1,12.46,59.65,59.65,0,0,1-3.89,12.55,62.37,62.37,0,0,1-6.5,11.46A64.69,64.69,0,0,1,691,669.16l-2.84,1.68-26.46-20.49Z"/><path class="cls-16" d="M648.9,538.9a61.19,61.19,0,0,0-23.23,3.41,69.1,69.1,0,0,0-20.38,11.34,71.07,71.07,0,0,0-15.64,17.42,66.81,66.81,0,0,0-9,21.94A61.92,61.92,0,0,0,579.3,606a56.35,56.35,0,0,0,1.43,12.44A52,52,0,0,0,584.87,630a50.36,50.36,0,0,0,6.82,10.31l2,2.33-3.17.58a70.13,70.13,0,0,0-11.43,3.06,75.15,75.15,0,0,0-10.84,4.89,78.11,78.11,0,0,0-10,6.57,80.47,80.47,0,0,0-9.05,8.11c-.08,1.09-.18,2.18-.3,3.26s-.25,2.18-.41,3.27-.33,2.17-.52,3.25-.4,2.15-.63,3.22l-9.54,44.71c-.77,3.61-1.45,6.81-2.17,9.58a38.34,38.34,0,0,1-2.39,7,10.23,10.23,0,0,1-3.32,4.18,7.68,7.68,0,0,1-5,1.19l-.24,0-.24,0-.24,0-.24,0a8.5,8.5,0,0,1-3-1.19,12.94,12.94,0,0,1-2.57-2.14,25.59,25.59,0,0,1-2.25-2.75c-.7-1-1.38-2-2.05-3l-1.2-1.78c-.4-.57-.8-1.13-1.19-1.65s-.8-1-1.2-1.44a11,11,0,0,0-1.24-1.16,22,22,0,0,0-2.09-1.42,20.06,20.06,0,0,0-4.52-2,19.75,19.75,0,0,0-2.36-.57,18.52,18.52,0,0,0-2.31-.25,17.17,17.17,0,0,0-2.27,0,16.25,16.25,0,0,0-2.2.35,16.64,16.64,0,0,0-2.15.66,14.61,14.61,0,0,0-4.58,2.8,21.24,21.24,0,0,0-3.86,4.68,37.11,37.11,0,0,0-3.14,6.53,63.43,63.43,0,0,0-2.41,8.38A61.06,61.06,0,0,0,476,758a35.46,35.46,0,0,0,.12,7.2,19.91,19.91,0,0,0,1.57,5.76,13.63,13.63,0,0,0,3,4.32,15.87,15.87,0,0,0,3.6,2.55,15.49,15.49,0,0,0,2.08.89,18.83,18.83,0,0,0,4.67,1,20.79,20.79,0,0,0,2.5,0,20.06,20.06,0,0,0,2.54-.26,22.88,22.88,0,0,0,2.53-.55,11.75,11.75,0,0,0,1.63-.62c.56-.26,1.13-.56,1.72-.9s1.18-.7,1.79-1.09l1.84-1.22c1.05-.69,2.11-1.39,3.18-2a27.9,27.9,0,0,1,3.22-1.72,14,14,0,0,1,3.27-1,8.93,8.93,0,0,1,3.3,0l.23.05.24.06.23.06.23.08a7.34,7.34,0,0,1,4.09,2.94A9.84,9.84,0,0,1,525,778.6a38.37,38.37,0,0,1-.68,7.39c-.48,2.86-1.17,6.11-2,9.78L499.59,902.32l164.93,47.11,41.24-215.78a78.77,78.77,0,0,0,.63-25.9A75.47,75.47,0,0,0,699,684.18a71.45,71.45,0,0,0-14.3-19.26,67.86,67.86,0,0,0-19.95-13.23l-3-1.34,3.05-1.84a71,71,0,0,0,21.1-19.57,69.28,69.28,0,0,0,7-12.43,66.73,66.73,0,0,0,4.24-13.59,58.49,58.49,0,0,0-.23-24.19,51.76,51.76,0,0,0-9.39-20.12,49.83,49.83,0,0,0-16.61-13.9A53.22,53.22,0,0,0,648.9,538.9Z"/><path class="cls-16" d="M704.43,733.4a77.26,77.26,0,0,0,.63-25.46,74.31,74.31,0,0,0-7.3-23.15,70.05,70.05,0,0,0-14-18.9,66.67,66.67,0,0,0-19.55-13l-5.44-2.37,5.28-3.19a69.55,69.55,0,0,0,20.7-19.2A67.11,67.11,0,0,0,691.61,616a64.11,64.11,0,0,0,4.15-13.31,56.77,56.77,0,0,0-.21-23.63,50.31,50.31,0,0,0-9.14-19.6,48.43,48.43,0,0,0-16.17-13.52,51.85,51.85,0,0,0-21.4-5.67,58.61,58.61,0,0,0-15,1.19,61.58,61.58,0,0,0-7.78,2.16,67.39,67.39,0,0,0-20,11.11,69.71,69.71,0,0,0-15.34,17.09,65.19,65.19,0,0,0-8.82,21.5,60.08,60.08,0,0,0-1.32,12.65A55.06,55.06,0,0,0,582,618.09a51.43,51.43,0,0,0,4,11.27,49.66,49.66,0,0,0,6.64,10l3.51,4.1-5.47,1c-.63.11-1.25.23-1.88.36a73.09,73.09,0,0,0-9.34,2.64,74,74,0,0,0-10.65,4.81,77.13,77.13,0,0,0-9.87,6.46,79.26,79.26,0,0,0-8.56,7.62c-.08.94-.17,1.89-.27,2.83-.12,1.1-.26,2.21-.42,3.31s-.33,2.2-.53,3.29-.4,2.19-.64,3.27l-9.54,44.71c-.78,3.7-1.46,6.85-2.18,9.64a38.65,38.65,0,0,1-2.48,7.23,11.57,11.57,0,0,1-3.78,4.71,8.24,8.24,0,0,1-2.94,1.23,10.56,10.56,0,0,1-2.85.18l-.57,0-.54-.08a10.21,10.21,0,0,1-3.51-1.38,14.55,14.55,0,0,1-2.84-2.35A27.68,27.68,0,0,1,515,740c-.72-1-1.4-2-2.09-3.07-.39-.59-.79-1.18-1.18-1.75s-.77-1.1-1.15-1.6a17.45,17.45,0,0,0-1.12-1.35,9.77,9.77,0,0,0-1.08-1,20.88,20.88,0,0,0-1.95-1.33,21.44,21.44,0,0,0-2.07-1.08,20,20,0,0,0-2.15-.8,17.72,17.72,0,0,0-4.34-.77,16.1,16.1,0,0,0-2.09,0,17,17,0,0,0-1.74.26l-.28.06a17.18,17.18,0,0,0-2,.6,13.55,13.55,0,0,0-4.17,2.56,20.17,20.17,0,0,0-3.61,4.39,35.68,35.68,0,0,0-3,6.28,67.16,67.16,0,0,0-3.66,16.62,34.16,34.16,0,0,0,.11,6.92,19,19,0,0,0,1.46,5.38,12.54,12.54,0,0,0,2.75,3.9,13.88,13.88,0,0,0,1.56,1.29,14.37,14.37,0,0,0,1.72,1,15.65,15.65,0,0,0,1.91.81,16,16,0,0,0,2.08.58,19,19,0,0,0,2.25.32,20.27,20.27,0,0,0,2.34,0,21.85,21.85,0,0,0,2.38-.25c.33,0,.65-.11,1-.18s.94-.21,1.41-.34a10.42,10.42,0,0,0,1.43-.54c.53-.24,1.06-.53,1.61-.84s1.14-.69,1.73-1.06l1.83-1.21c1.06-.71,2.14-1.41,3.22-2.07a29.46,29.46,0,0,1,3.37-1.8,15.68,15.68,0,0,1,3.19-1.06l.4-.08a10.26,10.26,0,0,1,3.79,0l.55.13.55.16a8.64,8.64,0,0,1,4.79,3.49,11.11,11.11,0,0,1,1.56,5.8,39.08,39.08,0,0,1-.69,7.66c-.49,2.9-1.18,6.11-2,9.84L501.17,901.37l162.31,46.36Z"/><path class="cls-16" d="M705.76,733.65a79.3,79.3,0,0,0,1.15-21.32,76.87,76.87,0,0,0-4.4-20,73.4,73.4,0,0,0-9.31-17.58,69.77,69.77,0,0,0-13.53-14.14L705,680.52a66.68,66.68,0,0,1,12.72,13.22,69.09,69.09,0,0,1,8.77,16.34,70.73,70.73,0,0,1,4.2,18.53,72.3,72.3,0,0,1-1,19.68l-37.22,198.4-28,2.74Z"/></g></g></svg>