<svg xmlns="http://www.w3.org/2000/svg" viewBox="0 0 743.64 852.71"><defs><style>.cls-1,.cls-10,.cls-11,.cls-12,.cls-13,.cls-14,.cls-15,.cls-16,.cls-17,.cls-18,.cls-19,.cls-2,.cls-21,.cls-22,.cls-3,.cls-4,.cls-5,.cls-6,.cls-7,.cls-8,.cls-9{fill:#1a1a1a;}.cls-1{opacity:0.7;}.cls-2{opacity:0.84;}.cls-3{opacity:0.75;}.cls-4{opacity:0.49;}.cls-5{opacity:0.22;}.cls-6{opacity:0.62;}.cls-7{opacity:0.86;}.cls-8{opacity:0.35;}.cls-9{opacity:0.48;}.cls-10{opacity:0.98;}.cls-11{opacity:0.21;}.cls-12{opacity:0.83;}.cls-13{opacity:0.54;}.cls-14{opacity:0.28;}.cls-15{opacity:0.3;}.cls-16{opacity:0.56;}.cls-17{opacity:0.72;}.cls-18{opacity:0.5;}.cls-19{opacity:0.73;}.cls-20{fill:#fcf4ff;}.cls-21{font-size:40px;font-family:Avenir-Heavy, Avenir;font-weight:800;}.cls-22{font-size:25.61px;font-family:Montserrat-Regular, Montserrat;}.cls-23{fill:#dafffc;stroke:#1a1a1a;stroke-miterlimit:10;stroke-width:4px;}</style></defs><g id="Layer_2" data-name="Layer 2"><g id="Layer_1-2" data-name="Layer 1"><path class="cls-1" d="M371.78,594.82a.07.07,0,0,1,0-.1s0,0,0,0,0,0,0,0a.07.07,0,0,1,0,.1l0,0Zm0-.09s0,0,0,0a.06.06,0,0,0,0,0h.05v-.08h-.05Z"/><path class="cls-2" d="M371.78,594.82a.07.07,0,0,1,0-.1s0,0,0,0,0,0,0,0a.07.07,0,0,1,0,.1l0,0Zm0-.09s0,0,0,0a.06.06,0,0,0,0,0h.05v-.08h-.05Z"/><path class="cls-3" d="M371.78,492.46a.07.07,0,0,1,0-.1s0,0,0,0,0,0,0,0a.07.07,0,0,1,0,.1l0,0Zm0-.09s0,0,0,0a.06.06,0,0,0,0,0h.05v-.08h-.05Z"/><path class="cls-4" d="M371.8,492.34h.05v.14h0v-.12h0Z"/><path class="cls-5" d="M371.81,510h0v.06h0V510h0Z"/><path class="cls-2" d="M371.78,510.1a.07.07,0,0,1,0-.1s0,0,0,0,0,0,0,0a.07.07,0,0,1,0,.1l0,0Zm0-.09s0,0,0,0a.06.06,0,0,0,0,0s0,0,0,0h0V510h-.05Z"/><path class="cls-6" d="M371.8,510h.05v.14h0V510h0Z"/><path class="cls-3" d="M371.81,527.66h0v.07h0v-.06h0Z"/><path class="cls-7" d="M371.8,527.62h.05v.14h0v-.12h0Z"/><path class="cls-8" d="M371.78,527.74a.07.07,0,0,1,0-.1l0,0,0,0a.07.07,0,0,1,0,.1s0,0,0,0S371.79,527.76,371.78,527.74Zm0-.09s0,0,0,0,0,0,0,0h.05v-.08h-.05Z"/><path class="cls-9" d="M371.81,545.3h0v.07h0v-.06h0Z"/><path class="cls-10" d="M371.78,545.38a.07.07,0,0,1,0-.1l0,0,0,0a.07.07,0,0,1,0,.1s0,0,0,0S371.79,545.4,371.78,545.38Zm0-.09a.06.06,0,0,0,0,0s0,0,0,0h.05v-.08h-.05Z"/><path class="cls-11" d="M371.8,545.26h.05v.14h0v-.12h0Z"/><path class="cls-12" d="M371.81,562.94h0V563h0V563h0Z"/><path class="cls-13" d="M371.78,563a.07.07,0,0,1,0-.1l0,0,0,0a.07.07,0,0,1,0,.1s0,0,0,0S371.79,563,371.78,563Zm0-.09a.06.06,0,0,0,0,0s0,0,0,0h.05v-.08h-.05Z"/><path class="cls-14" d="M371.78,562.87h.08v.21h0v-.18h-.05Z"/><path class="cls-15" d="M371.8,580.64v0h0s0,0,0,0a0,0,0,0,1,0,0h0Zm0,0v0h0s0,0,0,0v0h0Z"/><path class="cls-16" d="M371.8,580.54h.05v.14h0v-.11h0Z"/><path class="cls-17" d="M371.76,580.69s0,0,0-.08a.11.11,0,0,1,0-.08.08.08,0,0,1,.12,0,.11.11,0,0,1,0,.08.1.1,0,0,1,0,.08.07.07,0,0,1-.12,0Zm0-.13a.07.07,0,0,0,0,.05.11.11,0,0,0,0,.06l0,0,0,0a.11.11,0,0,0,0-.06.07.07,0,0,0,0-.05s0,0,0,0S371.79,580.54,371.78,580.56Z"/><path class="cls-18" d="M371.81,598.22h0v.07h0v-.06h0Z"/><path class="cls-10" d="M371.78,598.31a.11.11,0,0,1,0-.06.08.08,0,0,1,0,0l0,0,0,0a.08.08,0,0,1,0,0,.11.11,0,0,1,0,.06l0,0Zm0-.09a0,0,0,0,0,0,0s0,0,0,0l0,0,0,0v-.07l0,0Z"/><path class="cls-19" d="M371.8,598.19h.05v.13h0v-.11h0Z"/><rect class="cls-20" width="743.64" height="852.71" rx="23.96"/><text class="cls-21" transform="translate(248.04 572.3)">Ultra Secure.</text><text class="cls-22" transform="translate(152.29 628.03)">Enjoy the most secure end-to-end <tspan x="-42.46" y="30.73">encryption (powered by the open-source </tspan><tspan x="-41.13" y="61.46">Digital Twin Protocol) in the world. And a </tspan><tspan x="-62.84" y="92.18">unique storage algorithm ensures your data </tspan><tspan x="72.36" y="122.91">can&apos;t be hacked or lost.</tspan></text><path class="cls-23" d="M500.46,290.46l-25.28-14.6,93.21-53.81c4.4-2.54,4.4-6.68,0-9.22l-95.22-55c-4.41-2.54-11.57-2.54-16,0L364,211.67l-25.29-14.6,93.22-53.82c18.34-10.58,48.18-10.58,66.53,0l95.22,55c18.34,10.59,18.34,27.83,0,38.41Z"/><path class="cls-23" d="M541.25,296.89c0-13.52-8.21-29.22-18.35-35.07L354,164.31c-4.54-2.62-8.69-2.8-11.89-1h0L140.47,280.47l195,146.93L534.13,312.1a9.08,9.08,0,0,0,1.75-1h0C539.2,308.57,541.25,303.64,541.25,296.89Z"/><path class="cls-23" d="M335.47,427.4,534.13,312.1a9.08,9.08,0,0,0,1.75-1h0c3.32-2.51,5.37-7.44,5.37-14.19a45,45,0,0,0-4.94-19.53L309.85,408.1Z"/><path class="cls-23" d="M322.77,426.88l-168.88-97.5c-10.14-5.85-18.36-21.55-18.36-35.07h0c0-13.52,8.22-19.73,18.36-13.88l168.88,97.51c10.14,5.85,18.35,21.55,18.35,35.07h0C341.12,426.52,332.91,432.74,322.77,426.88Z"/><path class="cls-23" d="M297.47,394l-20.3-11.71c-2-1.17-3.66-4.3-3.66-7h0c0-2.7,1.64-3.94,3.66-2.77l20.3,11.71c2,1.17,3.66,4.3,3.66,7h0C301.13,393.93,299.49,395.17,297.47,394Z"/></g></g></svg>