<svg xmlns="http://www.w3.org/2000/svg" xmlns:xlink="http://www.w3.org/1999/xlink" viewBox="0 0 1771.36 1166.31"><defs><style>.cls-1{fill:none;}.cls-2{fill:#e9ffe3;}.cls-3{font-size:40px;font-family:Avenir-Heavy, Avenir;font-weight:800;}.cls-10,.cls-3,.cls-4{fill:#1a1a1a;}.cls-4{font-size:25.61px;font-family:Montserrat-Regular, Montserrat;}.cls-5{clip-path:url(#clip-path);}.cls-6{clip-path:url(#clip-path-2);}.cls-7{fill:#333;}.cls-8{fill:#edff9f;}.cls-9{fill:#3fffbe;}</style><clipPath id="clip-path"><rect class="cls-1" x="996.17" y="31.64" width="672.67" height="587" rx="23.96"/></clipPath><clipPath id="clip-path-2"><rect class="cls-1" x="1028.02" y="46.91" width="580.45" height="732.08"/></clipPath></defs><g id="Layer_2" data-name="Layer 2"><g id="Layer_1-2" data-name="Layer 1"><rect class="cls-2" width="1771.36" height="618.64" rx="23.96"/><text class="cls-3" transform="translate(230.08 254.17)">Coming Soon to Digital Twin.</text><text class="cls-4" transform="translate(162.16 327.89)">The frst version of Digital Twin Payments will soon be <tspan x="1.96" y="30.73">availabe as a web application. We&apos;ll be going native in </tspan><tspan x="9.11" y="61.46">the upcoming weeks to provide you with a seamless </tspan><tspan x="175.84" y="92.18">mobile experience as well!</tspan></text><g class="cls-5"><g class="cls-6"><path class="cls-7" d="M1490.52,103.43H1148.88a66.21,66.21,0,0,0-66.21,66.21V265.9h-.28a4.27,4.27,0,0,0-4.27,4.27V430.79a4.27,4.27,0,0,0,4.27,4.27h.28v19.47h-.28a4.27,4.27,0,0,0-4.27,4.27v60.83a4.27,4.27,0,0,0,4.27,4.27h.28V997.46a66.21,66.21,0,0,0,66.21,66.21h341.64a66.21,66.21,0,0,0,66.21-66.21V169.64A66.21,66.21,0,0,0,1490.52,103.43Z"/><path class="cls-8" d="M1494.33,125.16H1433a14.06,14.06,0,0,0-14.08,14.09,14.24,14.24,0,0,1-14.08,14.3h-170.3a14.25,14.25,0,0,1-14.08-14.3,14.06,14.06,0,0,0-14.08-14.09h-61.31a37.26,37.26,0,0,0-8.45.87,49.88,49.88,0,0,0-41.82,49.18V991.89a50.13,50.13,0,0,0,50.27,50.05h349.25a50.12,50.12,0,0,0,50.26-50.05V175.21A50.12,50.12,0,0,0,1494.33,125.16Z"/></g><path class="cls-7" d="M1520.48,104.2H1142.59a73.24,73.24,0,0,0-73.24,73.24V283.91H1069a4.71,4.71,0,0,0-4.71,4.72V466.29A4.71,4.71,0,0,0,1069,471h.31v21.54H1069a4.72,4.72,0,0,0-4.71,4.72v67.29a4.71,4.71,0,0,0,4.71,4.72h.31v523.8a73.24,73.24,0,0,0,73.24,73.24h377.89a73.24,73.24,0,0,0,73.23-73.24V177.44A73.24,73.24,0,0,0,1520.48,104.2Z"/><path class="cls-9" d="M1524.68,128.24h-67.81a15.55,15.55,0,0,0-15.58,15.58,15.75,15.75,0,0,1-15.57,15.81H1237.36a15.75,15.75,0,0,1-15.58-15.81,15.55,15.55,0,0,0-15.58-15.58h-67.81a41.25,41.25,0,0,0-9.35,1,55.16,55.16,0,0,0-46.25,54.4v903.32a55.43,55.43,0,0,0,55.6,55.35h386.29a55.43,55.43,0,0,0,55.6-55.35V183.6A55.43,55.43,0,0,0,1524.68,128.24Z"/></g><path class="cls-10" d="M1211.5,345.29v49.56h-9.15v-5.44q-3.51,6.27-11.43,6.26a15.23,15.23,0,0,1-8-2.23,16.38,16.38,0,0,1-6-6.44,20.46,20.46,0,0,1-2.27-9.91,22.25,22.25,0,0,1,2.13-10.09,15.23,15.23,0,0,1,5.75-6.4,15.07,15.07,0,0,1,7.88-2.16q7,0,10.81,4.75v-17.9ZM1199,384.76a12.22,12.22,0,0,0,2.21-7.67,12.41,12.41,0,0,0-2.21-7.71,6.9,6.9,0,0,0-5.78-2.89,7.13,7.13,0,0,0-6,2.89,12.29,12.29,0,0,0-2.24,7.71,12,12,0,0,0,2.27,7.64,7.18,7.18,0,0,0,5.92,2.89A6.92,6.92,0,0,0,1199,384.76Z"/><path class="cls-10" d="M1218,352.83a5.75,5.75,0,0,1-1.65-4.17,5.53,5.53,0,0,1,1.65-4.06,5.79,5.79,0,0,1,4.27-1.65,5.69,5.69,0,0,1,4.2,1.65,5.53,5.53,0,0,1,1.65,4.06,5.75,5.75,0,0,1-1.65,4.17,5.64,5.64,0,0,1-4.2,1.68A5.73,5.73,0,0,1,1218,352.83Zm-.89,6.43h10.25v35.59h-10.25Z"/><path class="cls-10" d="M1269.6,359.26V393a15.09,15.09,0,0,1-4.44,11.29q-4.44,4.34-13.6,4.34-9.36,0-13.38-3.31a13.44,13.44,0,0,1-4.72-9.29h10.74a5.47,5.47,0,0,0,1.89,4q1.7,1.38,5.41,1.38a7.89,7.89,0,0,0,5.85-2q2-2,2-6v-5.16A10.42,10.42,0,0,1,1255,392a15,15,0,0,1-6.23,1.17,15.57,15.57,0,0,1-8-2.14,15.23,15.23,0,0,1-5.78-6.09,20.8,20.8,0,0,1,0-18.38,15,15,0,0,1,5.81-6.06,16.3,16.3,0,0,1,8.16-2.09,14.21,14.21,0,0,1,6.64,1.51,12.28,12.28,0,0,1,4.79,4.47v-5.16ZM1257,382.56a10.08,10.08,0,0,0,2.3-6.85A9.73,9.73,0,0,0,1257,369a7.81,7.81,0,0,0-11.6,0,11.26,11.26,0,0,0,0,13.6,7.44,7.44,0,0,0,5.82,2.61A7.31,7.31,0,0,0,1257,382.56Z"/><path class="cls-10" d="M1276.07,352.83a5.75,5.75,0,0,1-1.65-4.17,5.53,5.53,0,0,1,1.65-4.06,6.26,6.26,0,0,1,8.47,0,5.53,5.53,0,0,1,1.65,4.06,5.75,5.75,0,0,1-1.65,4.17,6.18,6.18,0,0,1-8.47,0Zm-.9,6.43h10.26v35.59h-10.26Z"/><path class="cls-10" d="M1305.87,367.59v14.32a5.08,5.08,0,0,0,1.14,3.61,4.58,4.58,0,0,0,3.48,1.21,15.61,15.61,0,0,0,2.82-.21v8.19a17.25,17.25,0,0,1-2.45.45c-.71.07-1.71.1-3,.1q-12.25,0-12.25-13V367.59h-5.44v-8.33h5.44V349.21h10.25v10.05h7.44v8.33Z"/><path class="cls-10" d="M1345.49,361.74q4.15,3.3,4.16,10.05v23.06h-9.08v-4.48q-4,5.31-11.22,5.3a15.84,15.84,0,0,1-6.78-1.37,10.8,10.8,0,0,1-4.55-3.82,9.71,9.71,0,0,1-1.62-5.48,10,10,0,0,1,3.07-7.53q3.06-2.93,9.74-3.55l10.32-1V371.1A5.26,5.26,0,0,0,1338,367a6.19,6.19,0,0,0-4.3-1.41,7.13,7.13,0,0,0-4.3,1.14,5.79,5.79,0,0,0-2.1,3.48H1317a12.22,12.22,0,0,1,5-8.75q4.24-3,11.6-3Q1341.32,358.44,1345.49,361.74Zm-8,25.19a8.87,8.87,0,0,0,1.85-5.92v-2.34l-7.7,1a6.54,6.54,0,0,0-3.79,1.61,4.3,4.3,0,0,0-1.31,3.2,4.18,4.18,0,0,0,1.52,3.31,5.9,5.9,0,0,0,4,1.31A6.73,6.73,0,0,0,1337.54,386.93Z"/><path class="cls-10" d="M1365.89,394.85h-10.25V345.29h10.25Z"/><path class="cls-10" d="M1385.18,365.27v20.31a5.6,5.6,0,0,0,1.29,4.1,4.67,4.67,0,0,0,3.46,1.28,11.76,11.76,0,0,0,2.75-.26v3.85a15.16,15.16,0,0,1-3.46.38,8.19,8.19,0,0,1-6.18-2.27c-1.48-1.52-2.21-3.73-2.21-6.63V365.27h-5.7v-3.85h5.7v-9.35h4.35v9.35h7.5v3.85Z"/><path class="cls-10" d="M1445.28,361.42l-11.91,33.13h-5L1420,368.28l-8.39,26.27h-5l-11.92-33.13h4.55l9.8,28.13,9-28.13H1422l8.91,28,9.8-28Z"/><path class="cls-10" d="M1449.32,354.31a3.14,3.14,0,0,1-1-2.3,3.26,3.26,0,0,1,1-2.38A3.35,3.35,0,0,1,1455,352a3.1,3.1,0,0,1-1,2.3,3.37,3.37,0,0,1-4.71,0Zm.19,7.11h4.36v33.13h-4.36Z"/><path class="cls-10" d="M1487.06,364.24q3.27,3.6,3.27,10.13v20.18H1486V375.13c0-3.41-.75-6-2.24-7.84a7.76,7.76,0,0,0-6.35-2.73,8.47,8.47,0,0,0-6.72,2.85q-2.51,2.86-2.5,8v19.09h-4.42V361.42H1468v5.07q3.07-5.83,10.26-5.84A11.38,11.38,0,0,1,1487.06,364.24Z"/></g></g></svg>