<svg xmlns="http://www.w3.org/2000/svg" xmlns:xlink="http://www.w3.org/1999/xlink" viewBox="0 0 1304.97 1125.9"><defs><style>.cls-1{fill:none;}.cls-2{fill:#dffbff;}.cls-3{font-size:40px;font-family:Avenir-Heavy, Avenir;font-weight:800;}.cls-3,.cls-4{fill:#1a1a1a;}.cls-4{font-size:25.61px;font-family:Montserrat-Regular, Montserrat;}.cls-5{clip-path:url(#clip-path);}.cls-6{fill:#333;}.cls-7{fill:#3fffbe;}.cls-8{clip-path:url(#clip-path-2);}.cls-9{fill:#ededed;}.cls-10{fill:#e8fff6;}.cls-11{fill:#fcffe3;}.cls-12{fill:#e9ffe3;}</style><clipPath id="clip-path" transform="translate(0 107.98)"><rect class="cls-1" x="322.35" width="660.93" height="607.91" rx="23.96"/></clipPath><clipPath id="clip-path-2" transform="translate(0 107.98)"><polygon class="cls-1" points="1089.06 305.38 618.65 528.96 539.12 205.3 981.54 -4.98 1089.06 305.38"/></clipPath></defs><g id="Layer_2" data-name="Layer 2"><g id="Layer_1-2" data-name="Layer 1"><rect class="cls-2" y="107.98" width="983.27" height="1017.91" rx="23.96"/><text class="cls-3" transform="translate(267.08 807.21)">Seamless Compatibility.</text><text class="cls-4" transform="translate(157.54 880.93)">Store any fle of any size or extension on Digital Twin <tspan x="22.67" y="30.73">File Storage. Photos, videos, presentations, PDFs, </tspan><tspan x="25.22" y="61.46">Offce fles, and more! All fles are stored on your </tspan><tspan x="15.15" y="92.18">private cloud and can be accessed via your Digital </tspan><tspan x="64.58" y="122.91">Twin at all times. All you need is your login </tspan><tspan x="111.21" y="153.64">information and you&apos;re good to go!</tspan></text><g class="cls-5"><path class="cls-6" d="M998.64-47.88a18.68,18.68,0,0,0-15.25.35L917.51-16.21l-28-58.8a18.7,18.7,0,0,0-24.91-8.86L574.85,53.87l-9.58-20.15a18.7,18.7,0,0,0-24.91-8.86L387.22,97.65a18.69,18.69,0,0,0-8.86,24.91L588.09,563.78a18.66,18.66,0,0,0,24.94,9l506.24-240.61a18.7,18.7,0,0,0,9.64-23L1009.08-36.76A18.7,18.7,0,0,0,998.64-47.88ZM420.16,123.39,539.53,66.66l9.57,20.15A18.71,18.71,0,0,0,574,95.67L863.82-42.07,883.74-.16,508.34,178.26a18.7,18.7,0,0,0-10.13,21.35L543,381.83ZM1088.1,305.56,617.69,529.15,538.16,205.49,980.58-4.79Z" transform="translate(0 107.98)"/><path class="cls-7" d="M421,123,540.32,66.28l9.57,20.15a18.69,18.69,0,0,0,24.91,8.86L864.61-42.45,884.53-.54,509.13,177.89A18.69,18.69,0,0,0,499,199.23l44.78,182.23Z" transform="translate(0 107.98)"/><g class="cls-8"><circle class="cls-9" cx="796.08" cy="227.58" r="227.52"/><circle class="cls-10" cx="579.59" cy="354.98" r="227.52"/><circle class="cls-11" cx="757.16" cy="499.02" r="205.47"/><circle class="cls-12" cx="1077.39" cy="365.11" r="227.52"/></g><path class="cls-6" d="M885.7,204.64l-2.65-11.78L860.91,203.3l-6.72-28.9-13,6.13,6.83,28.82-15.93,7.51-12.67-52.18L789,179.19l13.92,54.9q-14.73-9.14-35.25.54A57.06,57.06,0,0,0,746.45,252a60.57,60.57,0,0,0-11.35,26.82q-2.65,15.3,2.13,32.24,4.62,16.41,14.39,25.33a38.57,38.57,0,0,0,21.91,10.32,44.36,44.36,0,0,0,24.21-4.13q22.37-10.35,27.82-32.83l3.92,15.52,26-12.05L835,228.5,850.84,221l14.62,61.65c2,8.44,5.63,13.84,10.88,16.26s11.65,1.85,19.23-1.66a54.2,54.2,0,0,0,9.68-5.7l-2.51-11.14a45.44,45.44,0,0,1-7.76,4.43q-6.27,2.89-10.81.89t-6.46-10.22L863.63,215Zm-73,96.1a27.28,27.28,0,0,1-14.37,15.88q-10.38,4.81-19-.45t-12.42-19q-3.79-14,.35-25.58a28.21,28.21,0,0,1,15-16.66q10.38-4.87,19,.73t12.17,19.79Q816.95,289.54,812.73,300.74Z" transform="translate(0 107.98)"/></g></g></g></svg>