<svg xmlns="http://www.w3.org/2000/svg" viewBox="0 0 983.27 789.43"><defs><style>.cls-1{fill:#e8fff6;}.cls-2{font-size:40px;font-family:Avenir-Heavy, Avenir;font-weight:800;}.cls-2,.cls-3{fill:#1a1a1a;}.cls-3{font-size:25.61px;font-family:Montserrat-Regular, Montserrat;}.cls-4{fill:#00daa2;}</style></defs><g id="Layer_2" data-name="Layer 2"><g id="Layer_1-2" data-name="Layer 1"><rect class="cls-1" width="983.27" height="789.43" rx="23.96"/><text class="cls-2" transform="translate(292.7 149.23)">Private Environment.</text><text class="cls-3" transform="translate(153.49 222.95)">More than just an option, privacy is the foundation of <tspan x="9.44" y="30.73">how Digital Twin works. Decide where your fles are </tspan><tspan x="13.35" y="61.46">stored. Every fle you create remains fully private to </tspan><tspan x="64.6" y="92.18">you and the people you wish to share with.</tspan></text><path class="cls-4" d="M420.37,585.06c-13.23-39.48,6.15-80.46,45.06-95.34,33.37-12.75,73.35,1.77,91,33.07a108.51,108.51,0,0,1,6.89,16c2.71,7.36,5.51,15,10.5,21.36a5.06,5.06,0,0,1,1,4,5.84,5.84,0,0,1-2.66,3.91c-2.69,1.76-5.65,1.07-7.75-1.78A65.79,65.79,0,0,1,557,554.21c-1.54-3.47-2.86-7.08-4.14-10.58-2.42-6.64-4.93-13.5-9.08-19.55-17.57-25.65-50.4-34.51-79.84-21.53-12.67,5.58-23.24,16-29.78,29.39a62.12,62.12,0,0,0-5,42c5,20.23,14.21,40.24,29.08,63,1.53,2.34,3.19,4.67,4.79,6.92,1.25,1.77,2.55,3.59,3.78,5.42,1.93,2.85,1.58,5.88-.91,7.91a5.8,5.8,0,0,1-1,.65c-2.18,1.2-4.59.62-6.88-1.68a32.11,32.11,0,0,1-2.8-3.24,174.13,174.13,0,0,1-17.59-28C429.81,611.81,424.51,597.42,420.37,585.06Z"/><path class="cls-4" d="M393.36,570.41c1.06,9.69,4.05,19,6.95,28.09l.9,2.83c1.08,3.4.28,6-2.18,7.38a6,6,0,0,1-.92.41c-2.39.88-5.65.85-7.63-4.27-11.34-29.27-12-56.36-1.89-82.81C400,492.12,422.23,469.36,451.26,458s60.69-9.89,89.31,4.23a106.38,106.38,0,0,1,35.95,28.73l.07.1c1.49,2.35,3.09,5.8-.2,8.6-3.69,3.13-7.14-.1-8.28-1.16a14.69,14.69,0,0,1-1.25-1.38l-.21-.26a97.79,97.79,0,0,0-59.56-33.71,99,99,0,0,0-64.78,11.83C408.88,494.22,389.21,532.59,393.36,570.41Z"/><path class="cls-4" d="M469.59,568.32c-2-6.05-1.85-11.76.46-17,4.13-9.28,12.27-14.45,22.34-14.18s18,6.65,21.18,16.67a130.75,130.75,0,0,0,24.71,45.28c1.21,1.44,2.79,3.63,2.56,6a5.38,5.38,0,0,1-2.18,3.68c-4.5,3.61-8.14-.89-9.34-2.37-8.52-10.53-14.51-19.85-18.88-29.32-1.59-3.46-3-7.06-4.3-10.53-1.47-3.82-3-7.76-4.76-11.48-2.88-6-8.43-8-14.85-5.47-5.08,2-8,8.52-6.27,13.85a170.84,170.84,0,0,0,7.57,20.27c17.87,37.79,45.9,65.72,83.31,83a17.22,17.22,0,0,1,4.61,2.92,5.14,5.14,0,0,1,.9,6.51,5.23,5.23,0,0,1-2.08,2.16,5.52,5.52,0,0,1-3.93.41,21.62,21.62,0,0,1-3.82-1.44l-.24-.11c-35.64-16.12-63.63-42-83.19-76.79C476.91,589.38,472.61,577.47,469.59,568.32Z"/><path class="cls-4" d="M625.81,551.61c-11.77-4.56-19.84-13.35-24-26.13-1.28-3.93-3-7.75-4.59-11.45-1.35-3.06-2.74-6.22-3.89-9.42-.65-1-1.29-1.93-1.91-2.88-1.41-2.13-2.74-4.15-4.16-6.15-25.68-36.27-61-53.32-105.13-50.67A106.15,106.15,0,0,0,425.3,465.3c-2.34,1.7-6.71,4.87-10.12.29a5.28,5.28,0,0,1-1.16-4.06c.29-1.77,1.62-3.46,4.06-5.16a127.25,127.25,0,0,1,143.28-2.24,124.34,124.34,0,0,1,50.87,66.44c3.43,10.6,9.28,17.28,17.88,20.41,2.38.86,3.94,2.09,4.63,3.64a6.28,6.28,0,0,1-2.52,7.3C629.89,553.2,627,552.07,625.81,551.61Z"/><path class="cls-4" d="M373.52,609c-15.15-41-11.69-80.16,10.28-116.43A108.43,108.43,0,0,1,398.13,474c3.27-3.42,6.33-3.83,9.08-1.22,3.37,3.2.9,6.48-.77,8.69-.51.68-1.07,1.31-1.61,1.92l-.78.89c-19.48,22.87-29.07,49.41-28.49,78.9.48,24.47,9.6,46.81,19.38,67.31A268.54,268.54,0,0,0,419,672c2.43,3.39,2.15,6.58-.76,8.77a7.53,7.53,0,0,1-.81.53c-1.86,1-4.44,1.16-7.32-2.35-1.17-1.41-2.26-2.91-3.18-4.18-5.85-8.12-10.76-17-15.68-26.21C384,636.64,378.5,622.5,373.52,609Z"/><path class="cls-4" d="M535.53,546.29a47.15,47.15,0,0,0-26.93-29.13,46.26,46.26,0,0,0-38.85,2.11c-.49.25-1,.56-1.51.86-2,1.21-4.35,2.57-6.61,1.91a5.78,5.78,0,0,1-3.41-3.3c-2.4-4.8,1.29-6.88,4-8.41a21.77,21.77,0,0,0,2.07-1.26l.08-.06.09-.05c5.11-2.35,10.67-4.67,16.81-5.66,29.65-4.75,56,11.59,65.65,40.65,7.81,23.6,22.44,42,43.48,54.64a94.93,94.93,0,0,0,27.5,11.1c2,.47,7.31,1.7,6,7.42a5.42,5.42,0,0,1-2.27,3.62l-.2.11c-1.82,1-4.09.55-6.27,0l-.21-.05c-.27-.07-.55-.13-.82-.21C574.73,609.81,548.28,584.81,535.53,546.29Z"/><path class="cls-4" d="M435.05,572.68c-3.73-14.12-1.43-28.33,6.85-42.25,2.5-4.21,5.64-3.76,7.84-2.64s4.24,3.37,2,8c-.42.89-.89,1.76-1.35,2.6l-.11.21a44,44,0,0,0-3.5,34.43,161.51,161.51,0,0,0,12.31,30.58l0,.13a69.46,69.46,0,0,0,6.51,12.13c.81,1.32,1.63,2.64,2.43,4,12.2,20.52,28.24,38.38,49,54.61,4.26,3.34,8.87,6.36,13.32,9.27,1.67,1.1,3.35,2.2,5,3.32,3.66,2.46,4.49,5.28,2.46,8.37a6.12,6.12,0,0,1-2.11,2c-1.76,1-4,.71-6.58-.73-.47-.27-.93-.56-1.38-.86l-.85-.54a201.44,201.44,0,0,1-40.47-32.72C461.21,636.37,443.9,606.09,435.05,572.68Z"/><path class="cls-4" d="M555.22,436.79a5.29,5.29,0,0,1-2.24,2.7c-2.08,1.14-4.69.13-6.61-.6l-.52-.2c-1.63-.62-3.27-1.3-4.86-2a84.2,84.2,0,0,0-9.1-3.38c-49.69-14.15-94.23-3.88-132.37,30.54-5.25,4.74-9.75,10.32-14.11,15.72l-2.58,3.19a6.5,6.5,0,0,1-5.42,2.72,5,5,0,0,1-3.94-2.67v0c-1.24-2.4-.89-4.82,1.09-7.37.68-.87,1.34-1.75,2-2.63,2-2.67,4.13-5.44,6.44-8,25.29-27.94,56.74-44.15,93.47-48.17a140.85,140.85,0,0,1,73.93,11.83C552.5,429.43,557.44,431.65,555.22,436.79Z"/><path class="cls-4" d="M412.12,612.52c-5.62-13.77-11.44-28-12.85-43.4a81.67,81.67,0,0,1,.24-18.87,10,10,0,0,1,1.56-4.6,4.91,4.91,0,0,1,5-1.78c5.25.72,4.77,5.76,4.61,7.42-.12,1.28-.21,2.62-.29,4.1-.5,9.74.32,18,2.49,25.35A235.81,235.81,0,0,0,483,691.32a26.43,26.43,0,0,1,4.1,4.22,5.28,5.28,0,0,1-.46,7,5.8,5.8,0,0,1-1.4,1.11,5.29,5.29,0,0,1-5.08-.15,20.6,20.6,0,0,1-4-2.84c-22.12-19.38-39.67-41.45-55.22-69.45C418.82,627.87,415.6,621.05,412.12,612.52Z"/><path class="cls-4" d="M568.92,536.58c-7.79-23.32-22-39.65-43.42-49.94a97.26,97.26,0,0,0-19-6.28c-5-1.24-5.37-4.35-4.79-6.73s2.29-5,7.24-4.1c1.08.2,2.13.46,3.11.72,34,8.82,56.71,29.87,67.57,62.57,6.14,18.49,18.34,31.92,36.26,39.92a61,61,0,0,0,13.15,4,5.69,5.69,0,0,1,2.12,10.47h0l-.21.12c-2.18,1.19-4.33.64-6.23.15l-.39-.1C596.48,580.36,577.83,563.27,568.92,536.58Z"/><path class="cls-4" d="M498,591.14l0,0c-.49-1-1.05-2.09-1.63-3.22-1.4-2.74-3-5.85-4.3-9.06-.42-1-.85-2.06-1.28-3.09a71.71,71.71,0,0,1-4.67-13.69c-1-5,1.81-6.58,3.57-7,3.09-.83,5.65.52,7.05,3.77.41.94.83,1.91,1.17,2.91a150.79,150.79,0,0,0,15.37,32.48,152.41,152.41,0,0,0,46.93,47,147.87,147.87,0,0,0,27.15,13.56c1.85.71,6.75,2.6,4.87,7.8a5.62,5.62,0,0,1-2.5,3.2,4.83,4.83,0,0,1-1.58.53,10.84,10.84,0,0,1-5.06-.84l-.8-.31-.2-.08c-36.81-14.56-64.31-38.72-84.06-73.87Z"/><path class="cls-4" d="M363.28,627.23c-.3-.56-.6-1.12-.91-1.68l0,0A145.14,145.14,0,0,1,351,594.72c-7.81-32.7-4.57-64.94,9.65-95.85,1-2.28,3.22-7,8.32-4.9a5.11,5.11,0,0,1,3,2.69c.85,2.07-.14,4.43-1,6.52l0,.11c-.12.28-.26.56-.39.84s-.19.39-.28.59C355,538.93,354.2,574.31,367.8,609.88a89.74,89.74,0,0,0,4.49,9.5c1.06,2,2.16,4.15,3.14,6.3,1.71,3.73,1,6.77-2,8.39l-.29.15c-1.69.83-4.95,1.54-7.76-3.18C364.64,629.79,364,628.49,363.28,627.23Z"/><path class="cls-4" d="M464.81,603l0-.09c-1-2.43-2.12-4.91-3.18-7.32-3.84-8.66-7.8-17.63-9.76-27.32A40.24,40.24,0,0,1,494.77,520,39.49,39.49,0,0,1,520.27,532c1.31,1.32,3,3.34,3,5.7a5.43,5.43,0,0,1-1.86,3.88c-3.95,3.82-7.84,0-9.12-1.26a44.22,44.22,0,0,0-4.18-3.66,28.34,28.34,0,0,0-32.38-.76c-11,7.59-15.83,19.56-12.54,31.25,2.66,9.42,6.44,19,12.27,31.13.26.54.58,1.11.93,1.72,1.15,2,2.46,4.31,1.79,6.53a5.42,5.42,0,0,1-2.87,3.13,3.9,3.9,0,0,1-.35.19c-5.05,2.52-7.11-1.3-8.77-4.38-.42-.79-.86-1.6-1.33-2.3Z"/><path class="cls-4" d="M522.9,562.27c-1.18-3.09-3-7.75,2.1-9.8,5.37-2.16,7.66,3.38,8.52,5.46C544,583.32,561.9,603,586.75,616.47c8,4.32,16.46,7.1,24.44,9.46,3.65,1.08,5.26,3.66,4.41,7.09a5.35,5.35,0,0,1-2.57,3.63,6.66,6.66,0,0,1-4.7.43c-1.29-.28-2.53-.65-3.58-1-33.17-10.14-58.71-30.65-75.93-61A85.23,85.23,0,0,1,522.9,562.27Z"/><path class="cls-4" d="M622.91,529.91c-2.14-1.08-3-3.72-3.75-6l-.1-.33-.14-.38c-.07-.21-.15-.42-.21-.63-8.33-28.67-25.06-52.43-49.73-70.63l-.3-.22a18,18,0,0,1-3-2.58,4.9,4.9,0,0,1-.49-6.51,5.14,5.14,0,0,1,6.75-1.87,25.69,25.69,0,0,1,4.12,2.54A140.24,140.24,0,0,1,618,490.54h0a138.58,138.58,0,0,1,12.25,29.35l0,.13c.84,3,2.06,7.33-1.78,9.43a8.23,8.23,0,0,1-1.26.54A5.47,5.47,0,0,1,622.91,529.91Z"/><path class="cls-4" d="M408.74,518.81c9.12-17.64,22-30.82,38.1-39.18.71-.38,1.41-.78,2.11-1.18,1.54-.88,3.13-1.79,4.78-2.55a88.93,88.93,0,0,1,29.79-7.78,6.86,6.86,0,0,1,5.18,1.29,5.54,5.54,0,0,1,1.81,4c.14,2-.44,5.35-5.86,5.89h-.14c-1,.1-1.94.2-2.9.34-29.52,4.55-51,20.19-63.82,46.48l-.47,1a23.84,23.84,0,0,1-1.74,3.26,6,6,0,0,1-2.08,2,5.35,5.35,0,0,1-4.59.18,5,5,0,0,1-3.13-6.33A37.41,37.41,0,0,1,408.74,518.81Z"/><path class="cls-4" d="M480.2,628l0,0c-2.05-3.22-1.71-6.15,1-8.25s5.51-1.6,7.84,1.14c1.22,1.44,2.38,3,3.5,4.44.74,1,1.48,2,2.25,2.93a189,189,0,0,0,59.39,49.4c2.5,1.33,7.15,3.81,4.71,8.89a6,6,0,0,1-2.43,2.81,3.23,3.23,0,0,1-.66.29c-2.18.74-4.53-.46-6.6-1.52l-.53-.27A165.41,165.41,0,0,1,529,676,193.62,193.62,0,0,1,480.2,628Z"/><path class="cls-4" d="M399.57,622.2a5.13,5.13,0,0,1,3-2.77,5.58,5.58,0,0,1,4.4-.11c1.7.71,3.14,2.4,4.15,4.87a103.7,103.7,0,0,0,5.82,12c11.89,20.59,24.07,37.35,37.23,51.24,1.55,1.63,5.18,5.46,1.31,9.54a7.16,7.16,0,0,1-1.68,1.32,4.58,4.58,0,0,1-2.31.6c-1.78,0-3.59-1.07-5.55-3.21-20.43-22.35-35.26-44.24-45.35-66.9C399.64,626.57,398.75,624.25,399.57,622.2Z"/><path class="cls-4" d="M626.24,569.88c-15.58-3.9-27.68-13.36-37-28.94l0-.07-2.38-6.14C584.57,529,582,522.42,579.59,516c-1.06-2.79-.25-5.29,2.15-6.7s4.73-1,7,.93c1.9,1.64,2.81,3.86,3.65,6.19.63,1.73,1.22,3.48,1.81,5.23,1.2,3.58,2.45,7.29,4,10.76,6.2,13.87,16.74,22.82,31.34,26.6,2.26.59,5.07,1.32,5.92,4.46a5.49,5.49,0,0,1-1.82,5.74,5.86,5.86,0,0,1-1,.69c-2,1.1-4.2.55-6,.09Z"/><path class="cls-4" d="M547.25,624.2l-.12-.13c-2.1-2.87-2.06-5.63.13-7.77,3.68-3.6,7.52-.52,8.78.49,13.88,11.12,28.12,18.9,43.52,23.8,1.93.61,4.27,1.57,5.27,3.6a5.42,5.42,0,0,1,0,4.36,5.55,5.55,0,0,1-2.5,3.19c-2.37,1.3-5.4.23-6.65-.21-11.89-4.18-21.23-8.43-29.39-13.38C560.19,634.43,553.12,629.86,547.25,624.2Z"/><path class="cls-4" d="M581.35,585c-2.84-2.39-3.19-5.5-.93-8.31,2-2.53,5-2.67,7.94-.38a91.62,91.62,0,0,0,37.27,17.6,6.08,6.08,0,0,1,2.73,1.5,5.25,5.25,0,0,1,1.61,4.49,6.1,6.1,0,0,1-3.1,4.58l-.22.12h-.24c-.17,0-.38.05-.61.08a8.24,8.24,0,0,1-2.7.06A89.56,89.56,0,0,1,581.35,585Z"/><path class="cls-4" d="M474.15,674.94l-1.31-1.4-.14-.2c-1.77-3-1.5-5.7.79-7.9,1.94-1.85,4.5-2,7-.29a20.11,20.11,0,0,1,3.11,2.77l.13.13a206.43,206.43,0,0,0,27.3,23.56c2,1.46,4.05,3.07,4.39,5.32a5.45,5.45,0,0,1-1.29,4.14,6.47,6.47,0,0,1-2,1.84c-3,1.63-6.14-.68-8-2a254.14,254.14,0,0,1-26.28-22.09C476.5,677.5,475.25,676.14,474.15,674.94Z"/></g></g></svg>