<svg xmlns="http://www.w3.org/2000/svg" xmlns:xlink="http://www.w3.org/1999/xlink" viewBox="0 0 795.37 928.74"><defs><style>.cls-1{fill:none;}.cls-2{fill:#fcffe3;}.cls-3{font-size:40px;font-family:Avenir-Heavy, Avenir;font-weight:800;}.cls-3,.cls-4{fill:#1a1a1a;}.cls-4{font-size:25.61px;font-family:Montserrat-Regular, Montserrat;}.cls-5{fill:#333;}.cls-6{fill:#e9ffe3;}.cls-7{clip-path:url(#clip-path);}.cls-8{fill:#ededed;}.cls-9{fill:#e8fff6;}.cls-10{fill:#ffddd6;}</style><clipPath id="clip-path" transform="translate(12.16)"><path class="cls-1" d="M473.16,419.91a17.85,17.85,0,0,1-11.71,22.35L223.12,516.72A17.84,17.84,0,0,1,200.77,505L137,300.73a17.83,17.83,0,0,1,11.7-22.34L387,203.92a17.85,17.85,0,0,1,22.35,11.71l63.83,204.28Z"/></clipPath></defs><g id="Layer_2" data-name="Layer 2"><g id="Layer_1-2" data-name="Layer 1"><rect class="cls-2" x="31.94" width="743.64" height="928.74" rx="23.96"/><text class="cls-3" transform="translate(260.34 692.3)">Meet Privately.</text><text class="cls-4" transform="translate(155.83 748.03)">More than just an option, privacy is the <tspan x="-33.58" y="30.73">foundation of how Digital Twin works. Share </tspan><tspan x="-20.01" y="61.46">freely with your family, friends, colleagues </tspan><tspan x="68.59" y="92.18">and community, every time.</tspan></text><path class="cls-5" d="M567.8,153.14A17.83,17.83,0,0,0,551,157.56l-94.13,90.65-12.67-40.56a53.51,53.51,0,0,0-67-35.11L138.85,247a53.5,53.5,0,0,0-35.12,67l63.83,204.29a53.49,53.49,0,0,0,67,35.11L472.92,479a53.51,53.51,0,0,0,35.12-67l-12.67-40.55,129,21a17.84,17.84,0,0,0,19.85-23L580.4,165.1A17.82,17.82,0,0,0,567.8,153.14ZM474,422.58a17.83,17.83,0,0,1-11.71,22.34L224,519.39a17.83,17.83,0,0,1-22.34-11.71L137.78,303.4a17.84,17.84,0,0,1,11.7-22.35l238.34-74.46a17.83,17.83,0,0,1,22.34,11.7L474,422.58Zm127.58-70.1-118.1-19.15-14.7-47.06,86.19-83Z" transform="translate(12.16)"/><polygon class="cls-6" points="613.73 352.48 495.63 333.33 480.93 286.27 567.12 203.29 613.73 352.48"/><g class="cls-7"><circle class="cls-8" cx="315.06" cy="279.58" r="155.89"/><circle class="cls-9" cx="155.93" cy="345.18" r="155.89"/><circle class="cls-10" cx="262.54" cy="459.98" r="140.78"/><circle class="cls-6" cx="492.66" cy="399.94" r="155.89"/></g><path class="cls-5" d="M378.33,322.08l-3.81-12.19-23.77,7.43-9.27-29.66L327.67,292l9.27,29.66L319.74,327,303,273.5l-32.52,10.16,17.73,56.74q-16.73-11.31-39-4.36a49.88,49.88,0,0,0-22.84,14.68q-9.31,10.45-11.89,26t3.23,34.09q5.65,18.12,17,29.17a54.49,54.49,0,0,0,25.36,14.48,50.56,50.56,0,0,0,27.53-.82q25.1-7.83,30-31.17l5.39,17.24,29-9.07-28.57-91.44,17.19-5.37,20.56,65.82q4.32,13.82,13.58,18.84t21.86,1.08a49.18,49.18,0,0,0,10.59-4.64l-3.81-12.19a41.16,41.16,0,0,1-8.48,3.54q-6.92,2.16-12.24-.63t-8.13-11.74l-20.11-64.39ZM302.63,411a23.1,23.1,0,0,1-15.51,14.78,23.84,23.84,0,0,1-21.63-3.3q-10.07-6.92-14.77-22-4.77-15.27-.54-26.65a23.78,23.78,0,0,1,16-15.07,23,23,0,0,1,21.2,3.44q9.84,7,14.62,22.26T302.63,411Z" transform="translate(12.16)"/></g></g></svg>