<svg xmlns="http://www.w3.org/2000/svg" viewBox="0 0 519 372.98"><defs><style>.cls-1{fill:#dffdff;}.cls-2{font-size:18px;font-family:Avenir-Medium, Avenir;font-weight:500;}.cls-2,.cls-3{fill:#1a1a1a;}.cls-3{font-size:25px;font-family:Avenir-Heavy, Avenir;font-weight:800;}.cls-4{fill:#ffddd6;}</style></defs><g id="Layer_2" data-name="Layer 2"><g id="Layer_1-2" data-name="Layer 1"><rect class="cls-1" width="519" height="355.6" rx="18.56"/><text class="cls-2" transform="translate(66.25 274.48)">Transact using the power of a peer-to-peer grid <tspan x="13.08" y="21.6">which gives an added level of security whilst </tspan><tspan x="33.39" y="43.2">maintaining the utmost level of privacy.</tspan></text><text class="cls-3" transform="translate(196.3 241.55)">PAYMENTS</text><path class="cls-4" d="M334.39,175.42H184.61a9,9,0,0,1-9-9v-65.9H343.37v65.9A9,9,0,0,1,334.39,175.42Z"/><path d="M334.39,55.6H184.61a21,21,0,0,0-21,21v89.87a21,21,0,0,0,21,21H334.39a21,21,0,0,0,21-21V76.57A21,21,0,0,0,334.39,55.6Zm-149.78,12H334.39a9,9,0,0,1,9,9v12H175.63v-12A9,9,0,0,1,184.61,67.59ZM334.39,175.42H184.61a9,9,0,0,1-9-9v-65.9H343.37v65.9A9,9,0,0,1,334.39,175.42Z"/><path d="M200.15,100.05a46.48,46.48,0,1,0,65,9.9A46.49,46.49,0,0,0,200.15,100.05Zm52.19,71a41.6,41.6,0,1,1,8.86-58.15A41.59,41.59,0,0,1,252.34,171Z"/><circle cx="210.98" cy="136.36" r="10.91"/><circle cx="243.08" cy="136.36" r="10.91"/><path d="M328.21,131.18v-4.44h-8.67V115.92h-5v10.82h-6.28V107.21H296.36v20.71q-4.38-5.51-12.5-5.5a17.24,17.24,0,0,0-15.77,9.92A25.55,25.55,0,0,0,265.62,144a23.78,23.78,0,0,0,2.63,11.47,18.91,18.91,0,0,0,6.93,7.44,17.53,17.53,0,0,0,9.23,2.59q9.16,0,13.22-7.24v6.29h10.59V131.18h6.28v24q0,5,2.55,7.67a9.51,9.51,0,0,0,7.16,2.63,17.51,17.51,0,0,0,4-.44v-4.45a14.09,14.09,0,0,1-3.19.3,5.4,5.4,0,0,1-4-1.49q-1.49-1.47-1.48-4.74v-23.5Zm-34.4,21.7a8.06,8.06,0,0,1-6.69,3.31,8.33,8.33,0,0,1-6.85-3.35,13.9,13.9,0,0,1-2.62-8.84c0-3.71.86-6.69,2.58-8.92a8.29,8.29,0,0,1,6.89-3.34,8,8,0,0,1,6.69,3.34c1.7,2.23,2.55,5.21,2.55,8.92S295.51,150.68,293.81,152.88Z"/><path class="cls-4" d="M184.61,67.59H334.39a9,9,0,0,1,9,9v12H175.63v-12A9,9,0,0,1,184.61,67.59Z"/></g></g></svg>