<svg xmlns="http://www.w3.org/2000/svg" viewBox="0 0 968 812.98"><defs><style>.cls-1{fill:#ccffe6;}.cls-2{font-size:40px;font-family:Avenir-Heavy, Avenir;font-weight:800;}.cls-2,.cls-3{fill:#1a1a1a;}.cls-3{font-size:25.61px;font-family:Montserrat-Regular, Montserrat;}.cls-4{fill:#fcffe3;stroke:#1a1a1a;stroke-miterlimit:10;stroke-width:5px;}</style></defs><g id="Layer_2" data-name="Layer 2"><g id="Layer_1-2" data-name="Layer 1"><rect class="cls-1" width="968" height="812.98" rx="23.96"/><text class="cls-2" transform="translate(360.22 162.52)">Ultra Secure.</text><text class="cls-3" transform="translate(137.62 236.24)">Experience the frst quantum safe permanent storage <tspan x="25.82" y="30.73">solution on the market. Protected by autonomous </tspan><tspan x="20.36" y="61.46">technology, your fles are stored without the fear of </tspan><tspan x="263.89" y="92.18">being stolen. </tspan></text><path class="cls-4" d="M380.05,580.82l24.09-13.91-88.81-51.27c-4.19-2.42-4.19-6.36,0-8.79l90.73-52.38a16.84,16.84,0,0,1,15.21,0l88.81,51.28,24.09-13.91-88.81-51.27c-17.48-10.09-45.91-10.09-63.39,0L291.25,493c-17.48,10.09-17.48,26.5,0,36.59Z"/><path class="cls-4" d="M341.19,586.94c0-12.88,7.83-27.84,17.48-33.41l160.91-92.9c4.32-2.5,8.27-2.67,11.33-1h0L723,571.3l-185.78,140L348,601.44a9,9,0,0,1-1.67-1h0C343.14,598.07,341.19,593.37,341.19,586.94Z"/><path class="cls-4" d="M537.25,711.29,348,601.44a9,9,0,0,1-1.67-1h0c-3.16-2.39-5.11-7.09-5.11-13.52a43,43,0,0,1,4.71-18.61L561.66,692.9Z"/><path class="cls-4" d="M549.35,710.79l160.9-92.89c9.66-5.58,17.49-20.54,17.49-33.42h0c0-12.87-7.83-18.79-17.49-13.22l-160.9,92.9c-9.66,5.58-17.49,20.54-17.49,33.41h0C531.86,710.45,539.69,716.37,549.35,710.79Z"/><path class="cls-4" d="M573.45,679.46l19.34-11.16c1.93-1.11,3.49-4.09,3.49-6.66h0c0-2.56-1.56-3.74-3.49-2.63l-19.34,11.16c-1.93,1.11-3.49,4.09-3.49,6.66h0C570,679.4,571.52,680.57,573.45,679.46Z"/></g></g></svg>