<svg xmlns="http://www.w3.org/2000/svg" viewBox="0 0 983.27 886.59"><defs><style>.cls-1{fill:#fdffee;}.cls-2{font-size:40px;font-family:Avenir-Heavy, Avenir;font-weight:800;}.cls-2,.cls-3{fill:#1a1a1a;}.cls-3{font-size:25.61px;font-family:Montserrat-Regular, Montserrat;}.cls-4{fill:#ffecdf;}.cls-5{fill:#bbeef5;}.cls-6{fill:#9ef0d0;}.cls-7{fill:#e8fff6;}</style></defs><g id="Layer_2" data-name="Layer 2"><g id="Layer_1-2" data-name="Layer 1"><rect class="cls-1" width="983.27" height="886.59" rx="23.96"/><text class="cls-2" transform="translate(304.2 149.23)">Designed to Thrive.</text><text class="cls-3" transform="translate(149.91 222.95)">Whether you&apos;re working on a personal or commercial <tspan x="12.46" y="30.73">web project, beneft from templates, error tracking, </tspan><tspan x="26.09" y="61.46">local environment sharing and more to scale fast.</tspan></text><path class="cls-4" d="M586.08,498.47l-15.62-6.74a9.62,9.62,0,0,1-2.34-16.23l13.09-10.87a.42.42,0,0,0,.12-.5L561.5,420.72a.4.4,0,0,0-.45-.23l-16.78,2.77a9.64,9.64,0,0,1-9.34-3.82,9.48,9.48,0,0,1-1.4-8.57l5.14-16.22a.43.43,0,0,0-.18-.48l-40.14-25.8a.44.44,0,0,0-.51,0l-12.62,11.41a9.43,9.43,0,0,1-6.42,2.49,9.55,9.55,0,0,1-9.32-7.11L465,358.78a.43.43,0,0,0-.41-.31H416.91a.41.41,0,0,0-.4.31l-4.45,16.42a9.55,9.55,0,0,1-9.32,7.11,9.43,9.43,0,0,1-6.42-2.49L383.7,368.41a.42.42,0,0,0-.5,0l-40.15,25.8a.41.41,0,0,0-.17.48L348,410.87a9.48,9.48,0,0,1-1.4,8.57,9.63,9.63,0,0,1-9.34,3.82l-16.78-2.77a.41.41,0,0,0-.45.23l-19.82,43.41a.41.41,0,0,0,.11.5l13.09,10.87a9.61,9.61,0,0,1-2.34,16.23l-15.62,6.74a.43.43,0,0,0-.25.44l6.8,47.24a.41.41,0,0,0,.36.36l16.89,2.06a9.62,9.62,0,0,1,6.81,14.92l-9.5,14.11a.44.44,0,0,0,0,.51l31.25,36.07a.43.43,0,0,0,.5.1l15.32-7.39a9.62,9.62,0,0,1,4.18-1,9.77,9.77,0,0,1,6.91,2.92,9.54,9.54,0,0,1,2.71,6.92l-.36,17a.44.44,0,0,0,.3.42l45.79,13.44a.43.43,0,0,0,.48-.18l8.89-14.5a9.61,9.61,0,0,1,16.4,0l8.89,14.5a.45.45,0,0,0,.36.2l.12,0,45.79-13.44a.44.44,0,0,0,.3-.42l-.36-17a9.51,9.51,0,0,1,2.72-6.92,9.75,9.75,0,0,1,6.9-2.92,9.59,9.59,0,0,1,4.18,1l15.32,7.39a.43.43,0,0,0,.5-.1l31.25-36.07a.42.42,0,0,0,0-.51l-9.5-14.11a9.62,9.62,0,0,1,6.82-14.92l16.88-2.06a.44.44,0,0,0,.37-.36l6.79-47.24A.43.43,0,0,0,586.08,498.47ZM440.77,571.36a68.81,68.81,0,1,1,68.81-68.81A68.8,68.8,0,0,1,440.77,571.36Z"/><path class="cls-5" d="M712.19,761.52,703,751.44a7.73,7.73,0,0,1,3.63-12.67l13.17-3.66a.33.33,0,0,0,.25-.33l-.26-38.34a.33.33,0,0,0-.25-.32l-13.22-3.48a7.8,7.8,0,0,1-5.59-5.88,7.64,7.64,0,0,1,1.8-6.75l9.1-10.19a.35.35,0,0,0,0-.41l-21-32.12a.32.32,0,0,0-.38-.13l-13,4.21a7.72,7.72,0,0,1-10-8.56l2.14-13.5a.34.34,0,0,0-.2-.36l-35-15.7a.35.35,0,0,0-.4.09l-8.66,10.58a7.73,7.73,0,0,1-13.06-1.79l-5.49-12.51a.34.34,0,0,0-.36-.2l-37.92,5.71a.33.33,0,0,0-.28.3L566.48,619a7.64,7.64,0,0,1-3.84,5.83,7.79,7.79,0,0,1-8.11-.27L543.14,617a.35.35,0,0,0-.41,0l-28.81,25.3a.35.35,0,0,0-.08.4l6,12.27a7.73,7.73,0,0,1-7.05,11.14l-13.66-.2a.35.35,0,0,0-.33.24L488.26,703a.33.33,0,0,0,.15.38l11.7,7.07a7.74,7.74,0,0,1,.09,13.18l-11.61,7.22a.35.35,0,0,0-.14.38L499.5,768a.33.33,0,0,0,.33.24l13.66-.38a7.65,7.65,0,0,1,7.48,5.08,7.63,7.63,0,0,1-.28,6l-5.86,12.35a.34.34,0,0,0,.09.4l29.14,24.91a.35.35,0,0,0,.41,0l11.29-7.71a7.73,7.73,0,0,1,12,5.39l1.75,13.56a.34.34,0,0,0,.2.26l.09,0,38,5.2a.34.34,0,0,0,.36-.2l5.33-12.58a7.6,7.6,0,0,1,4.26-4.18,7.8,7.8,0,0,1,6,.13,7.63,7.63,0,0,1,2.75,2.08l8.8,10.46a.34.34,0,0,0,.4.09L670.5,813a.34.34,0,0,0,.19-.36l-2.32-13.47a7.73,7.73,0,0,1,9.9-8.7l13.06,4a.32.32,0,0,0,.38-.14l20.51-32.39A.33.33,0,0,0,712.19,761.52ZM581.7,767.16a55.28,55.28,0,1,1,73.06-27.81A55.28,55.28,0,0,1,581.7,767.16Z"/><path class="cls-6" d="M473.75,755.44,467.84,749a4.95,4.95,0,0,1,2.32-8.11l8.43-2.34a.23.23,0,0,0,.16-.21l-.17-24.54a.2.2,0,0,0-.16-.2L470,711.36a5,5,0,0,1-3.58-3.76,4.87,4.87,0,0,1,1.15-4.32l5.82-6.52a.24.24,0,0,0,0-.27L460,675.94a.25.25,0,0,0-.25-.09l-8.32,2.7a4.94,4.94,0,0,1-6.41-5.48l1.37-8.64a.23.23,0,0,0-.13-.23l-22.38-10a.22.22,0,0,0-.26.06L418.06,661a4.91,4.91,0,0,1-5.87,1.37,4.81,4.81,0,0,1-2.48-2.52l-3.52-8a.21.21,0,0,0-.23-.12l-24.26,3.65a.21.21,0,0,0-.18.19l-1,8.69a4.9,4.9,0,0,1-2.46,3.73,5,5,0,0,1-5.19-.18L365.58,663a.23.23,0,0,0-.27,0l-18.43,16.19a.21.21,0,0,0-.05.25l3.85,7.86a4.94,4.94,0,0,1-4.51,7.12l-8.75-.13a.24.24,0,0,0-.21.16L330.46,718a.2.2,0,0,0,.1.24l7.48,4.52a5,5,0,0,1,.06,8.44l-7.43,4.62a.21.21,0,0,0-.09.24l7.07,23.5a.22.22,0,0,0,.21.15l8.74-.24a4.89,4.89,0,0,1,4.79,3.25,4.86,4.86,0,0,1-.18,3.81l-3.75,7.9a.22.22,0,0,0,.06.26l18.65,15.94a.21.21,0,0,0,.26,0l7.22-4.93a4.95,4.95,0,0,1,7.7,3.45l1.12,8.67a.2.2,0,0,0,.12.17l.06,0L407,801.38a.22.22,0,0,0,.23-.13l3.41-8.06a4.9,4.9,0,0,1,2.73-2.67,5,5,0,0,1,3.85.08,5.1,5.1,0,0,1,1.76,1.34l5.63,6.69a.21.21,0,0,0,.25.06l22.25-10.34a.22.22,0,0,0,.12-.24l-1.48-8.61a4.95,4.95,0,0,1,6.34-5.57l8.35,2.59a.23.23,0,0,0,.25-.1l13.12-20.72A.2.2,0,0,0,473.75,755.44Zm-83.5,3.61A35.38,35.38,0,1,1,437,741.25,35.37,35.37,0,0,1,390.25,759.05Z"/><circle class="cls-7" cx="440.77" cy="502.55" r="74.46"/><path d="M363.24,472.35A83.2,83.2,0,1,0,471,425,83.21,83.21,0,0,0,363.24,472.35Zm146.91,57.23a74.46,74.46,0,1,1-42.35-96.41A74.47,74.47,0,0,1,510.15,529.58Z"/><ellipse cx="411.62" cy="513.17" rx="19.92" ry="20.63" transform="translate(-213.98 309.68) rotate(-33.25)"/><ellipse cx="464.2" cy="487.22" rx="19.92" ry="20.63" transform="translate(-191.14 334.27) rotate(-33.25)"/><circle class="cls-7" cx="604.08" cy="716.46" r="52.97"/><path d="M588.33,659.4a59.2,59.2,0,1,0,72.81,41.3A59.2,59.2,0,0,0,588.33,659.4Zm29.85,108.12a53,53,0,1,1,37-65.16A53,53,0,0,1,618.18,767.52Z"/><ellipse cx="585.63" cy="704.35" rx="14.68" ry="14.17" transform="translate(-276.72 1013.26) rotate(-69.97)"/><ellipse cx="622.79" cy="723.3" rx="14.68" ry="14.17" transform="matrix(0.34, -0.94, 0.94, 0.34, -270.09, 1060.63)"/><circle class="cls-7" cx="405.15" cy="726.62" r="36.82"/><path d="M446.16,729.92a41.14,41.14,0,1,0-44.31,37.71A41.14,41.14,0,0,0,446.16,729.92Zm-77.71-6.25a36.82,36.82,0,1,1,33.75,39.65A36.82,36.82,0,0,1,368.45,723.67Z"/><ellipse cx="417.45" cy="717.46" rx="9.85" ry="10.2" transform="translate(-400.32 575.12) rotate(-49.93)"/><ellipse cx="396.23" cy="737.21" rx="9.85" ry="10.2" transform="matrix(0.64, -0.77, 0.77, 0.64, -423, 565.92)"/></g></g></svg>